<?xml version="1.0" encoding="utf-8" ?><svg xmlns="http://www.w3.org/2000/svg" xmlns:xlink="http://www.w3.org/1999/xlink" width="1792" height="672" viewBox="0 0 1792 672"><clipPath id="cl_3"><rect width="1792" height="672"/></clipPath><g clip-path="url(#cl_3)"><path fill="#8F7A5A" transform="matrix(1.33333 0 0 1.33333 0 -352)" d="M900.044 343.147C900.494 344.484 899.639 346.339 899.169 347.787C900.797 347.326 902.928 344.708 904.319 343.293C905.522 344.453 901.892 345.901 902.055 348.612L904.526 347.535L904.751 348.099L903.174 350.287L903.572 350.778L907.334 349.608C907.68 351.102 905.227 350.621 904.974 353.018C905.918 352.944 906.628 352.924 907.565 352.912C907.157 358.403 894.496 371.751 890.396 376.468C892.71 376.437 895.389 376.553 897.23 377.995C897.416 378.842 897.689 379.051 897.354 379.764C893.481 388 889.866 384.876 884.022 382.45C882.055 383.155 881.112 383.991 879.439 385.206C873.985 388.094 867.685 388.655 863.203 393.181C861.55 394.85 857.943 390.744 855.759 390.804C855.189 390.82 854.538 390.461 854.13 390.048L856.41 388.182L854.963 387.858L854.614 387.188C859.492 382.492 873.096 380.445 873.627 373.323C874.946 371.663 878.526 371.047 880.764 370.434C889.714 360.172 892.966 354.656 900.044 343.147Z"/><defs><linearGradient id="gradient_0" gradientUnits="userSpaceOnUse" x1="717.83057" y1="798.71942" x2="696.17529" y2="393.57352"><stop offset="0" stop-color="#143428"/><stop offset="1" stop-color="#72472A"/></linearGradient></defs><path fill="url(#gradient_0)" transform="matrix(1.33333 0 0 1.33333 0 -352)" d="M539.062 353.752C560.059 318.352 592.721 292.789 632.787 282.578C673.312 271.839 716.452 277.852 752.499 299.264C786.759 319.618 811.604 352.675 821.633 391.25C825.379 406.219 829.146 427.612 823.991 442.632C826.654 448.448 829.184 454.218 832.408 459.75C838.675 449.169 844.536 440.873 851.731 431.026C861.876 448.746 870.994 466.967 881.455 484.549C888.499 478.261 894.934 471.912 901.667 465.299C907.37 470.593 912.237 478.422 917.116 484.532C923.97 493.117 931.731 502.276 939.861 509.639L949.671 507.113C958.48 515.771 980.938 548.986 991.91 549.171C994.028 549.207 995.763 548.36 997.154 546.778C1002.44 540.762 1000.9 529.237 1000.75 521.802C997.697 526.497 994.451 536.145 990.869 537.847C984.487 535.473 991.848 524.224 993.959 521.249C989.139 522.852 983.07 525.524 978.21 524.366L977.538 523.625C979.516 518.324 988.229 516.04 993.38 515.646C989.755 513.661 983.138 510.82 981.868 507.042C985.074 502.865 996.331 509.564 999.574 512.081C1002.86 506.781 1006.1 503.237 1012.88 504.392L1013.78 505.069C1012.83 507.198 1007.53 511.312 1005.33 513.858C1010.21 513.604 1017.96 513.163 1021.52 517.157L1021.22 518.328C1016.64 520.975 1010.28 519.486 1004.93 519.081C1011.75 523.229 1013.63 523.607 1013.56 532.007C1013.52 536.135 1027.31 543.488 1030.56 545.569C1034.11 537.275 1034.76 535.945 1044.18 536.303C1047.11 532.388 1049.09 529.971 1052.99 526.802C1044.35 527.128 1037.36 527.782 1028.78 528.83C1032 526.389 1034.93 524.181 1038.29 521.914C1031.84 515.431 1025.71 506.364 1023.1 497.559C1021.87 494.83 1020.95 488.327 1021.33 485.396C1021.96 480.432 1022.02 480.223 1025.62 477.214C1025.77 479.547 1025.84 480.963 1026.3 483.271C1030.91 485 1038.11 478.839 1040.49 475.241C1050.79 480.75 1054.27 482.885 1061.81 491.961C1062.22 486.499 1062.84 481.415 1063.52 475.978L1067.19 472.529C1066.53 471.533 1064.59 468.514 1064.6 467.633C1064.72 457.808 1075.56 446.38 1085.01 445.23C1093.71 444.171 1098.43 447.851 1104.53 452.327L1104.55 451.799C1104.78 444.532 1108.19 432.558 1114.14 427.732C1118.19 424.441 1122.53 425.662 1127.24 426.403C1129.18 424.85 1130.58 423.362 1132.96 422.988C1135.04 423.434 1135.67 424.383 1137.1 425.908C1139.57 423.403 1146.04 416.629 1149.25 416.432C1154.7 416.095 1171.12 423.435 1171.85 429.255C1170.66 431.526 1165.54 435.868 1163.21 438.378C1168.4 436.398 1170.63 433.95 1176.61 433.832L1177.04 434.774C1175.78 437.031 1173.08 438.692 1170.94 440.255L1180.58 440.568C1178.83 424.412 1190.06 419.444 1204.14 417.517C1207.09 418.943 1208.83 420.209 1211.54 422.089C1214.64 419.711 1219.84 415.136 1223.84 416.778C1229.59 419.135 1240.27 422.048 1243.39 427.68C1243.35 431.212 1236.65 435.668 1233.23 439.25C1236.97 436.922 1244.75 430.748 1248.84 433.197C1249.84 434.896 1249.65 435.683 1249.45 437.594L1249.38 438.231C1250.93 440.114 1255.13 439.262 1258.14 441.29C1262.02 443.907 1261.98 446.573 1264.11 448.696C1267.33 446.148 1266.87 440.31 1266.02 436.675C1264.6 430.547 1257.6 435.725 1256.7 430.234C1255.75 424.492 1266.65 417.236 1271.25 416.235C1276.15 415.171 1282.9 419.998 1286.79 422.512C1292.38 410.369 1297.21 410.711 1309.22 406.208C1321.39 401.645 1327.99 406.897 1335.37 415.955C1338.05 414.542 1338.75 414.342 1341.7 413.577L1344 412.843L1344 459.037L1344 467.259L1344 470.833L1344 489.015L1344 522.86L1344 525.481L1344 601.745L1344 604.173L1344 607.189L1344 608.861L1344 623.024L1344 623.893L1344 652.321L1344 684.077L1344 704.739L1344 706.026L1344 768L1069.32 768L1066.49 768L1065.28 768L853.381 768L756.715 768L698.714 768L685.747 768L591.786 768L565.337 768L525.844 768L476.389 768L474.523 768L457.03 768L383.525 768L378.685 768L358.37 768L296.726 768L293.92 768L291.528 768L285.326 768L278.106 768L275.363 768L268.386 768L266.72 768L259.792 768L259.387 768L251.972 768L251.514 768L224.894 768L77.9833 768L70.9103 768L54.9389 768L27.7829 768L0 768L0 706.034L0 670.618L0 649.13L0 628.104L0 613.721L0 564.726C2.57473 564.243 5.25319 564.175 6.95053 562.317C9.15609 565.811 13.0174 575.691 14.7158 579.984C18.4903 584.473 21.2744 587.906 23.7794 593.366C32.3752 607.728 49.2393 619.072 63.7329 626.616C64.0027 625.967 64.2915 625.327 64.5988 624.695C68.1816 617.307 69.4806 614.903 77.1825 612.204C77.3423 608.434 76.9779 603.936 76.7727 600.114L77.1002 598.897C73.9496 591.731 69.7679 586.923 63.0317 582.905L63.0251 582.245C62.9593 578.62 65.3839 572.899 66.658 569.078L67.5775 567.469L63.6186 566.881C62.8348 564.538 62.3295 560.862 61.8994 558.32C59.2777 544.409 65.8243 528.183 67.3506 515.396C69.6481 513.93 70.972 502.888 73.2672 498.836L73.8884 498.914C74.2196 500.545 74.5892 502.168 74.9969 503.782C79.107 499.839 80.6557 488.539 85.6425 484.76L86.6285 485.259C87.8927 487.579 89.6791 496.056 90.7601 499.555C91.0578 497.331 91.0459 495.299 92.746 493.851L93.8033 493.929C94.7763 495.333 95.0319 497.62 94.9507 499.284C95.1758 500.163 96.1584 504.205 96.4327 504.805C123.09 493.504 148.961 489.976 176.102 501.671C185.667 505.353 194.707 510.266 204.255 513.952C214.391 517.866 227.608 516.066 237.982 514.225C249.867 512.117 262.073 505.029 274.163 506.34C291.391 508.209 307.351 519.547 324.731 519.426C329.117 519.333 338.549 515.669 342.987 513.856C357.461 507.941 372.269 504.046 388.108 506.355C401.034 508.239 413.789 515.291 426.596 519.964C469.459 535.605 520.306 549.733 565.307 535.44C565.66 535.328 566.096 535.057 566.406 534.872C554.208 519.096 542.972 508.927 532.349 490.144C517.408 463.726 514.35 423.82 522.647 395.056C523.515 390.291 526.114 382.958 527.674 378.133C527.474 375.651 521.317 372.197 521.604 367.484C524.221 367.379 527.692 370.055 529.621 371.736C531.3 366.871 536.335 358.424 539.062 353.752Z"/><path fill="#253B2C" transform="matrix(1.33333 0 0 1.33333 0 -352)" d="M450.131 650.358C451.648 641.71 446.433 626.05 450.515 617.393L449.85 615.192L450.62 614.036C450.455 615.902 457.782 647.158 458.194 647.789C460.561 648.689 459.534 648.566 462.123 648.152C465.279 644.985 461.516 625.307 468.885 613.619C469.272 619.7 468.455 635.915 471.254 639.93L472.342 640.169C476.07 635.982 475.413 618.05 478.294 615.212C479.584 620.43 477.994 630.423 480.611 635.303L481.657 635.745C484.951 632.057 483.117 623.521 487.926 615.053C487.973 620.544 486.608 627.107 489.654 630.252L490.803 630.462C494.614 627.24 496.521 616.888 498.873 614.658C499.184 617.892 495.929 622.623 498.261 626.637L498.951 626.834C502.206 623.772 499.366 620.041 504.096 618.442L504.668 618.885C506.347 620.171 507.024 620.834 509.181 621.059L512.806 619.391C514.77 618.472 535.758 618.011 537.527 618.721C531.069 620.339 526.04 621.401 519.796 624.23C519.054 624.566 514.445 625.237 513.156 625.522L513.162 626.102C515.727 626.677 516.275 626.538 518.84 626.199L518.906 626.634C502.69 640.652 498.99 628.634 492.975 630.673C491.753 638.093 509.708 644.608 515.124 647.986C516.504 646.107 518.236 643.335 520.235 642.359C521.701 643.533 523.194 645.153 524.977 644.589C528.286 643.542 532.369 641.669 535.541 640.268C538.594 643.117 543.076 648.796 547.018 648.669C554.421 644.003 551.496 643.661 560.936 641.848C561.836 645.141 562.726 648.633 563.735 651.877C571.284 643.921 570.908 634.548 582.911 642.166C586.129 638.495 586.172 636.715 590.093 632.989C597.071 635.972 595.858 635.42 599.576 641.828C600.205 642.912 604.663 640.527 605.868 640.806C607.877 641.273 608.439 642.881 610.371 643.849C614.734 638.501 612.314 632.103 617.929 631.204C621.786 632.119 625.892 635.874 628.728 638.569C630.612 633.935 633.81 624.026 639.564 624.633C646.033 628.56 645.034 638.463 649.958 640.964C652.473 642.242 659.973 643.309 662.979 643.702C659.797 636.566 655.755 627.15 651.763 620.575C662.861 625.173 669.377 629.346 676.248 639.62C674.822 629.437 673.49 622.497 671.099 612.399C680.048 621.66 684.379 629.03 687.664 641.299C690.345 638.136 693.276 633.944 696.717 632.068L697.99 632.158C699.878 635.146 698.744 646.169 698.804 650.326C701.174 649.131 703.396 647.667 705.98 647.829C710.103 650.14 708.439 656.125 707.967 660.39C711.418 661.427 719.813 664.174 723.203 663.604C730.491 662.378 732.095 656.826 739.572 662.9L741.039 662.684C743.665 658.587 738.588 653.212 742.364 651.775C748.183 652.584 753.271 658.321 757.119 662.396C758.985 656.688 760.876 648.203 766.868 645.414L767.661 645.82C768.504 650.301 767.266 654.307 770.258 656.625C772.66 653.928 769.424 651.232 776.071 652.863L776.248 653.47C775.16 654.658 774.252 655.406 773.808 656.939L770.829 661.316C772.414 672.72 772.684 672.956 777.062 683.104C781.514 693.425 796.817 702.382 792.499 710.904C781.016 715.833 767.778 672.974 763.831 665.461C723.508 699.748 784.872 716.617 785.456 732.136C781.5 738.057 768.702 728.76 764.834 725.442C754.453 716.538 748.538 703.706 744.644 690.844C736.76 699.974 727.846 716.032 740 725.687C736.853 726.429 737.699 725.761 735.87 728.049C735.337 725.003 735.92 725.933 733.947 724.184C723.745 723.511 730.258 748.952 733.442 754.659C721.51 755.373 695.61 761.59 685.747 768L591.786 768L565.337 768L525.844 768L476.389 768L474.523 768L457.03 768L383.525 768L378.685 768L358.37 768L296.726 768L293.92 768L291.528 768C291.902 761.192 292.025 754.373 291.896 747.557L287.537 743.791C284.541 747.093 276.597 755.325 271.497 753.639C269.854 749.277 277.935 743.521 277.812 740.588C274.045 741.182 266.808 747.272 261.428 748.147L261.17 747.214C262.564 744.059 265.907 740.362 268.24 737.669L268.063 736.068C266.231 735.716 262.019 739.313 260.154 740.549C256.688 742.847 253.431 744.032 249.607 745.504C254.649 735.812 256.212 737.923 261.716 730.537C261.824 726.16 261.431 720.764 264.006 717.243L265.142 717.396C268.686 721.938 269.091 730.081 269.894 735.932C270.779 731.51 270.515 721.818 274.283 719.38C278.111 722.107 277.568 733.005 279.813 736.591C282.748 734.013 281.649 723.711 286.021 720.519C292.871 724.15 285.898 742.359 292.264 742.763C294.613 737.773 292.397 702.966 291.696 695.945C293.546 697.333 292.824 702.888 295.692 705.299L298.064 702.986L300.145 705.492C300.689 702.45 300.505 702.158 303.327 701.443C302.049 700.275 302.461 697.313 302.495 695.634L303.637 694.856C302.546 694.163 301.899 693.626 300.897 692.806L300.948 691.946C302.69 692.323 304.571 692.964 306.193 692.487L306.274 690.544C305.865 691.06 305.405 691.311 304.848 691.717L303.565 691.047C303.932 679.106 298.314 682.579 296.668 670.54C297.397 669.34 296.595 667.65 298.324 665.496C303.493 665.65 305.3 672.016 309.319 668.28C309.161 666.943 306.67 663.303 305.807 661.924C308.561 663.385 313.013 666.142 316.093 665.744L316.322 664.932L314.248 661.398C317.203 660.782 319.826 664.524 322.6 662.912C322.146 661.554 321.902 661.189 322.213 659.774L323.47 659.559C325.456 660.433 326.236 660.976 328.406 660.854L329.08 659.957L327.438 657.084C328.827 655.908 329.714 657.329 332.032 657.15C334.714 656.943 331.93 656.451 333.987 653.931C335.674 654.339 336.133 654.587 337.777 654.241C337.896 652.884 337.914 652.801 338.33 651.503C348.174 648.073 348.844 645.366 355.777 637.823C349.416 640.538 340.614 644.299 333.97 645.763L332.288 644.517C331.142 645.406 330.397 646.893 329.623 648.159L328.527 648.252C327.981 646.494 328.317 646.658 327.144 645.596C325.816 647.298 324.906 648.588 323.236 650.004C322.8 648.508 322.708 648.178 321.98 646.812C319.071 648.453 319.814 651.564 317.386 652.342C316.834 649.629 317.388 650.182 315.655 648.971C312.968 650.359 314.412 652.226 312.09 653.121C311.876 651.537 311.921 651.258 311.143 649.907C308.872 650.588 307.682 652.99 306.128 655.158C303.281 654.666 304.958 653.054 301.707 651.971L299.973 653.542L299.093 653.436C297.741 651.07 298.725 645.123 300.116 642.834C301.715 642.611 304.502 644.933 306.779 646.055C309.941 645.569 308.274 644.418 309.619 644.035C319.708 641.167 327.17 637.556 336.403 632.531C340.712 634.924 342.476 635.613 347.051 637.248C353.442 626.356 355.226 619.593 366.433 630.062C376.344 623.328 373.734 625.01 383.284 627.624C386.183 628.417 394.536 618.627 400.13 622.118C403.216 627.253 399.347 631.463 396.308 635.019L409.801 639.821C409.207 633.734 410.017 630.151 409.222 623.919C409.335 624.013 418.833 645.545 418.99 646.636C420.412 636.739 429.203 646.466 432.478 646.38C433.534 642.462 432.17 642.958 431.851 639.365C431.421 634.526 431.738 621.325 434.158 617.554L433.613 618.63L434.885 618.981C435.058 620.665 438.083 638.5 438.215 638.669C438.53 642.782 438.357 649.132 439.82 652.457C442.111 652.411 442.92 652.466 445.178 651.751C448.739 651.83 447.425 652.355 450.131 650.358Z"/><path fill="#365541" transform="matrix(1.33333 0 0 1.33333 0 -352)" d="M540.501 664.517C541.33 669.944 541.51 675.943 542.202 681.529C544.147 697.229 546.316 710.931 544.632 726.807L543.843 731.098C541.556 736.777 539.408 744.665 537.088 749.544L536.854 750.147C533.499 756.575 529.513 761.901 525.844 768L476.389 768L474.523 768L457.03 768C460.389 738.926 473.639 707.864 498.996 691.954C514.321 682.338 526.43 676.402 540.501 664.517Z"/><path fill="#253B2C" transform="matrix(1.33333 0 0 1.33333 0 -352)" d="M474.523 768C469.703 758.723 467.361 752.778 467.434 742.27L467.988 741.662L467.445 741.447L467.71 739.911C468.235 743.383 469.198 750.945 470.253 753.85C472.017 758.705 474.896 762.688 476.389 768L474.523 768Z"/><path fill="#2E4735" transform="matrix(1.33333 0 0 1.33333 0 -352)" d="M543.843 731.098C542.139 728.601 539.305 728.833 537.994 726.427C540.132 725.717 542.39 726.383 544.632 726.807L543.843 731.098Z"/><path fill="#1E3525" transform="matrix(1.33333 0 0 1.33333 0 -352)" d="M508.17 690.341C509.891 695.516 508.577 712.785 511.491 719.238C511.106 719.941 510.783 720.532 510.521 721.01C508.185 715.482 505.678 697.137 508.17 690.341Z"/><path fill="#365541" transform="matrix(1.33333 0 0 1.33333 0 -352)" d="M269.894 735.932C270.779 731.51 270.515 721.818 274.283 719.38C278.111 722.107 277.568 733.005 279.813 736.591C282.748 734.013 281.649 723.711 286.021 720.519C292.871 724.15 285.898 742.359 292.264 742.763C294.613 737.773 292.397 702.966 291.696 695.945C293.546 697.333 292.824 702.888 295.692 705.299L298.064 702.986L300.145 705.492C300.689 702.45 300.505 702.158 303.327 701.443C306.121 704.153 305.944 712.291 306.174 716.395C308.194 712.552 309.497 708.835 312.334 705.759L313.57 705.512C315.753 707.927 315.263 713.091 315.268 716.466C316.862 712.53 318.382 706.548 322.307 704.858C325.772 706.819 323.023 715.553 322.243 718.759C324.418 714.569 327.696 705.788 331.174 703.985C334.606 705.338 333.005 712.573 332.63 715.78C334.882 709.041 335.36 706.363 339.497 700.629L342.631 704.663C345.106 703.697 347.355 702.488 349.915 702.944L350.742 703.66C350.687 704.427 350.655 705.368 350.525 706.108L351.418 707.203C352.374 704.889 353.41 702.443 355.251 700.7L357.054 700.493C358.226 701.717 358.179 702.532 358.514 704.284C363.372 703.213 363.386 699.165 367.077 703.286C374.19 703.036 376.342 694.555 383.562 699.101C383.86 699.288 389.236 697.469 391.589 697.854C393.619 702.709 375.699 711.565 371.68 712.657C368.532 713.513 369.662 713.283 369.854 716.197C367.273 717.492 365.935 715.314 363.717 716.526C364.925 719.155 366.51 719.835 366.177 721.721C363.247 722.613 357.176 718.057 353.81 716.542C354.977 718.822 356.758 721.656 356.668 724.11L355.911 725.066C352.562 724.455 347.229 719.323 344.411 716.916C345.967 719.585 348.282 722.879 348.452 725.848L347.92 727.406C343.232 728.332 337.516 720.997 334.544 717.795C336.278 721.553 339.568 727.129 338.492 730.991C334.873 731.571 328.153 722.735 324.122 720.158C326.61 723.757 330.785 728.492 330.18 732.668C325.611 735.038 318.933 725.534 316.728 722.428C319.266 729.488 320.117 731.212 324.664 737.201C325.846 738.757 324.584 740.794 326.509 743.255C328.662 742.54 332.356 738.91 333.997 737.223C335.929 742.651 335.996 743.362 336.288 748.952C338.04 745.448 339.568 740.912 343.082 739.704C345.98 741.974 344.689 748.062 344.409 751.459C346.325 747.816 350.149 738.901 353.377 737.712L353.7 737.999L352.082 738.328C353.208 739.301 354.099 739.665 354.202 740.832C354.496 744.189 353.924 746.996 353.346 750.28C355.165 747.031 358.454 740.198 360.772 738.104L362.002 738.056C363.711 739.95 363.57 743.096 363.733 745.757C364.549 743.641 365.594 740.109 367.221 738.802L370.197 738.857C370.24 740.538 370.166 741.26 370.666 742.843C372.942 742.537 372.221 741.016 373.88 740.797C382.789 739.616 392.12 739.087 400.748 741.637C391.755 745.576 383.273 749.745 374.056 753.042C374.602 754.57 374.866 754.815 375.85 756.14L375.603 757.105C373.028 757.873 371.612 757.038 369.338 755.81C369.008 755.632 368.678 755.45 368.351 755.265L367.597 755.517C368.247 757.786 369.015 758.77 368.253 760.512C364.234 761.127 360.588 756.9 357.463 754.38C358.78 756.476 360.923 759.274 360.779 761.624L359.824 762.508C355.272 761.996 349.777 756.453 346.095 753.523C350.871 761.236 351.02 763.005 358.37 768L296.726 768L293.92 768L291.528 768C291.902 761.192 292.025 754.373 291.896 747.557L287.537 743.791C284.541 747.093 276.597 755.325 271.497 753.639C269.854 749.277 277.935 743.521 277.812 740.588C274.045 741.182 266.808 747.272 261.428 748.147L261.17 747.214C262.564 744.059 265.907 740.362 268.24 737.669L268.063 736.068C266.231 735.716 262.019 739.313 260.154 740.549C256.688 742.847 253.431 744.032 249.607 745.504C254.649 735.812 256.212 737.923 261.716 730.537C261.824 726.16 261.431 720.764 264.006 717.243L265.142 717.396C268.686 721.938 269.091 730.081 269.894 735.932Z"/><path fill="#1E3525" transform="matrix(1.33333 0 0 1.33333 0 -352)" d="M293.92 768C294.01 760.579 293.528 735.116 295.825 729.499L296.968 728.515C300.884 729.763 303.514 737.833 310.246 741.366C310.548 743.415 309.12 745.519 308.606 748.012C307.863 751.616 309.176 758.448 307.659 761.243L305.266 762.423C303.083 759.309 307.177 750.12 300.632 746.969C294.991 748.844 296.447 762.997 296.726 768L293.92 768Z"/><path fill="#353928" transform="matrix(1.33333 0 0 1.33333 0 -352)" d="M298.064 702.986L300.145 705.492C300.119 708.948 300.051 709.5 299.043 712.801L299.012 712.513L298.122 714.481L297.371 714.32C295.874 711.997 295.914 708.173 295.692 705.299L298.064 702.986Z"/><path fill="#253B2C" transform="matrix(1.33333 0 0 1.33333 0 -352)" d="M307.139 723.983C309.546 726.044 317.479 736.316 320.307 739.528C320.176 743.121 317.991 748.43 317.535 755.031C317.602 756.045 317.44 756.084 316.932 757.003C315.365 754.065 315.101 746.081 313.874 742.355C311.802 736.064 308.807 730.388 307.139 723.983Z"/><path fill="#1E3525" transform="matrix(1.33333 0 0 1.33333 0 -352)" d="M536.854 750.147C546.338 756.149 555.892 761.918 565.337 768L525.844 768C529.513 761.901 533.499 756.575 536.854 750.147Z"/><path fill="#2E4735" transform="matrix(1.33333 0 0 1.33333 0 -352)" d="M537.088 749.544C550.554 752.65 580.836 760.998 591.786 768L565.337 768C555.892 761.918 546.338 756.149 536.854 750.147L537.088 749.544Z"/><path fill="#2E4735" transform="matrix(1.33333 0 0 1.33333 0 -352)" d="M306.274 690.544L307.452 689.554C310.714 690.713 313.829 695.241 313.608 698.699L312.618 699.299C309.462 698.155 306.583 696.466 303.637 694.856C302.546 694.163 301.899 693.626 300.897 692.806L300.948 691.946C302.69 692.323 304.571 692.964 306.193 692.487L306.274 690.544Z"/><path fill="#353928" transform="matrix(1.33333 0 0 1.33333 0 -352)" d="M445.178 651.751C448.739 651.83 447.425 652.355 450.131 650.358C452.177 652.754 453.73 654.788 450.884 657.39C445.597 658.12 444.125 653.386 439.82 652.457C442.111 652.411 442.92 652.466 445.178 651.751Z"/><path fill="#1E3525" transform="matrix(1.33333 0 0 1.33333 0 -352)" d="M378.685 768C378.625 765.734 378.216 763.384 379.424 761.662C381.481 762.735 382.581 765.8 383.525 768L378.685 768Z"/><path fill="#365541" transform="matrix(1.33333 0 0 1.33333 0 -352)" d="M407.19 693.759C409.175 696.633 404.629 699.13 405.229 701.52C407.712 700.094 408.341 699.617 411.189 699.108C413.144 699.684 412.561 699.216 413.665 700.709C413.189 702.74 411.463 703.812 409.786 705.26C413.279 705.803 416.755 700.847 420.608 703.306C419.805 704.876 419.51 705.156 418.344 706.51C421.622 707.695 424.542 704.125 428.657 705.902L429.317 708.588C431.1 708.393 431.453 708.334 433.215 708.54C433.586 709.665 433.55 709.847 434.382 710.718C435.959 710.083 435.999 710.069 437.681 709.839L439.017 710.882L438.728 712.946L439.361 713.581C441.287 713.408 441.492 713.324 443.317 713.823L442.193 715.543L442.596 716.168C448.993 715.022 459.206 720.88 465.278 723.404C457.975 723.627 448.759 722.923 441.484 721.831C440.525 721.687 440.167 722.168 439.051 722.772C437.639 721.5 437.105 720.537 435.526 720.415C435.124 721.671 435.07 721.994 434.31 723.13C432.543 722.262 430.328 719.176 428.959 717.5C428.481 719.265 428.399 720.364 428.204 722.153L427.411 722.235C425.329 719.483 423.263 714.657 422.194 713.75C422.038 715.76 421.812 717.764 421.517 719.758L420.651 720.225C418.012 718.198 417.021 714.341 415.819 711.152C414.816 712.345 414.901 715.656 414.109 718.239L413.224 718.399C411.403 716.898 410.242 713.46 409.245 711.14L408.669 711.034C408.363 713.191 408.302 715.05 407.21 716.896L406.205 716.507C404.308 713.903 403.196 709.96 402.125 706.838C401.515 709.985 401.523 713.146 398.651 714.784L397.617 713.987C395.587 709.275 395.806 706.09 395.765 701.008C399.084 698.371 403.497 695.947 407.19 693.759Z"/><path fill="#365541" transform="matrix(1.33333 0 0 1.33333 0 -352)" d="M445.448 695.44C446.75 695.993 448.086 696.137 449.513 696.583C452.521 700.875 466.348 704.665 467.753 707.572L466.873 707.987C461.68 707.647 445.003 705.046 443.066 700.115C443.453 697.336 443.557 697.919 445.448 695.44Z"/><path fill="#365541" transform="matrix(1.33333 0 0 1.33333 0 -352)" d="M319.165 690.543C321.25 691.918 321.543 692.106 322.773 694.316L322.336 695.297C319.649 695.382 311.031 691.901 312.028 688.378C314.553 687.805 314.396 688.312 317.305 689.54L318.123 690.635L319.165 690.543Z"/><path fill="#2E4735" transform="matrix(1.33333 0 0 1.33333 0 -352)" d="M427.726 686.229C430.456 688.671 433.777 687.07 437.754 688.386L438.124 689.33L436.596 689.452L435.004 691.52C433.803 691.063 434.099 691.003 433.261 689.565C431.057 688.661 429.483 689.404 426.674 689.435C426.379 687.714 426.533 688.191 427.726 686.229Z"/><path fill="#2E4735" transform="matrix(1.33333 0 0 1.33333 0 -352)" d="M317.305 689.54C317.023 686.368 314.808 686.39 315.204 683.641C317.727 682.729 319.771 684.326 320.594 686.706L320.283 687.29C319.557 688.668 319.245 688.983 319.165 690.543L318.123 690.635L317.305 689.54Z"/><path fill="#2E4735" transform="matrix(1.33333 0 0 1.33333 0 -352)" d="M446.613 740.417C450.264 740.708 453.978 740.219 455.876 743.565C451.472 743.757 448.131 744.982 446.613 740.417Z"/><defs><linearGradient id="gradient_1" gradientUnits="userSpaceOnUse" x1="726.45154" y1="505.00836" x2="587.61646" y2="303.55145"><stop offset="0" stop-color="#C19D62"/><stop offset="1" stop-color="#E3CA84"/></linearGradient></defs><path fill="url(#gradient_1)" transform="matrix(1.33333 0 0 1.33333 0 -352)" d="M539.062 353.752C560.059 318.352 592.721 292.789 632.787 282.578C673.312 271.839 716.452 277.852 752.499 299.264C786.759 319.618 811.604 352.675 821.633 391.25C825.379 406.219 829.146 427.612 823.991 442.632C822.299 439.329 817.383 428.933 814.347 427.362C810.036 425.131 807.4 424.252 803.62 420.114C799.491 415.593 797.656 407.718 794.161 403.007C788.415 395.26 787.306 398.966 782.618 389.412C781.591 389.316 780.999 389.55 779.968 389.769L779.544 391.23C778.82 389.905 778.589 389.631 777.612 388.469L776.032 388.544L775.737 387.801C773.478 391.833 774.811 396.103 772.153 398.604C769.542 397.915 769.577 396.917 768.804 394.396C760.129 407.039 752.225 422.171 744.26 435.366C740.011 428.946 735.883 423.791 730.825 417.969C724.082 428.62 717.209 439.188 710.209 449.671C705.34 457.064 698.457 468.094 692.491 474.201C689.549 474.817 686.279 475.424 683.388 476.126C679.705 479.931 676.673 483.649 673.303 487.73C668.528 483.133 659.021 473.627 654.172 469.991C642.006 481.25 630.138 492.827 618.58 504.708C598.981 505.101 596.449 514.961 581.206 526.093C577.144 529.06 569.817 532.313 566.406 534.872C554.208 519.096 542.972 508.927 532.349 490.144C517.408 463.726 514.35 423.82 522.647 395.056C523.515 390.291 526.114 382.958 527.674 378.133C527.474 375.651 521.317 372.197 521.604 367.484C524.221 367.379 527.692 370.055 529.621 371.736C531.3 366.871 536.335 358.424 539.062 353.752Z"/><path fill="#8F7A5A" transform="matrix(1.33333 0 0 1.33333 0 -352)" d="M527.674 378.133C527.474 375.651 521.317 372.197 521.604 367.484C524.221 367.379 527.692 370.055 529.621 371.736L532.215 374.331C538.965 379 548.923 386.233 556.006 389.944C558.242 389.001 581.902 380.418 582.401 380.454C582.395 384.953 564.16 388.352 563.104 392C562.76 396.413 559.374 395.676 555.321 397.029C550.931 398.711 547.123 400.002 542.631 397.576L542.408 396.35C543.961 394.526 546.146 394.326 548.593 393.701C541.798 389.763 536.426 384.467 529.95 380.564C529.014 380.049 528.356 379.006 527.674 378.133Z"/><path fill="#796142" transform="matrix(1.33333 0 0 1.33333 0 -352)" d="M555.321 397.029C553.92 396.2 553.373 395.744 552.107 394.705L552.297 393.619C554.541 392.108 560.273 391.959 563.104 392C562.76 396.413 559.374 395.676 555.321 397.029Z"/><path fill="#796142" transform="matrix(1.33333 0 0 1.33333 0 -352)" d="M772.552 388.344C774.316 385.384 775.6 383.246 777.665 380.504C779.199 383.178 781.354 386.691 782.618 389.412C781.591 389.316 780.999 389.55 779.968 389.769L779.544 391.23C778.82 389.905 778.589 389.631 777.612 388.469L776.032 388.544L775.737 387.801C773.478 391.833 774.811 396.103 772.153 398.604C769.542 397.915 769.577 396.917 768.804 394.396C770.188 391.551 770.615 390.841 772.552 388.344Z"/><path fill="#9C885F" transform="matrix(1.33333 0 0 1.33333 0 -352)" d="M539.062 353.752C540.084 359.677 535.703 369.553 532.215 374.331L529.621 371.736C531.3 366.871 536.335 358.424 539.062 353.752Z"/><path fill="#9C885F" transform="matrix(1.33333 0 0 1.33333 0 -352)" d="M527.674 378.133C528.356 379.006 529.014 380.049 529.95 380.564C528.819 385.083 526.395 392.068 522.647 395.056C523.515 390.291 526.114 382.958 527.674 378.133Z"/><path fill="#796142" transform="matrix(1.33333 0 0 1.33333 0 -352)" d="M641.204 412.238C658.118 426.555 659.283 428.736 682.525 430.398C680.668 432.814 678.899 435.545 676.013 436.253L661.2 434.22C660.131 435.017 656.474 437.554 655.074 437.415C648.031 437.078 652.042 431.913 648.627 428.731C642.519 423.039 632.472 421.721 641.204 412.238Z"/><defs><linearGradient id="gradient_2" gradientUnits="userSpaceOnUse" x1="855.71466" y1="607.72314" x2="1089.936" y2="720.70135"><stop offset="0" stop-color="#1B2F23"/><stop offset="1" stop-color="#385744"/></linearGradient></defs><path fill="url(#gradient_2)" transform="matrix(1.33333 0 0 1.33333 0 -352)" d="M1130.41 585.957L1130.59 588.49C1125.25 603.682 1112.6 621.137 1107.34 637.175C1106.75 638.958 1106.66 639.167 1107.39 640.943C1101.03 660.435 1093.08 679.211 1087.25 698.918C1083.55 711.653 1080.05 724.45 1076.77 737.302C1074.3 747.408 1072.15 758.075 1069.32 768L1066.49 768L1065.28 768L853.381 768L756.715 768L698.714 768L685.747 768C695.61 761.59 721.51 755.373 733.442 754.659C730.258 748.952 723.745 723.511 733.947 724.184C735.92 725.933 735.337 725.003 735.87 728.049C737.699 725.761 736.853 726.429 740 725.687C727.846 716.032 736.76 699.974 744.644 690.844C748.538 703.706 754.453 716.538 764.834 725.442C768.702 728.76 781.5 738.057 785.456 732.136C784.872 716.617 723.508 699.748 763.831 665.461C767.778 672.974 781.016 715.833 792.499 710.904C796.817 702.382 781.514 693.425 777.062 683.104C772.684 672.956 772.414 672.72 770.829 661.316L773.808 656.939C778.36 653.115 781.412 650.966 786.382 647.678C786.618 650.054 786.597 652.5 786.632 654.894L790.816 659.944C790.892 658.74 791.285 652.718 791.601 652.075C796.521 642.059 805.242 644.298 814.267 634.27C821.274 640.343 827.013 644.338 834.588 649.524C840.676 646.062 843.63 644.44 850.603 646.559C860.376 649.53 855.066 640.085 857.424 636.43C861.829 635.114 863.993 640.302 867.56 633.37C869.083 630.412 868.333 627.377 870.81 625.601C873.937 624.98 878.001 626.099 881.228 626.743C884.49 622.307 894.219 613.453 900.04 614.899C903.081 618.501 899.236 623.955 900.352 628.407C905.28 630.541 904.754 637.145 904.993 641.733C907.332 642.687 909.742 643.903 912.03 645.005C910.649 639.083 910.733 635.937 910.546 629.85L917.81 625.14C924.499 625.837 926.386 626.368 933.099 628.2C933.115 625.262 932.981 622.998 933.777 620.159C937.144 618.711 938.624 620.393 941.62 621.467C941.9 619.33 939.607 610.083 939.289 607.069C938.53 599.896 938.743 594.117 939.718 586.994C941.298 586.793 942.885 586.653 944.476 586.574C965.685 585.429 979.073 599.938 993.561 612.867C996.055 614.53 998.359 615.687 999.08 618.713C1001.02 621.895 1003.14 621.296 1004.69 623.021C1027.36 648.216 1027.1 641.578 1007.82 665.046C1015.28 660.697 1020.32 654.816 1029.14 651.143C1038.81 660.793 1041.39 670.156 1049.14 679.639C1051.36 674.636 1053.5 669.496 1055.67 664.459C1074.6 668.42 1072.34 670.454 1088.99 678.298C1078.79 666.668 1067.62 664.553 1061.1 652.191C1065.63 644.763 1079.56 625.915 1085.95 620.168C1092.15 624.471 1098.76 630.374 1104.59 635.326C1100.12 627.835 1095.58 620.392 1090.95 612.999C1099.95 599.381 1115.87 591.799 1130.41 585.957Z"/><path fill="#365541" transform="matrix(1.33333 0 0 1.33333 0 -352)" d="M790.816 659.944C790.892 658.74 791.285 652.718 791.601 652.075C796.521 642.059 805.242 644.298 814.267 634.27C821.274 640.343 827.013 644.338 834.588 649.524C834.973 654.488 834.692 653.456 834.314 657.306C833.702 663.548 819.574 682.58 823.169 686.033C833.079 685.091 837.143 660.142 838.303 651.981C841.958 655.052 851.695 662.28 852.375 666.742C854.628 681.537 820.252 705.58 825.306 714.522C836.412 717.41 852.543 677.407 855.474 668.989C867.869 680.807 874.149 688.166 861.256 702.676C855.788 708.829 834.096 723.712 833.076 730.19C835.252 733.409 843.34 730.335 845.681 728.471C857.853 718.776 867.136 705.509 875.899 692.783C880.39 700.946 884.104 707.36 885.192 716.8C879.459 727.167 867.388 732.101 857.902 738.535C853.53 741.501 840.869 748.166 842.679 754.487C845.021 755.917 845.885 755.593 848.608 754.986C864.959 751.341 879.545 738.859 886.944 724.028C889.354 732.688 892.414 746.474 887.906 754.671C881.942 765.517 863.68 764.31 853.381 768L756.715 768L698.714 768L685.747 768C695.61 761.59 721.51 755.373 733.442 754.659C730.258 748.952 723.745 723.511 733.947 724.184C735.92 725.933 735.337 725.003 735.87 728.049C737.699 725.761 736.853 726.429 740 725.687C727.846 716.032 736.76 699.974 744.644 690.844C748.538 703.706 754.453 716.538 764.834 725.442C768.702 728.76 781.5 738.057 785.456 732.136C784.872 716.617 723.508 699.748 763.831 665.461C767.778 672.974 781.016 715.833 792.499 710.904C796.817 702.382 781.514 693.425 777.062 683.104C772.684 672.956 772.414 672.72 770.829 661.316L773.808 656.939C778.36 653.115 781.412 650.966 786.382 647.678C786.618 650.054 786.597 652.5 786.632 654.894L790.816 659.944Z"/><path fill="#1E3525" transform="matrix(1.33333 0 0 1.33333 0 -352)" d="M698.714 768C712.458 760.646 721.523 761.539 734.072 755.288C745.231 763.532 746.576 762.239 756.715 768L698.714 768Z"/><path fill="#1E3525" transform="matrix(1.33333 0 0 1.33333 0 -352)" d="M740 725.687C746.177 729.336 776.707 747.176 777.255 753.443C770.923 758.681 740.971 733.251 735.87 728.049C737.699 725.761 736.853 726.429 740 725.687Z"/><path fill="#1E3525" transform="matrix(1.33333 0 0 1.33333 0 -352)" d="M786.632 654.894L790.816 659.944C793.648 665.522 806.863 683.98 801.78 689.988C791.769 690.854 786.992 662.591 786.632 654.894Z"/><path fill="#253B2C" transform="matrix(1.33333 0 0 1.33333 0 -352)" d="M813.449 653.692C815.979 656.188 812.329 674.726 813.384 678.912C813.672 680.053 814.36 680.56 815.336 681.195C810.798 696.88 814.416 706.104 813.721 722.139C813.606 724.8 814.088 729.939 813.457 732.313L811.288 731.273L810.155 733.727L809.476 733.676C809.731 726.225 809.804 720.34 809.335 712.852C809.211 710.874 810.293 704.581 810.342 701.853C810.631 685.62 812.214 669.841 813.449 653.692Z"/><path fill="#1E3525" transform="matrix(1.33333 0 0 1.33333 0 -352)" d="M789.827 736.501C798.715 736.108 805.341 736.695 803.452 747.5C796.222 748.432 790.509 743.79 789.827 736.501Z"/><path fill="#253B2C" transform="matrix(1.33333 0 0 1.33333 0 -352)" d="M789.329 756.239C795.907 756.031 801.389 756.902 799.853 764.629C795.431 763.329 789.068 761.528 789.329 756.239Z"/><path fill="#1E3525" transform="matrix(1.33333 0 0 1.33333 0 -352)" d="M828.466 755.956C830.887 755.869 831.352 755.936 832.653 757.77C832.114 760.927 829.915 761.842 827.304 763.047C824.637 762.647 825.11 763.092 823.217 761.558L823.352 760.021C825.106 757.687 825.939 757.376 828.466 755.956Z"/><path fill="#253B2C" transform="matrix(1.33333 0 0 1.33333 0 -352)" d="M825.899 738.437C827.678 739.748 827.482 740.782 827.028 742.529C825.059 744.822 823.643 745.379 820.949 746.801C819.324 744.94 819.098 744.452 819.353 742.219C820.636 740.381 823.736 739.36 825.899 738.437Z"/><path fill="#1E3525" transform="matrix(1.33333 0 0 1.33333 0 -352)" d="M993.561 612.867C996.055 614.53 998.359 615.687 999.08 618.713C993.593 623.543 988.513 629.557 983.464 634.967C985.874 628.59 990.555 619.287 993.561 612.867Z"/><path fill="#253B2C" transform="matrix(1.33333 0 0 1.33333 0 -352)" d="M1065.28 768C1066.17 763.823 1074.01 730.797 1073.7 729.264L1071.22 726.951C1072.81 726.174 1074 726.545 1075.8 726.768C1076.54 728.213 1076.44 729.27 1075.79 730.959C1071.25 742.8 1069.69 755.777 1066.49 768L1065.28 768Z"/><path fill="#2E4735" transform="matrix(1.33333 0 0 1.33333 0 -352)" d="M1036.13 717.165C1036.53 717.229 1037.39 717.598 1037.82 717.76C1037.08 720.79 1035.06 725.679 1034.71 728.488C1034.15 732.976 1034.85 739.312 1033.7 743.721L1032.85 743.612L1031.66 741.124C1029.72 737.242 1026.57 731.287 1025.26 727.378C1025.82 723.556 1031.19 721.909 1036.13 717.165Z"/><path fill="#2E4735" transform="matrix(1.33333 0 0 1.33333 0 -352)" d="M1076.72 636.152C1081.47 637.649 1090.69 645.404 1094.57 648.661C1090.47 647.636 1079.1 639.317 1076.72 636.152Z"/><path fill="#365541" transform="matrix(1.33333 0 0 1.33333 0 -352)" d="M6.95053 562.317C9.15609 565.811 13.0174 575.691 14.7158 579.984C18.4903 584.473 21.2744 587.906 23.7794 593.366C32.3752 607.728 49.2393 619.072 63.7329 626.616L64.3608 628.204C67.6343 627.444 73.121 618.078 76.6529 616.768C98.0667 608.828 117.227 607.407 132.806 588.077C134.926 585.446 138.783 583.985 140.055 580.038L140.709 580.185C139.834 583.968 139.299 586.587 137.815 590.223C134.039 594.862 126.259 608.114 122.721 613.666C122.514 619.982 123.551 647.804 125.536 652.803C128.622 653.409 131.522 651.163 134.022 649.481C136.099 648.093 138.189 646.724 140.29 645.373C131.382 656.595 114.312 666.707 100.673 671.194C92.0738 674.023 80.3118 676.179 73.7229 682.112C68.652 686.678 66.3739 695.481 62.9421 700.509C62.3693 702.857 61.6467 705.633 61.422 708.033C61.0847 711.637 62.8569 718.858 60.7039 721.643C58.7969 721.291 59.3883 721.393 57.7518 719.746C57.2364 718.047 56.9931 717.412 56.8401 715.661L54.1786 715.836C51.8337 714.81 50.4994 712.664 48.8918 710.615C40.9822 704.137 5.42501 671.221 6.48251 662.688L8.25065 661.487C7.24103 659.427 1.49688 651.324 0 649.13L0 628.104L0 613.721L0 564.726C2.57473 564.243 5.25319 564.175 6.95053 562.317Z"/><path fill="#1E3525" transform="matrix(1.33333 0 0 1.33333 0 -352)" d="M6.95053 562.317C9.15609 565.811 13.0174 575.691 14.7158 579.984C18.4903 584.473 21.2744 587.906 23.7794 593.366C32.3752 607.728 49.2393 619.072 63.7329 626.616L64.3608 628.204C63.3965 629.527 63.1526 636.356 62.9853 638.456C66.4775 641.859 79.3774 653.364 74.7492 658.156C73.2225 657.702 69.0339 649.998 64.3636 647.722C42.6792 637.154 21.5849 635.319 3.89119 617.248L0 613.721L0 564.726C2.57473 564.243 5.25319 564.175 6.95053 562.317Z"/><path fill="#2E4735" transform="matrix(1.33333 0 0 1.33333 0 -352)" d="M14.7158 579.984C18.4903 584.473 21.2744 587.906 23.7794 593.366C23.3902 597.622 24.2471 601.051 24.4654 605.211C24.82 611.969 25.413 620.557 24.807 627.288C21.0589 625.527 14.1179 622.767 12.6802 618.729C14.0318 613.463 14.5767 586.262 14.7158 579.984Z"/><path fill="#365541" transform="matrix(1.33333 0 0 1.33333 0 -352)" d="M36.12 619.397C38.7656 620.72 43.2203 630.038 46.1499 633.726L45.8455 633.723C44.8352 633.706 41.3471 633.777 40.6855 633.409C35.9443 630.773 34.8576 623.719 36.12 619.397Z"/><path fill="#365541" transform="matrix(1.33333 0 0 1.33333 0 -352)" d="M28.8754 620.559C32.0019 621.279 35.826 630.057 37.246 633.059C34.258 632.262 33.106 631.313 30.5199 629.578C29.3565 625.68 28.9749 624.573 28.8754 620.559Z"/><path fill="#2E4735" transform="matrix(1.33333 0 0 1.33333 0 -352)" d="M75.6456 661.26C82.1802 649.643 94.4834 643.748 104.001 635.022C111.011 628.597 116.98 621.215 122.721 613.666C122.514 619.982 123.551 647.804 125.536 652.803C128.622 653.409 131.522 651.163 134.022 649.481C136.099 648.093 138.189 646.724 140.29 645.373C131.382 656.595 114.312 666.707 100.673 671.194C92.0738 674.023 80.3118 676.179 73.7229 682.112C68.652 686.678 66.3739 695.481 62.9421 700.509L62.6684 693.339C68.8228 684.298 64.7054 684.261 76.9288 674.396L75.6456 661.26Z"/><path fill="#365541" transform="matrix(1.33333 0 0 1.33333 0 -352)" d="M103.297 656.177C103.567 656.43 104.149 657.363 104.391 657.724C104.514 661.747 102.673 664.192 100.502 667.525C99.7808 666.893 99.6606 666.444 99.2348 665.577C99.7907 662.436 101.796 659.067 103.297 656.177Z"/><path fill="#253B2C" transform="matrix(1.33333 0 0 1.33333 0 -352)" d="M8.25065 661.487C9.36705 662.704 9.79817 663.508 11.3107 663.752C11.8398 661.89 12.054 660.541 12.3618 658.659L12.4383 659.397C13.0268 665.614 9.50785 664.949 13.0147 669.895C16.5526 674.885 21.4863 679.46 24.8971 684.314C25.1138 675.223 24.4962 667.725 24.2504 658.821C33.5768 666.581 59.277 683.435 62.6684 693.339L62.9421 700.509C62.3693 702.857 61.6467 705.633 61.422 708.033C61.0847 711.637 62.8569 718.858 60.7039 721.643C58.7969 721.291 59.3883 721.393 57.7518 719.746C57.2364 718.047 56.9931 717.412 56.8401 715.661L54.1786 715.836C51.8337 714.81 50.4994 712.664 48.8918 710.615C40.9822 704.137 5.42501 671.221 6.48251 662.688L8.25065 661.487Z"/><path fill="#365541" transform="matrix(1.33333 0 0 1.33333 0 -352)" d="M38.333 678.431C39.1884 682.481 41.629 695.451 43.5998 698.139C43.2585 694.488 40.9748 682.888 43.9074 680.529C44.8363 681.117 45.5412 681.345 45.8673 682.498C48.521 691.88 48.4793 696.781 53.5027 705.612C49.8815 706.705 50.6607 705.883 48.8915 708.59C44.3369 703.318 39.4823 698.092 36.6864 691.669C37.1682 687.249 37.7172 682.835 38.333 678.431Z"/><path fill="#2E4735" transform="matrix(1.33333 0 0 1.33333 0 -352)" d="M53.5027 705.612C56.328 708.086 56.7313 712.085 56.8401 715.661L54.1786 715.836C51.8337 714.81 50.4994 712.664 48.8918 710.615L48.8915 708.59C50.6607 705.883 49.8815 706.705 53.5027 705.612Z"/><path fill="#1E3525" transform="matrix(1.33333 0 0 1.33333 0 -352)" d="M0 628.104C4.15388 633.581 8.58571 640.336 12.6756 645.48L12.3618 658.659C12.054 660.541 11.8398 661.89 11.3107 663.752C9.79817 663.508 9.36705 662.704 8.25065 661.487C7.24103 659.427 1.49688 651.324 0 649.13L0 628.104Z"/><path fill="#365541" transform="matrix(1.33333 0 0 1.33333 0 -352)" d="M140.29 645.373L157.71 627.127L153.808 635.989C152.079 637.541 149.28 643.032 148.052 645.338C150.544 652.535 159.315 664.578 158.876 668.178L158.083 668.948C157.201 665.034 149.323 651.8 147.397 646.927C138.471 661.825 129.062 678.515 117.641 691.438C99.8597 711.559 75.4688 714.03 71.0852 744.706C69.527 752.241 70.4051 760.306 70.9103 768L54.9389 768L27.7829 768L0 768L0 706.034L0 670.618L0 649.13C1.49688 651.324 7.24103 659.427 8.25065 661.487L6.48251 662.688C5.42501 671.221 40.9822 704.137 48.8918 710.615C50.4994 712.664 51.8337 714.81 54.1786 715.836L56.8401 715.661C56.9931 717.412 57.2364 718.047 57.7518 719.746C59.3883 721.393 58.7969 721.291 60.7039 721.643C62.8569 718.858 61.0847 711.637 61.422 708.033C61.6467 705.633 62.3693 702.857 62.9421 700.509C66.3739 695.481 68.652 686.678 73.7229 682.112C80.3118 676.179 92.0738 674.023 100.673 671.194C114.312 666.707 131.382 656.595 140.29 645.373Z"/><path fill="#2E4735" transform="matrix(1.33333 0 0 1.33333 0 -352)" d="M0 670.618C3.37228 676.658 6.41074 683.584 9.48739 688.98C12.3978 693.677 25.6192 717.314 27.8606 719.825C23.1675 727.957 26.585 758.278 27.7829 768L0 768L0 706.034L0 670.618Z"/><path fill="#1E3525" transform="matrix(1.33333 0 0 1.33333 0 -352)" d="M0 670.618C3.37228 676.658 6.41074 683.584 9.48739 688.98C8.03299 695.954 10.8089 715.818 9.11238 719.595C6.21699 718.88 2.21235 708.937 0 706.034L0 670.618Z"/><path fill="#1E3525" transform="matrix(1.33333 0 0 1.33333 0 -352)" d="M27.7829 768C26.585 758.278 23.1675 727.957 27.8606 719.825C39.6222 734.33 49.5123 750.079 54.9389 768L27.7829 768Z"/><path fill="#365541" transform="matrix(1.33333 0 0 1.33333 0 -352)" d="M1326.99 517.228C1333.42 519.767 1337.96 522.235 1344 525.481L1344 601.745L1344 604.173C1339.63 604.13 1336.35 603.528 1332.29 602.017L1332.03 600.711C1333.71 596.63 1337.07 584.16 1339.22 582.188C1340.61 577.733 1340.91 576.393 1341.51 571.724C1340.89 573.475 1339.57 574.685 1338.98 576.387C1335.02 587.75 1330.85 599.09 1326.79 610.424C1322.39 622.725 1318.87 636.293 1313.79 648.235C1311.25 645.835 1308.9 643.571 1305.94 641.677C1302.96 639.775 1296.19 637.224 1293.86 635.186C1288.04 608.755 1286.95 615.466 1295.75 587.567C1298.39 587.921 1300.94 588.466 1303.56 588.993C1301.94 586.926 1300.35 584.613 1298.81 582.462C1301.75 571.076 1317.34 531.052 1324.07 522.6L1326.99 517.228Z"/><path fill="#2E4735" transform="matrix(1.33333 0 0 1.33333 0 -352)" d="M1332.03 600.711C1333.71 596.63 1337.07 584.16 1339.22 582.188C1338.84 586.338 1334.77 596.959 1333.14 601.298C1336.38 601.338 1340.91 601.251 1344 601.745L1344 604.173C1339.63 604.13 1336.35 603.528 1332.29 602.017L1332.03 600.711Z"/><path fill="#253B2C" transform="matrix(1.33333 0 0 1.33333 0 -352)" d="M1317.9 549.294C1322.89 549.862 1335.93 557.455 1338.47 561.632C1335.04 560.113 1322.01 551.81 1317.9 549.294Z"/><path fill="#365541" transform="matrix(1.33333 0 0 1.33333 0 -352)" d="M319.738 539.546C319.435 546.161 319.698 559.843 315.875 564.891L316.389 565.562L318.26 565.512L318.34 566.312L315.29 568.242L315.365 568.937L318.074 569.363L318.004 570.328C316.548 571.349 315.114 572.399 313.701 573.479L313.72 574.138C315.654 573.965 317.592 573.847 319.533 573.782L320.239 574.661C319.223 576.72 312.322 580.644 309.842 582.206C314.409 582.185 320.071 581.922 324.466 582.801L325.199 583.576C321.754 587.384 311.532 588.294 308.574 590.757C310.793 592.485 323.029 587.847 326.756 590.219C323.996 596.27 309.697 596.75 306.32 601.473C310.533 604.132 328.7 596.749 333.655 595.013C328.218 602.415 316.954 609.56 307.987 611.792C306.467 612.17 304.673 612.14 304.097 614.364C308.269 618.935 329.454 605.417 334.903 607.686C335.857 612.99 319.461 621.613 315.307 623.861C310.892 626.249 300.65 625.748 301.389 631.947C302.347 632.734 302.593 633.093 304.214 632.68C317.331 629.34 334.758 625.221 347.326 621.046C343.781 626.293 341.318 628.384 336.403 632.531C327.17 637.556 319.708 641.167 309.619 644.035C308.274 644.418 309.941 645.569 306.779 646.055C304.502 644.933 301.715 642.611 300.116 642.834C298.725 645.123 297.741 651.07 299.093 653.436L299.973 653.542L301.707 651.971C304.958 653.054 303.281 654.666 306.128 655.158C307.682 652.99 308.872 650.588 311.143 649.907C311.921 651.258 311.876 651.537 312.09 653.121C314.412 652.226 312.968 650.359 315.655 648.971C317.388 650.182 316.834 649.629 317.386 652.342C319.814 651.564 319.071 648.453 321.98 646.812C322.708 648.178 322.8 648.508 323.236 650.004C324.906 648.588 325.816 647.298 327.144 645.596C328.317 646.658 327.981 646.494 328.527 648.252L329.623 648.159C330.397 646.893 331.142 645.406 332.288 644.517L333.97 645.763C340.614 644.299 349.416 640.538 355.777 637.823C348.844 645.366 348.174 648.073 338.33 651.503C337.914 652.801 337.896 652.884 337.777 654.241C336.133 654.587 335.674 654.339 333.987 653.931C331.93 656.451 334.714 656.943 332.032 657.15C329.714 657.329 328.827 655.908 327.438 657.084L329.08 659.957L328.406 660.854C326.236 660.976 325.456 660.433 323.47 659.559L322.213 659.774C321.902 661.189 322.146 661.554 322.6 662.912C319.826 664.524 317.203 660.782 314.248 661.398L316.322 664.932L316.093 665.744C313.013 666.142 308.561 663.385 305.807 661.924C306.67 663.303 309.161 666.943 309.319 668.28C305.3 672.016 303.493 665.65 298.324 665.496C296.595 667.65 297.397 669.34 296.668 670.54L295.787 672.593C294.706 671.497 294.535 666.568 294.344 664.698L295.39 663.553L296.453 662.547C297.431 658.691 297.341 654.857 297.427 650.884C293.796 652.182 288.931 654.23 285.194 653.541L284.855 652.862L287.319 650.608C287.065 649.301 282.447 648.263 280.17 647.039C270.544 641.866 264.018 632.597 255.871 624.659L251.197 616.331L251.509 616.437C257.015 618.346 284.738 633.256 287.622 637.069C289.308 636.991 289.4 636.93 290.982 636.283C291.736 637.394 291.638 637.748 291.669 639.075C297.696 642.426 298.944 636.883 298.912 632.361L298.365 631.47C294.213 631.09 293.164 635.014 288.34 628.605C279.456 616.802 270.005 616.163 267.715 599.88C273.024 603.646 295.76 620.85 299.7 620.838C300.383 619.272 300.044 619.383 299.63 617.313C288.546 606.358 282.078 607.375 277.369 590.029C288.014 595.023 294.014 603.922 300.281 606.436L301.209 606.044C299.294 597.285 288.751 598.323 284.334 580.704C287.349 583.483 301.183 594.718 304.494 595.828L304.673 595.037C296.736 588.243 292.263 582.803 289.156 572.685C293.447 576.101 304.327 586.321 307.577 588.402C305.641 584.932 297.913 573.043 298.379 570.264C301.334 571.85 304.018 574.93 306.316 575.415L306.697 574.575C304.776 572.418 302.862 571.01 303.139 568.378C304.013 560.086 314.209 545.234 319.738 539.546Z"/><defs><linearGradient id="gradient_3" gradientUnits="userSpaceOnUse" x1="98.944839" y1="528.09418" x2="63.692253" y2="525.54034"><stop offset="0" stop-color="#45422F"/><stop offset="1" stop-color="#385A46"/></linearGradient></defs><path fill="url(#gradient_3)" transform="matrix(1.33333 0 0 1.33333 0 -352)" d="M67.3506 515.396C69.6481 513.93 70.972 502.888 73.2672 498.836L73.8884 498.914C74.2196 500.545 74.5892 502.168 74.9969 503.782C79.107 499.839 80.6557 488.539 85.6425 484.76L86.6285 485.259C87.8927 487.579 89.6791 496.056 90.7601 499.555C91.0578 497.331 91.0459 495.299 92.746 493.851L93.8033 493.929C94.7763 495.333 95.0319 497.62 94.9507 499.284C95.1758 500.163 96.1584 504.205 96.4327 504.805C101.652 512.178 100.22 520.17 99.823 528.585C99.7305 530.544 98.7242 540.463 99.2027 541.874L98.2555 542.51L97.2077 540.89L96.8452 541.295C97.3857 544.156 96.7745 543.119 99.3694 545.088L99.9322 546.445C94.4483 551.309 85.1163 554.078 78.6208 557.863C75.1091 559.909 70.02 565.856 67.5775 567.469L63.6186 566.881C62.8348 564.538 62.3295 560.862 61.8994 558.32C59.2777 544.409 65.8243 528.183 67.3506 515.396Z"/><path fill="#353928" transform="matrix(1.33333 0 0 1.33333 0 -352)" d="M90.7601 499.555C91.0578 497.331 91.0459 495.299 92.746 493.851L93.8033 493.929C94.7763 495.333 95.0319 497.62 94.9507 499.284C93.8511 502.003 94.8437 503.615 94.1079 507.121C92.7705 513.492 87.6759 519.076 83.8632 524.433C84.678 528.357 88.2103 537.272 87.6905 541.182C85.3963 536.006 81.5727 529.231 80.8795 523.977C87.0032 514.344 93.7091 511.486 90.7601 499.555Z"/><path fill="#1E3525" transform="matrix(1.33333 0 0 1.33333 0 -352)" d="M137.815 590.223L138.709 592.576C139.675 592.737 139.792 592.635 140.667 592.254C147.449 589.303 152.069 588.988 159.403 589.563C155.235 597.835 153.934 605.369 153.403 614.563C153.218 617.77 152.096 625.309 154.099 627.752C155.678 627.405 156.838 627.039 158.464 627.163C158.786 629.225 157.223 632.129 156.019 633.675C155.362 634.519 154.621 635.294 153.808 635.989L157.71 627.127L140.29 645.373C138.189 646.724 136.099 648.093 134.022 649.481C131.522 651.163 128.622 653.409 125.536 652.803C123.551 647.804 122.514 619.982 122.721 613.666C126.259 608.114 134.039 594.862 137.815 590.223Z"/><path fill="#365541" transform="matrix(1.33333 0 0 1.33333 0 -352)" d="M99.9322 546.445C113.011 539.691 113.048 530.792 118.267 527.299L119.142 527.749C119.234 529.314 115.944 548.381 115.385 550.323C110.866 555.544 103.376 568.458 100.754 574.983C97.6797 580.402 91.8064 585.35 87.2132 589.764C84.3559 592.15 79.2439 596.12 77.1002 598.897C73.9496 591.731 69.7679 586.923 63.0317 582.905L63.0251 582.245C62.9593 578.62 65.3839 572.899 66.658 569.078L67.5775 567.469C70.02 565.856 75.1091 559.909 78.6208 557.863C85.1163 554.078 94.4483 551.309 99.9322 546.445Z"/><path fill="#2E4735" transform="matrix(1.33333 0 0 1.33333 0 -352)" d="M87.4689 574.912L88.0227 575.279C87.2873 577.839 78.4671 585.233 76.0941 587.327L75.8434 587.112L75.8612 586.026C78.4022 582.206 83.8205 577.811 87.4689 574.912Z"/><path fill="#365541" transform="matrix(1.33333 0 0 1.33333 0 -352)" d="M1318.24 647.487C1317.49 641.508 1329.83 609.628 1332.03 600.711L1332.29 602.017C1336.35 603.528 1339.63 604.13 1344 604.173L1344 607.189L1344 608.861L1344 623.024L1344 623.893L1344 652.321C1335.87 656.255 1328.78 657.68 1320.12 659.94L1317.17 651.677L1318.24 647.487Z"/><path fill="#2E4735" transform="matrix(1.33333 0 0 1.33333 0 -352)" d="M1318.24 647.487C1317.49 641.508 1329.83 609.628 1332.03 600.711L1332.29 602.017C1336.35 603.528 1339.63 604.13 1344 604.173L1344 607.189L1344 608.861C1339.86 608.194 1335.61 607.639 1331.52 606.943C1327.96 616.849 1324.59 626.543 1321.85 636.717C1320.89 640.281 1319.79 644.152 1318.24 647.487Z"/><path fill="#365541" transform="matrix(1.33333 0 0 1.33333 0 -352)" d="M1332.29 602.017C1336.35 603.528 1339.63 604.13 1344 604.173L1344 607.189C1339.8 606.905 1335.01 607.608 1332.26 604.891L1332.29 602.017Z"/><path fill="#253B2C" transform="matrix(1.33333 0 0 1.33333 0 -352)" d="M1344 623.893C1340.6 623.288 1334.44 622.302 1331.58 620.71C1336.19 620.355 1339.67 621.625 1344 623.024L1344 623.893Z"/><path fill="#493621" transform="matrix(1.33333 0 0 1.33333 0 -352)" d="M1324.07 522.6C1320.79 519 1306.99 497.939 1307.37 493.662C1309.37 491.433 1330.02 486.213 1332.58 487.063L1333.05 488.073C1329.41 491.19 1315.03 491.472 1311.08 494.601L1311.46 495.637C1315.74 497.947 1328.91 492.06 1334.96 492.659C1333.36 495.578 1321.57 497.152 1315.72 499.689C1323.99 500.195 1328.64 499.277 1336.78 498.008C1339.63 493.73 1340.15 492.524 1344 489.015L1344 522.86L1344 525.481C1337.96 522.235 1333.42 519.767 1326.99 517.228L1324.07 522.6Z"/><path fill="#365541" transform="matrix(1.33333 0 0 1.33333 0 -352)" d="M1336.78 498.008C1339.63 493.73 1340.15 492.524 1344 489.015L1344 522.86L1344 525.481C1337.96 522.235 1333.42 519.767 1326.99 517.228C1326.92 516.253 1328.39 512.664 1328.61 509.544C1329.02 508.09 1331.9 505.071 1333.02 503.781L1334.24 501.433L1336.78 498.008Z"/><path fill="#353928" transform="matrix(1.33333 0 0 1.33333 0 -352)" d="M1328.61 509.544C1334.56 514.155 1338.48 517.818 1344 522.86L1344 525.481C1337.96 522.235 1333.42 519.767 1326.99 517.228C1326.92 516.253 1328.39 512.664 1328.61 509.544Z"/><path fill="#54462E" transform="matrix(1.33333 0 0 1.33333 0 -352)" d="M1333.02 503.781C1331.15 504.018 1326.33 504.735 1324.84 503.644C1327.13 502.273 1331.47 501.87 1334.24 501.433L1333.02 503.781Z"/><path fill="#1E3525" transform="matrix(1.33333 0 0 1.33333 0 -352)" d="M295.39 663.553C289.665 660.066 292.509 663.862 288.985 664.872C286.763 661.29 289.821 660.894 286.074 657.602C284.26 658.658 285.703 659.823 283.597 662.143L282.689 661.915C282.08 659.8 281.776 658.899 280.883 656.865C275.068 657.858 278.84 652.005 274.128 652.44C273.311 653.782 273.048 654.566 271.705 655.227C269.924 653.851 270.088 652.667 269.321 650.099C266.589 648.167 266.423 650.474 262.817 649.009C262.415 647.983 261.869 646.438 260.881 645.596C260.113 645.689 259.344 645.783 258.576 645.876C252.685 641.891 247.102 636.961 241.339 632.898C240.508 632.312 235.852 631.036 234.742 630.281C232.625 628.842 232.849 628.875 232.278 626.929C234.545 620.678 236.644 626.732 239.396 626.694C244.64 626.622 250.572 625.384 255.871 624.659C264.018 632.597 270.544 641.866 280.17 647.039C282.447 648.263 287.065 649.301 287.319 650.608L284.855 652.862L285.194 653.541C288.931 654.23 293.796 652.182 297.427 650.884C297.341 654.857 297.431 658.691 296.453 662.547L295.39 663.553Z"/><path fill="#365541" transform="matrix(1.33333 0 0 1.33333 0 -352)" d="M202.939 747.762C206.811 749.13 212.783 751.25 216.892 752.604C218.193 753.032 218.445 757.167 220.418 756.495L221.25 753.575L222.252 753.659C223.03 755.311 223.522 756.754 224.84 757.982C227.19 756.771 225.63 755.406 227.635 754.79C228.634 756.506 229.342 757.931 230.198 759.698L230.843 759.77C231.084 757.541 230.812 755.83 232.095 754.554C234.261 756.099 236.37 761.063 237.51 763.655C237.524 761.133 237.221 757.422 238.562 755.446L239.628 755.542C242.149 759.082 243.053 763.137 244.187 767.317C243.939 763.098 243.268 758.616 244.378 754.659L245.288 753.769C247.788 755.322 250.315 762.506 250.998 765.453C251.191 766.298 251.363 767.147 251.514 768L224.894 768C225.862 766.277 226.492 765.152 227.261 763.29C224.034 763.095 221.58 767.312 219.018 764.427C219.405 763.073 219.673 762.318 220.221 761.021C218.676 760.451 217.919 760.857 216.232 761.287L214.926 760.641C214.912 759.321 214.961 759.287 215.289 758.073C213.249 756.686 212.164 757.598 211.742 757.235C208.891 754.774 205.382 750.392 202.939 747.762Z"/><path fill="#493621" transform="matrix(1.33333 0 0 1.33333 0 -352)" d="M768.804 394.396C769.577 396.917 769.542 397.915 772.153 398.604C774.811 396.103 773.478 391.833 775.737 387.801L776.032 388.544C775.473 400.025 769.254 418.582 768.502 431.65C776.336 443.203 776.235 448.044 775.803 461.865L754.53 479.728C752.046 486.727 750.156 497.988 749.976 505.429C744.301 510.241 736.219 514.912 729.395 517.911C736.099 511.239 740.448 509.902 746.862 504.779C749.434 495.912 749.97 486.056 752.353 478.331C759.324 472.833 768.694 466.264 774.416 460.132C772.779 446.728 772.857 444.43 766.272 432.409C767.001 427.801 771.132 405.974 771.122 403.344C770.299 402.876 769.615 402.524 768.774 402.105C768.338 398.775 769.431 397.252 768.804 394.396Z"/><path fill="#253B2C" transform="matrix(1.33333 0 0 1.33333 0 -352)" d="M1315.04 692.939C1315.87 693.375 1316.19 693.349 1317.12 693.528C1318.92 692.917 1342.58 683.891 1342.61 683.869L1344 684.077L1344 704.739C1335.87 702.164 1323.84 699.12 1315.97 695.676C1315.06 695.279 1315.2 694.18 1315.04 692.939Z"/><path fill="#1E3525" transform="matrix(1.33333 0 0 1.33333 0 -352)" d="M87.2132 589.764C87.2172 593.103 86.7606 592.364 88.3242 594.952C90.4283 596.325 92.1803 596.976 94.4866 597.938C90.1086 604.757 90.2408 609.405 81.7729 611.314C80.2496 611.644 78.7191 611.941 77.1825 612.204C77.3423 608.434 76.9779 603.936 76.7727 600.114L77.1002 598.897C79.2439 596.12 84.3559 592.15 87.2132 589.764Z"/><path fill="#353928" transform="matrix(1.33333 0 0 1.33333 0 -352)" d="M1130.41 585.957C1130.97 585.584 1132.51 584.307 1133.05 584.565C1137.52 586.727 1159.86 598.169 1161.07 601.534C1160.19 603.449 1160.79 602.861 1158.78 603.7C1155.6 603.47 1142.17 599.877 1139.76 597.32C1138.09 595.558 1133.33 588.378 1130.59 588.49L1130.41 585.957Z"/><path fill="#54462E" transform="matrix(1.33333 0 0 1.33333 0 -352)" d="M1023.1 497.559C1026.15 499.523 1028.64 508.263 1030.63 509.466C1035.46 508.518 1051.01 515.762 1056.07 518.224C1048.53 519.019 1045.2 518.923 1038.29 521.914C1031.84 515.431 1025.71 506.364 1023.1 497.559Z"/><path fill="#493621" transform="matrix(1.33333 0 0 1.33333 0 -352)" d="M1341.7 413.577L1344 412.843L1344 459.037C1339.39 465.869 1337.32 473.914 1331.77 481.748C1333.11 472.663 1337.02 468.548 1339.39 461.253C1343.48 448.673 1342.86 426.541 1341.7 413.577Z"/><path fill="#365541" transform="matrix(1.33333 0 0 1.33333 0 -352)" d="M251.972 768C251.836 765.109 251.025 759.548 252.012 757.29C254.22 756.627 255.633 758.395 257.322 759.84C258.444 763.183 258.891 764.542 259.387 768L251.972 768Z"/><path fill="#253B2C" transform="matrix(1.33333 0 0 1.33333 0 -352)" d="M71.0852 744.706C75.0785 749.857 70.8303 761.747 73.5147 765.945C76.3543 765.861 77.0009 764.843 77.9833 768L70.9103 768C70.4051 760.306 69.527 752.241 71.0852 744.706Z"/><path fill="#1E3525" transform="matrix(1.33333 0 0 1.33333 0 -352)" d="M115.385 550.323C112.163 559.317 109.013 569.602 100.754 574.983C103.376 568.458 110.866 555.544 115.385 550.323Z"/><path fill="#2E4735" transform="matrix(1.33333 0 0 1.33333 0 -352)" d="M1344 706.026C1333.89 704.073 1322.24 697.518 1312.46 697.888C1311.68 697.917 1312.12 698.022 1311.36 697.352C1313.25 695.213 1313.62 695.468 1314.05 693.058L1315.04 692.939C1315.2 694.18 1315.06 695.279 1315.97 695.676C1323.84 699.12 1335.87 702.164 1344 704.739L1344 706.026Z"/><path fill="#1E3525" transform="matrix(1.33333 0 0 1.33333 0 -352)" d="M438.215 638.669C442.206 639.974 442.055 646.962 445.178 651.751C442.92 652.466 442.111 652.411 439.82 652.457C438.357 649.132 438.53 642.782 438.215 638.669Z"/><path fill="#365541" transform="matrix(1.33333 0 0 1.33333 0 -352)" d="M268.386 768C268.369 765.179 268.059 762.592 269.415 760.163L270.603 759.576C273.542 761.106 274.324 764.886 275.363 768L268.386 768Z"/><path fill="#365541" transform="matrix(1.33333 0 0 1.33333 0 -352)" d="M259.792 768C260.019 765.582 260.012 762.483 261.455 760.675L262.874 760.204C265.778 761.818 266.087 764.985 266.72 768L259.792 768Z"/><path fill="#365541" transform="matrix(1.33333 0 0 1.33333 0 -352)" d="M278.106 768C278.496 765.506 278.549 763.563 280.165 761.645L281.524 761.126C284.636 762.714 284.635 764.746 285.326 768L278.106 768Z"/><path fill="#493621" transform="matrix(1.33333 0 0 1.33333 0 -352)" d="M1344 467.259L1344 470.833C1341.51 474.696 1338.98 484.226 1336.6 485.96L1335.94 485.404C1335.78 482.337 1342.25 470.233 1344 467.259Z"/><path fill="#2E4735" transform="matrix(1.33333 0 0 1.33333 0 -352)" d="M298.064 702.986C298.566 699.981 298.101 699.225 298.998 695.932C300.666 694.898 300.007 695.176 302.495 695.634C302.461 697.313 302.049 700.275 303.327 701.443C300.505 702.158 300.689 702.45 300.145 705.492L298.064 702.986Z"/><path fill="#353928" transform="matrix(1.33333 0 0 1.33333 0 -352)" d="M99.2027 541.874L99.782 541.521C102.856 539.626 105.448 536.523 107.671 536.1C106.539 539.026 101.818 543.061 99.3694 545.088C96.7745 543.119 97.3857 544.156 96.8452 541.295L97.2077 540.89L98.2555 542.51L99.2027 541.874Z"/><path fill="#365541" transform="matrix(1.33333 0 0 1.33333 0 -352)" d="M1215.55 539.838C1212.12 539.111 1208.46 538.306 1205.11 537.313C1187.9 532.216 1195.56 510.348 1200.07 498.548C1201.8 498.601 1203.53 498.727 1205.25 498.926C1214.89 500.016 1227.23 505.453 1234.38 512.264C1236.96 514.728 1232.83 526.957 1230.71 528.372C1230.01 530.337 1228.43 535.124 1227.47 536.704C1229.42 539.662 1234.8 547.054 1234.81 550.551C1234.83 562.272 1242.48 572.462 1247.86 582.958C1257.14 601.057 1265.13 618.736 1273.28 637.344C1263.79 640.332 1252.78 643.236 1244.51 648.673C1243.34 646.387 1242.08 643.791 1240.79 641.608C1239.27 646.551 1237.5 655.39 1233.4 657.973C1228.72 659.011 1226.31 654.841 1223.58 651.575C1198.09 654.704 1190.49 655.576 1165.36 650.833C1176.16 650.274 1186.89 648.9 1197.22 648.381C1201.02 648.888 1202.39 648.179 1205.77 648.325C1211.09 648.555 1216.73 649.027 1222.06 649.437L1223.69 646.655C1224.6 638.471 1226.88 624.839 1224.54 617.503C1222.61 611.455 1220.23 606.508 1218.71 599.846L1222.2 595.39C1229.73 593.227 1237.41 591.619 1245.17 590.578C1234.73 589.446 1226.07 593.169 1216.51 591.166C1214.94 590.838 1213.9 588.089 1213.25 586.575L1212.67 585.991C1211.57 582.633 1210.54 579.528 1209.25 576.226C1208.47 574.935 1207.94 572.716 1207.5 571.198C1205.47 562.132 1200.6 552.458 1198.17 540.639C1202.8 540.053 1210.67 540.005 1215.55 539.838Z"/><path fill="#353928" transform="matrix(1.33333 0 0 1.33333 0 -352)" d="M1207.5 571.198C1214.61 570.433 1222.5 569.606 1229.66 569.746C1225.91 571.043 1212.45 575.906 1209.25 576.226C1208.47 574.935 1207.94 572.716 1207.5 571.198Z"/><path fill="#353928" transform="matrix(1.33333 0 0 1.33333 0 -352)" d="M1227.47 536.704C1226.66 533.023 1231.21 520.248 1233.63 517.287C1233.59 520.444 1231.44 524.962 1230.71 528.372C1230.01 530.337 1228.43 535.124 1227.47 536.704Z"/><path fill="#2E4735" transform="matrix(1.33333 0 0 1.33333 0 -352)" d="M1212.67 585.991C1216.78 583.509 1225.19 581.136 1230.04 581.381C1224.54 583.759 1218.34 584.403 1213.25 586.575L1212.67 585.991Z"/><path fill="#253B2C" transform="matrix(1.33333 0 0 1.33333 0 -352)" d="M1231.23 629.42C1233.35 629.474 1233.74 629.586 1235.77 630.22C1237.9 634.044 1233.22 650.998 1232.03 656.16C1229.68 654.452 1227.9 651.776 1226.15 649.423C1228.18 642.367 1229.8 636.663 1231.23 629.42Z"/><path fill="#253B2C" transform="matrix(1.33333 0 0 1.33333 0 -352)" d="M1245.58 624.801C1247.87 625.471 1248.21 625.408 1249.17 627.118C1248.84 629.437 1247.6 630.563 1246.11 632.427C1243.73 632.246 1244.32 632.634 1242.72 631.357C1242.48 629.123 1244.29 626.881 1245.58 624.801Z"/><path fill="#365541" transform="matrix(1.33333 0 0 1.33333 0 -352)" d="M227.475 708.12C228.457 706.616 230.967 706.697 232.664 706.63C233.837 705.511 236.523 702.972 237.403 701.78C239.41 699.059 240.755 692.579 244.837 692.221L245.438 692.909C245.26 693.037 245.081 693.164 244.903 693.292L243.708 694.182C240.981 696.212 239.6 700.657 237.587 703.336C236.349 704.982 235.008 705.552 233.8 707.436L235.455 710.693L235.149 711.471L236.892 720.743C237.259 716.324 237.781 711.919 238.457 707.537C242.529 713.353 243.149 718.872 245.271 725.717C245.055 718.526 244.938 715.356 246.024 708.299C250.384 715.846 251.043 720.597 253.077 728.876C253.106 724.873 252.45 717.755 255.607 715.078L256.794 715.967C259.566 721.751 259.536 724.946 260.074 731.255C256.771 733.237 248.304 738.789 244.631 738.448L244.438 737.237C246.279 732.802 249.163 730.048 252.222 726.218C249.054 728.389 241.381 734.296 237.825 734.107L237.219 732.916C237.505 730.098 239.925 726.877 241.503 724.377C238.278 726.444 233.861 730.112 230.076 728.953L230.217 727.621C231.837 724.882 234.768 723.235 237.428 721.421C234.552 722.42 228.278 725.056 225.783 725.024L225.128 724.178C225.6 721.583 228.276 718.932 230.068 716.814C227.1 718.297 222.102 721.03 218.927 721.044L218.823 720.179C219.594 718.77 219.722 718.676 219.721 717.121C218.893 717.081 218.065 717.027 217.239 716.959C213.921 716.687 205.011 706.343 202.717 703.636C209.991 705.372 215.751 708.517 222.857 709.997C225.137 710.472 225.965 709.369 227.475 708.12Z"/><path fill="#1E3525" transform="matrix(1.33333 0 0 1.33333 0 -352)" d="M227.475 708.12C228.457 706.616 230.967 706.697 232.664 706.63C233.837 705.511 236.523 702.972 237.403 701.78C239.41 699.059 240.755 692.579 244.837 692.221L245.438 692.909C245.26 693.037 245.081 693.164 244.903 693.292L243.708 694.182C240.981 696.212 239.6 700.657 237.587 703.336C236.349 704.982 235.008 705.552 233.8 707.436L235.455 710.693L235.149 711.471C234.355 710.508 233.791 709.676 233.084 708.647L232.097 708.678C231.398 710.964 231.015 713.022 230.548 715.359C229.634 712.469 229.206 710.597 227.475 708.12Z"/><path fill="#365541" transform="matrix(1.33333 0 0 1.33333 0 -352)" d="M1214.86 635.72L1214.95 635.164C1215.82 629.678 1215.76 606.08 1213.65 600.214C1213.01 598.424 1211.09 595.077 1212.43 593.853C1213.63 597.382 1216.98 600.315 1218.22 603.592C1222.15 613.954 1221.62 625.285 1218.8 635.836C1217.57 641.727 1219.46 642.952 1223.69 646.655L1222.06 649.437C1216.73 649.027 1211.09 648.555 1205.77 648.325C1202.39 648.179 1201.02 648.888 1197.22 648.381C1199.46 645.929 1212.96 648.059 1217.85 647.302L1218.23 646.624C1217.49 645.737 1214.92 642.4 1213.77 642.327C1206.45 641.86 1195.54 646.563 1188.64 645.171C1179.78 645.715 1167.31 644.126 1158.24 643.167C1174.63 639.143 1194.39 639.345 1211.03 638.35L1211.91 637.166L1213.89 636.901L1214.86 635.72Z"/><path fill="#2E4735" transform="matrix(1.33333 0 0 1.33333 0 -352)" d="M1188.64 645.171C1190.6 643.699 1211.09 642.365 1215.26 640.189C1218.01 638.755 1217 639.541 1218.8 635.836C1217.57 641.727 1219.46 642.952 1223.69 646.655L1222.06 649.437C1216.73 649.027 1211.09 648.555 1205.77 648.325C1202.39 648.179 1201.02 648.888 1197.22 648.381C1199.46 645.929 1212.96 648.059 1217.85 647.302L1218.23 646.624C1217.49 645.737 1214.92 642.4 1213.77 642.327C1206.45 641.86 1195.54 646.563 1188.64 645.171Z"/><path fill="#353928" transform="matrix(1.33333 0 0 1.33333 0 -352)" d="M220.873 588.48C221.333 588.832 221.902 589.266 222.579 589.782C226.671 599.722 229.817 612.666 233.655 622.437C221.972 628.442 216.003 633.078 202.424 639.043C199.511 638.646 198.193 638.789 196.114 637.133C195.078 628.458 223.791 624.174 226.954 615.05C228.628 610.222 222.892 592.949 220.873 588.48Z"/><path fill="#796142" transform="matrix(1.33333 0 0 1.33333 0 -352)" d="M1090.61 494.621C1096.63 497.717 1095.9 527.979 1086.9 531.081C1085.2 524.979 1081.2 520.234 1081.34 513.296C1081.47 506.42 1085.89 499.35 1090.61 494.621Z"/><path fill="#365541" transform="matrix(1.33333 0 0 1.33333 0 -352)" d="M1166.81 658.27L1167.74 657.891C1172.54 658.591 1176.91 659.281 1181.76 659.753C1188.82 660.439 1227.21 654.776 1228.8 661.649C1221.23 663.284 1204.92 664.174 1196.96 664.201C1191.56 664.219 1169.73 661.385 1166.81 658.27Z"/><path fill="#9C885F" transform="matrix(1.33333 0 0 1.33333 0 -352)" d="M901.622 471.012C907.016 474.653 906.384 488.997 909.529 490.966C918.623 496.659 920.414 504.472 926.731 511.541C927.63 512.537 928.632 513.435 929.721 514.218C937.657 520 946.405 518.093 953.738 529.088C949.033 527.74 944.536 523.104 942.129 522.478C924.677 518.679 925.937 514.541 917.079 503.31C904.701 487.616 904.031 492.834 901.622 471.012Z"/><path fill="#365541" transform="matrix(1.33333 0 0 1.33333 0 -352)" d="M1215.22 667.241C1222.05 666.391 1227.54 667.132 1234.31 667.901C1220.9 674.903 1209.54 673.898 1194.95 673.425C1189.03 672.111 1183.13 670.725 1177.25 669.266C1188.56 668.123 1202.85 668.267 1215.22 667.241Z"/><path fill="#365541" transform="matrix(1.33333 0 0 1.33333 0 -352)" d="M1186.47 619.193C1184.74 609.696 1185.78 605.996 1180.79 595.799C1178.45 591 1172.76 582.334 1171.72 577.937L1172.21 577.37C1173.69 580.393 1176.93 582.974 1179.27 585.517C1189.23 596.37 1191.12 603.737 1191.26 617.576C1189.43 619.513 1189.85 618.92 1186.47 619.193Z"/><path fill="#9C885F" transform="matrix(1.33333 0 0 1.33333 0 -352)" d="M654.05 475.781C654.376 479.33 650.218 485.966 649.521 489.468C649.027 491.95 650.822 496.853 650.761 499.566C650.895 500.914 650.071 502.715 648.927 503.618C640.382 510.368 632.785 516.972 624.991 524.579L624.815 523.141C627.915 514.769 640.535 506.395 647.702 501.426C646.198 489.101 644.733 485.015 654.05 475.781Z"/><path fill="#365541" transform="matrix(1.33333 0 0 1.33333 0 -352)" d="M1176.94 675.629C1178.47 675.512 1195.06 677.578 1198.12 677.866C1207.46 678.746 1210.55 677.813 1219.24 677.672L1219.61 678.632L1218.05 681.24C1216.98 683.091 1216.71 683.947 1214.85 684.99C1204.36 684.259 1186.47 680.156 1176.94 675.629Z"/><path fill="#353928" transform="matrix(1.33333 0 0 1.33333 0 -352)" d="M1276.63 558.036C1277.21 558.065 1278.11 558.44 1278.7 558.646C1280.09 560.223 1279.72 559.441 1279.94 561.73C1278.11 565.659 1266.48 573.277 1262.29 577.187L1261.74 577.702L1260.66 578.619L1259.61 578.31L1259.19 577.02C1259.91 572.883 1262.35 570.918 1264.13 567.31C1266.6 562.297 1271.23 559.491 1276.63 558.036Z"/><path fill="#493621" transform="matrix(1.33333 0 0 1.33333 0 -352)" d="M212.66 519.992C222.4 519.514 233.444 525.446 243.207 527.639C251.344 529.466 267.2 530.389 273.869 534.801C258.39 535.541 226.498 526.607 212.66 519.992Z"/><path fill="#9C885F" transform="matrix(1.33333 0 0 1.33333 0 -352)" d="M785.796 406.704C791.318 411.222 794.099 421.801 798.317 426.698C807.602 437.48 815.997 441.615 818.718 457.15C814.957 454.815 810.365 441.351 806.927 437.718C805.69 436.41 800.984 434.299 799.431 433.074C794.023 428.811 786.668 413.147 785.796 406.704Z"/><path fill="#2E4735" transform="matrix(1.33333 0 0 1.33333 0 -352)" d="M214.163 641.278L215.457 641.658L215.03 642.604C212.57 643.801 202.366 649.342 200.939 649.713C191.279 652.227 182.717 653.208 173.062 656.687C171.958 656.137 171.348 655.505 170.431 654.699L170.604 653.762C173.293 652.022 179.745 652.508 183.645 651.349C193.845 648.318 204.096 644.7 214.163 641.278Z"/><path fill="#54462E" transform="matrix(1.33333 0 0 1.33333 0 -352)" d="M864.497 554.905C868.752 556.495 873.555 565.863 865.611 567.557C863.959 567.375 863.278 567.227 861.674 566.785C857.329 562.411 861.034 558.458 864.497 554.905Z"/><path fill="#1E3525" transform="matrix(1.33333 0 0 1.33333 0 -352)" d="M1191.26 617.576L1192.43 616.439C1194.45 616.805 1193.79 616.667 1195.49 618.593C1195.85 620.602 1196.02 619.825 1194.86 621.495C1191.52 623.366 1178.51 624.599 1175.27 622.985C1175.48 618.726 1182.96 619.37 1186.47 619.193C1189.85 618.92 1189.43 619.513 1191.26 617.576Z"/><path fill="#365541" transform="matrix(1.33333 0 0 1.33333 0 -352)" d="M266.985 691.922C265.011 691.406 264.412 691.331 262.753 690.175C260.505 686.375 260.651 684.08 263.495 680.469C265.418 679.945 264.693 679.839 266.246 680.664L266.427 682.65L267.212 685.114L268.282 685.492L270.282 684.401C271.748 686.937 271.421 690.45 269.562 692.693C268.473 692.283 268.147 692.075 266.985 691.922Z"/><path fill="#2E4735" transform="matrix(1.33333 0 0 1.33333 0 -352)" d="M266.427 682.65L267.212 685.114L268.282 685.492L270.282 684.401C271.748 686.937 271.421 690.45 269.562 692.693C268.473 692.283 268.147 692.075 266.985 691.922C266.598 688.631 266.518 685.959 266.427 682.65Z"/><path fill="#365541" transform="matrix(1.33333 0 0 1.33333 0 -352)" d="M1243.36 692.707C1248.46 692.475 1251.11 694.565 1255.48 697.066L1242.21 697.128C1237.19 697.146 1232.18 696.862 1227.16 696.629C1232.43 694.842 1237.85 693.53 1243.36 692.707Z"/><path fill="#253B2C" transform="matrix(1.33333 0 0 1.33333 0 -352)" d="M1172.77 712.164C1172.48 712.627 1171.96 713.176 1171.58 713.603L1170.72 712.873C1170.06 708.13 1169.97 706.278 1170.04 701.536C1172.05 700.46 1173.04 701.196 1175.79 701.716L1174.3 703.211L1174.88 704.162L1176.15 705.676C1175.72 710.206 1177.57 714.202 1177.12 718.322L1176.27 718.509C1175.53 716.227 1175.26 713.22 1173.74 711.992L1172.77 712.164Z"/><path fill="#2E4735" transform="matrix(1.33333 0 0 1.33333 0 -352)" d="M1174.88 704.162L1176.15 705.676C1175.72 710.206 1177.57 714.202 1177.12 718.322L1176.27 718.509C1175.53 716.227 1175.26 713.22 1173.74 711.992L1172.77 712.164C1171.67 711.337 1172.1 711.875 1171.7 710.344C1175.05 708.128 1174.81 707.703 1174.88 704.162Z"/><path fill="#2E4735" transform="matrix(1.33333 0 0 1.33333 0 -352)" d="M180.949 635.058L182.029 635.738C183.554 640.867 179.104 645.387 174.818 647.561L172.501 646.647L171.926 646.275L171.795 643.671L171.767 643.711C172.059 642.001 171.645 642.627 172.807 641.637L175.556 642.957C177.579 642.244 179.747 637.273 180.949 635.058Z"/><path fill="#2E4735" transform="matrix(1.33333 0 0 1.33333 0 -352)" d="M1252.35 546.548C1253.33 546.928 1253.31 547.181 1253.91 548.114C1253.2 552.074 1247.03 557.483 1244.07 560.459C1243.31 560.018 1243.3 559.878 1242.68 559.223C1243.04 555.594 1249.66 549.391 1252.35 546.548Z"/><path fill="#1E3525" transform="matrix(1.33333 0 0 1.33333 0 -352)" d="M1213.89 636.901C1206.7 631.091 1208.71 624.242 1210.99 616.118C1211.65 621.883 1211.84 631.176 1214.86 635.72L1213.89 636.901Z"/><path fill="#2E4735" transform="matrix(1.33333 0 0 1.33333 0 -352)" d="M1308.19 681.223C1309.38 682.433 1309.43 685.61 1309.46 687.325L1309.47 687.851C1310.35 689.091 1311.07 689.971 1312.23 690.963L1307.55 693.308C1306.65 694.213 1307.18 693.941 1305.91 694.136C1304.64 690.164 1305.44 684.476 1308.19 681.223Z"/><path fill="#365541" transform="matrix(1.33333 0 0 1.33333 0 -352)" d="M1256.71 667.385C1259.44 667.566 1261.46 667.534 1263.44 669.138C1263.89 671.123 1262.98 672.288 1262.04 674.202C1260.52 675.028 1259.7 674.409 1258.43 673.687C1256.96 671.497 1256.99 670.009 1256.71 667.385Z"/><path fill="#2E4735" transform="matrix(1.33333 0 0 1.33333 0 -352)" d="M1201.56 688.539C1205.2 688.783 1212.94 688.861 1213.49 692.934C1208.57 695.003 1204.09 693.133 1201.56 688.539Z"/><path fill="#54462E" transform="matrix(1.33333 0 0 1.33333 0 -352)" d="M1267.86 483.875L1268.13 484.952C1265.35 488.461 1259.7 492.895 1256.05 495.492L1255.77 494.201C1258.06 489.832 1263.71 486.669 1267.86 483.875Z"/><path fill="#796142" transform="matrix(1.33333 0 0 1.33333 0 -352)" d="M1162.26 472.495C1164.28 472.46 1164.76 472.429 1165.93 473.897L1165.13 475.376C1161.98 477.259 1162.66 476.684 1158.59 476.846C1158.28 476.992 1156.81 477.325 1156.37 477.434L1156.03 476.814C1157.78 474.821 1159.94 473.803 1162.26 472.495Z"/><path fill="#365541" transform="matrix(1.33333 0 0 1.33333 0 -352)" d="M1246 665.599C1247.8 665.915 1249.33 666.116 1251.14 666.326C1252.74 668.061 1252.23 668.017 1252.38 670.984C1250.28 670.959 1249.66 670.917 1247.61 670.471C1245.98 668.565 1246.44 668.515 1246 665.599Z"/><path fill="#9C885F" transform="matrix(1.33333 0 0 1.33333 0 -352)" d="M1069.73 480.416C1073.76 486.501 1074.07 492.708 1074.78 499.724C1073.02 497.961 1070.15 483.543 1069.73 480.416Z"/><path fill="#2E4735" transform="matrix(1.33333 0 0 1.33333 0 -352)" d="M129.075 709.077L130.723 710.136C131.22 713.948 127.998 716.61 124.429 716.914C123.968 716.601 123.226 715.866 122.784 715.459C127.891 713.018 127.892 715.166 129.075 709.077Z"/><path fill="#353928" transform="matrix(1.33333 0 0 1.33333 0 -352)" d="M180.243 587.139C181.596 586.955 182.418 586.697 183.68 587.203C179.874 588.506 177.064 588.693 173.118 589.141C171.156 589.631 170.688 589.808 168.692 589.614C170.505 587.665 177.554 587.249 180.243 587.139Z"/><path fill="#493621" transform="matrix(1.33333 0 0 1.33333 0 -352)" d="M1297.08 485.497C1300.11 487.544 1300.34 491.09 1300.03 494.344C1297.04 491.829 1296.82 489.153 1297.08 485.497Z"/><path fill="#2E4735" transform="matrix(1.33333 0 0 1.33333 0 -352)" d="M271.867 684.904C274.932 686.84 275.486 693.855 275.489 697.231C273.939 695.705 272.419 687.434 271.867 684.904Z"/><path fill="#9C885F" transform="matrix(1.33333 0 0 1.33333 0 -352)" d="M1079.98 486.419L1080.41 486.771C1079.82 491.271 1079.44 493.259 1078.29 497.678L1077.51 497.254C1077.03 493.568 1078.63 489.789 1079.98 486.419Z"/><path fill="#54462E" transform="matrix(1.33333 0 0 1.33333 0 -352)" d="M1296.41 560.274L1297.44 559.979C1299.46 561.495 1299.8 562.39 1300.97 564.549C1299.07 563.725 1297.31 562.164 1296.41 560.274Z"/><defs><linearGradient id="gradient_4" gradientUnits="userSpaceOnUse" x1="-1.7525966" y1="555.78668" x2="108.88858" y2="387.20267"><stop offset="0" stop-color="#253C2A"/><stop offset="1" stop-color="#3C5B49"/></linearGradient></defs><path fill="url(#gradient_4)" transform="matrix(1.33333 0 0 1.33333 0 -352)" d="M10.0949 398.771C13.8523 378.772 25.3353 352.693 41.3211 339.61C47.0418 371.756 48.9313 395.688 34.6804 426.368C41.5798 417.071 50.9677 399.963 63.4696 398.689C65.8017 398.451 65.8767 399.369 68.1859 397.907C67.664 395.393 67.4103 396.03 68.2348 394.025C75.7708 387.708 89.8883 382.116 99.3324 379.351C92.104 392.957 84.74 403.832 77.2731 416.859C72.495 415.207 70.9417 414.854 65.9555 414.125C68.6603 416.149 71.8236 418.161 73.5449 421.004L73.4516 422.243C71.398 423.143 69.4274 423.198 68.3916 424.339C69.2146 426.084 69.9591 426.517 71.4115 427.746C66.0363 435.056 61.64 440.926 55.1328 447.44C46.3951 456.187 32.9485 464.351 26.7627 474.465C22.8028 480.94 19.2735 523.176 22.9763 527.788C25.2463 527.333 25.2337 527.694 26.8219 526.248L29.0366 526.545C36.65 525.785 59.5393 518.241 67.3506 515.396C65.8243 528.183 59.2777 544.409 61.8994 558.32C62.3295 560.862 62.8348 564.538 63.6186 566.881L67.5775 567.469L66.658 569.078C65.3839 572.899 62.9593 578.62 63.0251 582.245L63.0317 582.905C69.7679 586.923 73.9496 591.731 77.1002 598.897L76.7727 600.114C76.9779 603.936 77.3423 608.434 77.1825 612.204C69.4806 614.903 68.1816 617.307 64.5988 624.695C64.2915 625.327 64.0027 625.967 63.7329 626.616C49.2393 619.072 32.3752 607.728 23.7794 593.366C21.2744 587.906 18.4903 584.473 14.7158 579.984C13.0174 575.691 9.15609 565.811 6.95053 562.317C5.25319 564.175 2.57473 564.243 0 564.726L0 530.869L8.38968 530.121C7.19346 523.2 6.22236 522.846 0 519.849L0 502.508C3.02136 507.3 7.60538 519.166 10.3738 521.414C10.6438 524.049 11.1856 528.547 14.3037 528.727C16.2603 525.492 13.9705 495.572 13.9573 489.096C13.3752 484.111 13.3879 481.346 10.6799 477.2C7.60499 473.66 3.22476 467.312 0 463.228L0 431.215L0 424.517L0 383.542C4.15767 388.495 7.07077 393.014 10.0949 398.771ZM18.6579 490.475C21.8034 480.233 29.5317 454.693 25.9566 444.172C22.5739 450.367 14.0402 485.654 18.6579 490.475Z"/><path fill="#365541" transform="matrix(1.33333 0 0 1.33333 0 -352)" d="M6.95053 562.317C6.66943 561.687 6.40539 561.051 6.15869 560.407C5.52378 558.727 4.09693 555.568 4.70902 554.229L5.85196 555.348C10.0687 563.739 29.5052 579.589 40.021 582.316C48.6717 584.56 61.1718 586.452 68.2437 591.339C70.4111 592.837 74.5781 597.933 76.7727 600.114C76.9779 603.936 77.3423 608.434 77.1825 612.204C69.4806 614.903 68.1816 617.307 64.5988 624.695C64.2915 625.327 64.0027 625.967 63.7329 626.616C49.2393 619.072 32.3752 607.728 23.7794 593.366C21.2744 587.906 18.4903 584.473 14.7158 579.984C13.0174 575.691 9.15609 565.811 6.95053 562.317Z"/><path fill="#493621" transform="matrix(1.33333 0 0 1.33333 0 -352)" d="M29.0366 526.545C36.65 525.785 59.5393 518.241 67.3506 515.396C65.8243 528.183 59.2777 544.409 61.8994 558.32C60.5866 559.394 60.4752 559.221 59.0719 559.531C50.7579 561.367 53.4893 551.734 49.3347 548.386C46.3707 548.159 46.7984 548.818 43.6099 550.215L41.3306 549.181L40.3747 549.719C37.7831 547.908 35.8367 544.734 32.8749 544.2C30.0951 545.078 30.7534 545.047 28.5327 547.476C27.3271 547.604 26.9667 547.735 25.9626 548.414C24.6476 545.94 28.3098 529.868 29.0366 526.545Z"/><path fill="#54462E" transform="matrix(1.33333 0 0 1.33333 0 -352)" d="M28.5327 547.476C30.7534 545.047 30.0951 545.078 32.8749 544.2C35.8367 544.734 37.7831 547.908 40.3747 549.719L41.3306 549.181L43.6099 550.215C46.7984 548.818 46.3707 548.159 49.3347 548.386C53.4893 551.734 50.7579 561.367 59.0719 559.531C60.4752 559.221 60.5866 559.394 61.8994 558.32C62.3295 560.862 62.8348 564.538 63.6186 566.881L67.5775 567.469L66.658 569.078C65.3839 572.899 62.9593 578.62 63.0251 582.245L63.0317 582.905C59.9047 582.583 57.1279 582.768 55.4837 579.86L54.8006 580.021C51.575 581.115 37.6608 578.137 37.0032 573.709C36.727 571.848 35.8631 570.031 35.1743 568.278C36.016 565.565 35.6255 566.441 37.8107 564.401C32.3524 562.991 31.0763 562.646 25.4782 563.617C21.5945 560.138 26.7054 551.139 28.5327 547.476Z"/><path fill="#365541" transform="matrix(1.33333 0 0 1.33333 0 -352)" d="M43.6071 573.921C43.461 571.005 43.0064 567.501 44.0831 564.879L44.9359 564.688C48.6648 568.811 49.5908 575.415 54.8006 580.021C51.575 581.115 37.6608 578.137 37.0032 573.709C36.727 571.848 35.8631 570.031 35.1743 568.278C36.016 565.565 35.6255 566.441 37.8107 564.401C39.6146 566.494 40.6232 570.078 43.6071 573.921Z"/><path fill="#353928" transform="matrix(1.33333 0 0 1.33333 0 -352)" d="M40.3747 549.719L41.3306 549.181L43.6099 550.215C46.7984 548.818 46.3707 548.159 49.3347 548.386C53.4893 551.734 50.7579 561.367 59.0719 559.531C60.4752 559.221 60.5866 559.394 61.8994 558.32C62.3295 560.862 62.8348 564.538 63.6186 566.881L63.0724 566.694C61.3485 565.174 61.1392 562.853 60.5609 560.482L50.817 559.93C50.8533 556.076 51.7701 552.138 47.8537 550.453C45.2584 550.905 42.3908 551.679 40.3747 549.719Z"/><path fill="#1E3525" transform="matrix(1.33333 0 0 1.33333 0 -352)" d="M66.658 569.078C65.3839 572.899 62.9593 578.62 63.0251 582.245L63.0317 582.905C59.9047 582.583 57.1279 582.768 55.4837 579.86C58.6323 578.219 58.4531 578.117 61.2657 579.952L61.254 579.946C63.3059 577.511 64.3954 572.392 66.658 569.078Z"/><path fill="#493621" transform="matrix(1.33333 0 0 1.33333 0 -352)" d="M0 530.869L8.38968 530.121C9.3489 538.39 9.9922 542.811 10.0571 551.253C8.33122 553.551 8.13368 554.721 5.85196 555.348L4.70902 554.229C4.09693 555.568 5.52378 558.727 6.15869 560.407C6.40539 561.051 6.66943 561.687 6.95053 562.317C5.25319 564.175 2.57473 564.243 0 564.726L0 530.869Z"/><path fill="#2E4735" transform="matrix(1.33333 0 0 1.33333 0 -352)" d="M0 431.215C4.77777 439.225 11.9566 468.184 10.6799 477.2C7.60499 473.66 3.22476 467.312 0 463.228L0 431.215Z"/><path fill="#1E3525" transform="matrix(1.33333 0 0 1.33333 0 -352)" d="M0 424.517C5.16074 433.786 16.6423 480.187 13.9573 489.096C13.3752 484.111 13.3879 481.346 10.6799 477.2C11.9566 468.184 4.77777 439.225 0 431.215L0 424.517Z"/><path fill="#1E3525" transform="matrix(1.33333 0 0 1.33333 0 -352)" d="M25.4782 563.617C31.0763 562.646 32.3524 562.991 37.8107 564.401C35.6255 566.441 36.016 565.565 35.1743 568.278C35.0904 569.993 35.5001 572.202 35.7453 573.946C32.0311 572.765 25.2747 569.972 23.8635 566.025C24.2598 564.105 23.8337 564.753 25.4782 563.617Z"/><path fill="#2E4735" transform="matrix(1.33333 0 0 1.33333 0 -352)" d="M26.8219 526.248C27.8806 517.21 26.8544 508.599 27.6025 499.963C31.6327 453.437 76.0166 440.796 113.819 429.635C120.977 427.522 131.366 421.512 138.408 418.34C130.454 440.162 121.7 444.299 102.687 455.172C101.406 453.406 100.414 451.492 98.4743 450.861C96.9632 452.542 97.7618 455.178 98.1803 457.304C81.3248 466.708 78.6952 467.119 68.1452 483.854C64.1945 480.738 62.6073 479.558 58.1719 477.124C60.5929 481.526 61.7928 483.732 64.8931 487.724C58.174 500.154 48.9583 506.528 38.266 515.291C34.6749 518.234 30.3594 521.967 29.0366 526.545L26.8219 526.248Z"/><path fill="#493621" transform="matrix(1.33333 0 0 1.33333 0 -352)" d="M1025.08 463.089C1026.65 460.392 1027 458.599 1030.28 458.589C1032.6 459.881 1033.35 461.144 1034.95 463.26C1038.22 461.71 1041.54 459.519 1044.96 460.629C1045.11 462.896 1044.93 462.444 1043.77 464.729L1044.12 465.425C1049.44 466.085 1056.59 463.861 1059.83 469.086C1058.33 473.252 1044.53 475.556 1040.49 475.241C1038.11 478.839 1030.91 485 1026.3 483.271C1025.84 480.963 1025.77 479.547 1025.62 477.214C1024.45 473.248 1013.11 479.699 1008.37 476.617C1006.47 471.147 1016.66 468.982 1020.71 468.016L1020.11 467.453C1017.87 465.329 1016.2 464.198 1016.12 461.256L1017.47 460.579C1020.18 460.555 1022.59 461.938 1025.08 463.089Z"/><path fill="#365541" transform="matrix(1.33333 0 0 1.33333 0 -352)" d="M0 479.043C8.71994 493.693 9.18659 504.627 10.3738 521.414C7.60538 519.166 3.02136 507.3 0 502.508L0 479.043Z"/></g></svg>