<?xml version="1.0" encoding="utf-8" ?><svg xmlns="http://www.w3.org/2000/svg" xmlns:xlink="http://www.w3.org/1999/xlink" width="964" height="1419" viewBox="0 0 964 1419"><clipPath id="cl_3"><rect x="0.00010681152" width="964" height="1419"/></clipPath><g clip-path="url(#cl_3)"><path fill="#D4D2D3" transform="matrix(1.38506 0 0 1.38574 -222.994 0)" d="M468.681 91.4009C471.028 90.8756 477.709 83.5976 477.589 81.3538C478.786 80.2224 478.068 80.5473 479.904 80.5661C481.306 81.6971 480.891 80.9785 481.112 82.8367C480.024 85.464 475.951 90.6646 473.977 92.9247L474.313 93.6119C468.371 99.8443 462.613 106.905 457.183 113.583C452.025 119.925 444.257 123.641 439.28 128.499C424.779 142.651 410.459 147.382 391.309 153.037C382.917 155.514 373.155 160.443 364.037 161.748C363.949 165.428 363.877 166.888 364.392 170.501L364.512 171.381L364.592 171.908C362.698 173.743 361.606 174.689 359.508 176.285C358.515 173.009 359.637 169.341 359.528 165.472C356.376 167.291 346.385 177.761 343.047 181.166C342.961 189.062 342.984 190.953 334.777 192.555C332.681 204.518 331.949 203.056 325.196 211.443C324.455 221.257 324.341 223.087 318.365 231.407C318.926 238.206 319.543 240.153 316.046 246.06C317.913 251.407 319.396 253.879 318.477 259.472L317.724 262.44C317.071 266.663 312.384 273.831 314.449 277.341C316.856 281.431 325.951 281.781 324.36 288.985C322.635 296.725 317.891 302.659 315.649 310.696C319.342 319.012 324.519 322.48 330.433 328.606C333.495 342.09 334.827 336.644 341.967 341.445C344.826 343.367 352.07 366.867 357.107 369.031C360.093 367.182 358.708 357.38 364.266 353.745C368.924 350.698 376.519 354.32 378.521 352.182C383.316 347.062 382.959 343.109 389.842 338.241C390.21 336.27 388.515 332.533 387.761 330.523L387.589 330.104C384.977 323.899 378.598 326.609 373.498 323.889C366.262 320.029 363.053 310.725 361.738 303.126C360.167 294.051 361.935 293.194 364.477 285.228C364.083 283.942 363.168 280.886 362.43 279.849C357.036 272.269 351.347 270.009 358.493 260.953C360.269 263.592 360.153 263.811 363.199 264.44C362.221 265.767 361.491 266.398 361.559 268.011C362.921 271.005 365.561 272.44 366.603 274.414C368.608 278.213 369.533 282.435 371.811 286.493C376.186 288.438 379.81 289.329 383.974 291.76C386.977 293.116 389.143 298.238 391.942 299.279C398.236 301.62 405.43 298.588 411.022 303.531C414.646 306.734 416.521 311.825 418.787 315.991C420.062 318.336 421.237 320.967 424.173 319.723C427.993 318.104 431.556 314.524 435.793 316.124C441.668 317.754 443.512 328.78 449.222 326.364C453.397 324.598 455.603 321.393 460.924 323.184C461.724 323.457 462.516 323.753 463.3 324.069C473.952 319.241 481.352 315.278 488.82 328.351C490.527 331.339 485.996 335.868 485.287 338.388C482.78 347.291 488.749 364.588 476.109 367.256C470.438 368.453 464.202 365.427 458.829 363.855C458.598 368.058 459.105 374.81 458.029 378.508C456.455 383.919 446.77 388.507 449.554 395.394C450.128 396.875 453.61 399.473 454.155 400.793C456.228 405.813 458.218 414.093 460.517 418.699C469.758 425.274 467.93 426.859 462.265 435.513C462.902 438.2 464.342 443.242 464.025 445.825C463.757 448.004 461.723 451.797 463.23 453.532C469.07 451.706 470.378 441.501 479.968 446.579C480.682 446.964 481.383 447.375 482.068 447.81C486.6 433.909 479.947 434.868 495.766 426.717C508.585 420.112 504.369 423.959 516.92 426.318C522.119 424.331 526.547 423.099 527.259 416.904C527.524 410.629 526.091 403.798 527.929 397.791C528.934 394.508 534.454 387.31 537.258 385.936C541.918 385.777 552.616 390.498 556.941 392.648C559.676 384.419 563.631 388.059 570.821 386.904C566.042 377.503 568.291 379.109 571.338 370.655L571.497 370.202C573.718 370.079 573.808 370.142 575.762 371.889L576.483 372.542C574.743 375.891 572.996 377.944 574.09 381.468C575.023 384.475 577.75 387.15 577.581 389.694C575.572 392.841 567.109 392.891 563.649 393.169C563.102 396.099 562.511 399.643 561.8 402.496C564.662 405.616 567.386 408.64 570.537 411.486C572.612 413.36 576.922 414.963 577.392 417.469C576.423 419.987 574.091 421.463 571.922 423.148C576.457 425.692 581.627 427.856 583.035 433.233C584.089 437.262 584.964 444.637 588.544 447.128C594.366 451.178 593.416 455.142 596.673 460.258C609.534 465.786 604.774 468.358 612.636 475.399C624.058 485.628 610.841 493.89 604.215 500.769C610.562 502.372 613.521 502.626 620.048 503.059C627.043 502.501 644.607 503.895 650.448 508.915C651.321 509.666 652.269 511.124 652.904 512.126L653.625 520.214C655.155 521.934 656.893 523.8 658.349 525.552C658.715 528.957 658.967 531.594 659.048 535.013C667.5 533.427 687.684 535.015 697.557 534.862C712.931 534.625 733.104 502.519 741.806 507.426C745.981 513.356 740.484 522.423 740.717 527.892C741.547 547.382 740.445 567.37 740.61 586.78C747.21 585.798 751.039 588.66 756.998 588.477C767.627 588.15 776.402 582.61 787.443 585.191C790.428 585.889 792.533 585.475 795.648 587.051C799.721 591.92 803.085 598.913 806.696 604.431C819.793 624.486 830.773 645.445 843.167 665.921C847.664 673.349 836.832 679.267 834.434 684.487C832.646 688.377 832.811 694.771 831.211 699.608C833.402 708.476 833.129 709.545 828.695 717.564C827.312 723.464 828.473 728.493 825.842 732.405L823.664 736.762C824.911 739.591 827.119 743.541 827.679 746.246C828.643 757.173 835.63 758.485 824.938 766.708C822.082 777.942 819.787 778.082 812.288 786.206C807.326 791.581 804.149 801.649 807.872 808.483C810.662 813.602 819.994 816.41 816.727 822.325L816.37 822.882C809.899 828.022 807.134 835 804.552 842.551C806.736 850.238 812.081 863.036 817.461 869.11C818.746 869.48 820.157 869.895 821.387 870.401C830.053 873.965 827.034 885.328 824.683 891.541C828.884 904.93 823.478 899.991 815.062 908.403C811.893 911.57 809.635 917.171 806.286 920.598C801.35 925.647 795.812 927.87 791.92 933.979C795.857 935.308 801.433 937.936 800.363 943.199C798.86 950.588 790.211 954.725 784.449 958.72C783.075 961.738 787.416 966.381 787.614 971.913C788.299 978.264 785.453 984.62 781.454 989.424C780.383 991.012 776.222 994.093 774.385 994.385C771.455 994.851 753.88 997.21 752.289 995.977C744.779 990.159 737.227 986.069 729.804 980.357C727.012 978.209 724.201 972.812 720.803 970.794C713.1 965.872 707.082 965.542 701.223 957.655C696.675 951.532 698.574 943.918 694.583 938.569C691.07 933.863 679.138 932.58 675.274 929.882C669.17 925.62 661.427 920.922 655.54 916.508C651.55 913.515 646.333 905.619 641.361 903.044C637.006 900.788 630.862 902.536 626.344 900.519C623.768 899.369 620.591 896.332 618.093 895.208C613.14 892.978 608.111 890.839 603.161 888.613C599.125 886.798 592.26 882.235 588.622 880.882C582.181 878.486 578.265 879.762 571.367 875.859C563.691 871.516 560.304 865.956 552.849 861.645C549.236 859.556 542.968 857.522 539.905 855.593C534.755 852.35 532.12 849.783 526.415 846.695C519.02 842.692 510.616 838.553 503.733 833.908C499.285 830.905 495.904 823.841 492.419 819.804C491.195 818.03 483.889 813.329 483.334 811.815C478.96 799.894 466.632 800.601 458.846 792.313C458.138 791.56 455.624 785.505 454.902 784.071C453.132 780.557 450.918 777.318 448.939 773.909C447.545 771.44 446.533 768.522 444.973 766.023C444.106 764.634 438.466 761.435 437.914 760.66C432.18 752.613 441.524 740.594 442.832 732.312C443.56 727.697 442.936 725.022 441.825 721.213C439.603 713.596 433.574 709.739 429.114 703.627C426.548 700.112 426.714 695.312 424.827 691.732C419.038 680.746 411.02 677.619 410.419 664.154C406.314 659.547 398.272 653.027 394.947 647.741C392.889 644.468 393.622 632.241 391.532 628.132C390.097 625.132 387.917 623.257 386.133 620.504C381.269 612.999 373.533 610.853 367.349 605.634C367.387 605.666 367.469 598.352 367.446 597.223C367.357 593.036 366.501 588.952 365.253 584.949C363.559 578.818 357.045 574.462 354.086 569.47C347.551 558.445 341.705 546.477 337.036 534.548C335.832 531.473 335.387 525.88 334.157 523.177C329.685 513.35 326.173 516.977 328.265 505.285C322.271 498.585 321.151 496.196 319.387 487.557C317.648 486.093 315.153 484.277 313.308 482.852C313.051 480.113 313.168 477.092 313.194 474.319C308.459 468.895 309.293 464.492 308.302 457.484C298.748 448.368 299.264 444.602 292.411 434.42C289.631 430.288 279.069 425.551 276.33 419.131C273.279 411.979 269.197 405.334 265.69 398.461C264.741 396.778 265.283 392.92 263.351 389.304C258.928 381.028 253.606 375.41 247.516 368.5C245.388 365.99 243.866 360.463 240.359 357.516C230.778 349.464 221.042 349.363 213.165 338.796C209.981 340.59 208.994 341.055 205.542 342.228C199.607 339.77 199.792 337.251 194.719 333.415C190.966 330.577 184.488 327.545 181.359 323.803C180.805 323.14 180.611 319.306 181.412 317.829C183.039 314.409 186.746 315.134 190.018 313.856C195.048 311.891 194.595 306.981 194.888 302.68C195.844 288.664 181.466 291.2 177.177 281.426C174.941 276.332 181.86 273.652 183.68 270.246C184.894 263.561 172.835 261.265 170.285 254.61C167.633 247.684 170.378 239.114 172.917 232.69C175.911 225.115 179.057 220.544 186.342 217.396C189.515 211.813 192.2 211.632 196.154 207.354C198.001 205.356 199.8 199.733 202.416 197.954C209.459 193.164 210.775 193.669 216.444 187.011C222.289 185.519 224.948 184.066 230.248 187.614C232.523 191.813 232.067 195.642 232.127 200.453C232.669 201.943 233.068 207.772 232.437 208.963C227.638 218.039 210.452 210.334 221.438 227.357C221.42 230.196 220.973 234.697 222.748 236.795C227.827 237.467 230.543 230.865 236.076 230.933C242.896 231.017 247.423 236.656 253.657 238.031C256.261 238.605 261.065 237.57 263.903 237.595C264.866 237.604 266.374 237.684 267.002 238.397C270.295 242.173 271.37 247.469 273.704 251.822C275.849 255.823 278.872 259.86 282.182 262.958C286.697 262.905 290.038 264.025 294.284 263.883C299.248 261.398 298.443 252.401 302.142 248.648C304.155 246.605 309.903 244.519 311.249 242.022C314.317 236.328 310.39 232.205 313.961 226.691C315.148 224.858 316.957 222.927 318.355 221.111C318.396 218.942 318.42 213.957 318.863 212.066C320.493 205.1 326.019 204.896 327.826 196.621C328.608 193.043 328.679 186.142 330.51 183.415C331.515 181.917 334.995 181.655 336.859 181.419C338.884 177.52 351.434 160.557 355.497 159.182C371.656 153.713 392.024 146.307 408.597 140.686C411.653 139.649 420.148 136.566 421.97 134.927C432.232 125.693 443.284 118.202 453.525 109.083C458.781 104.006 462.823 97.0574 468.357 91.7083L468.681 91.4009ZM601.088 718.215C603.691 718.38 619.24 718.278 620.212 718.695C630.129 722.953 644.456 729.41 653.523 735.261C655.526 736.573 657.347 738.141 658.941 739.928C671.176 753.793 664.129 766.927 652.616 778.446C649.229 781.834 641.861 780.404 642.139 787.169C642.119 789.63 641.761 791.943 643.746 794.078C647.501 798.116 656.469 797.028 661.793 797.611C662.255 794.352 662.164 791.593 664.664 789.486C675.26 786.322 676.34 807.732 678.461 809.806C681.019 811.122 682.9 811.42 685.68 812.082C691.734 806.136 693.964 805.545 701.669 809.941C703.832 809.448 710.89 807.136 711.347 810.814C711.912 815.356 707.58 827.456 715.331 827.645C716.127 827.658 716.881 827.075 717.52 826.595C720.459 821.913 716.262 816.647 715.929 811.517C715.739 808.586 717.719 800.697 716.778 799.252C711.958 791.855 706.582 793.788 712.541 782.262C716.942 773.749 721.732 764.634 722.157 754.233C722.088 750.236 722.113 747.065 722.333 743.08C724.156 740.793 726.671 738.777 728.496 736.479C733.919 729.651 739.522 722.903 745.06 716.18C746.883 713.968 745.589 709.208 745.104 706.482C739.37 704.922 730.649 703.406 724.7 703.531C711.676 717.111 710.04 712.371 706.196 697.217C692.754 692.525 695.846 689.976 685.936 683.022C680.322 685.097 666.568 689.67 664.921 681.523C662.456 669.33 656.971 669.678 663.481 658.734C659.457 649.723 654.051 648.978 647.858 642.931C646.581 641.685 640.145 628.803 639.236 626.37C642.041 621.899 650.346 615.012 647.02 609.434C642.752 608.507 638.643 616.878 634.511 615.786C625.849 613.498 619.28 612.281 612.715 605.851C603.855 608.982 601.402 609.596 591.891 608.776C590.343 613.964 583.075 624.868 585.984 629.356C591.944 638.553 603.395 647.151 589.39 656.269C586.366 658.245 582.498 662.938 578.595 662.89C575.474 661.521 570.561 658.421 567.636 658.976C566.791 660.001 566.699 659.748 566.862 661.213C567.848 670.095 574.86 673.674 579.64 679.727C585.997 687.775 590.532 697.633 595.121 706.718C596.808 710.175 599.87 714.769 601.088 718.215ZM750.758 717.076C747.597 723.616 733.095 740.86 727.657 746.124C727.607 749.372 727.696 756.231 727.094 759.129C725.899 771.245 720.597 779.424 716.077 789.934C719.015 792.989 723.463 797.575 722.734 801.888C721.363 809.995 722.062 814.465 723.754 822.283C724.589 826.141 717.041 834.787 722.023 839.41C724.028 841.722 728.476 843.624 727.906 846.983C725.015 864.038 734.238 858.08 746.262 861.137C754.059 863.64 756.119 867.655 756.605 875.786C755.039 900.019 782.563 889.73 768.388 911.574C765.125 917.941 779.962 932.99 785.384 929.775C788.136 928.144 799.947 917.919 801.78 915.467C808.014 907.127 809.669 903.126 818.992 897.678C818.706 890.221 820.351 884.558 820.704 877.25C816.832 878.779 814.381 880.629 810.097 882.103C808.368 881.543 806.928 880.775 805.289 879.912C794.465 874.219 791 882.293 792.602 866.415C788.888 866.088 784.289 866.288 782.326 862.625C780.561 859.329 775.007 861.544 771.953 860.759C766.19 859.279 762.909 851.964 764.307 846.452C765.283 842.485 769.559 840.75 772.809 838.946C768.981 832.152 769.556 830.372 772.673 823.617C769.05 823.235 758.421 822.435 759.267 816.109C760.604 806.112 779.803 810.238 784.913 814.823C787.011 816.705 789.023 818.947 790.963 821.196C798.174 823.033 797.953 823.544 803.062 828.804C805.741 826.141 808.045 823.125 809.91 819.84C808.409 818.303 806.512 816.38 805.045 814.873C797.52 807.911 800.833 786.431 808.524 780.736C816.446 774.871 816.398 772.631 819.869 763.621C820.034 763.194 823.629 760.099 824.403 759.361C825.038 757.348 822.984 753.698 821.983 751.113C821.257 745.709 819.218 742.645 818.284 737.656C817.801 734.497 820.514 730.112 820.864 727.323C821.822 719.662 825.583 712.519 827.151 705.283L827.33 704.437C827.45 702.648 827.73 701.411 828.084 699.645C815.75 703.747 808.282 706.881 797.764 713.763C788.396 719.893 769.982 712.769 761.233 708.442C756.748 706.406 754.555 706.443 749.886 706.344C750.441 710.304 750.599 713.061 750.758 717.076ZM704.061 816.761C700.698 815.579 697.314 814.46 693.909 813.406C688.506 817.537 685.196 819.227 677.891 816.677C669.231 813.653 672.765 804.648 669.037 797.443L668.718 796.841C664.579 804.393 663.764 803.38 655.984 802.791C646.022 802.036 643.344 803.941 636.928 795.19C629.417 794.904 625.788 792.308 621.077 792.152C617.946 794.94 615.742 796.989 612.886 800.037C611.73 805.299 612.153 808.076 611.876 813.369C609.161 821.454 600.53 826.174 593.732 830.972C591.903 832.262 585.708 831.598 583.547 833.406C574.86 838.705 574.265 834.827 568.793 829.42C563.781 831.955 563.359 845.58 557.151 845.735C554.437 844.496 553.115 841.303 552.094 838.65C541.496 836.701 537.551 835.147 534.193 824.767C532.518 819.588 524.618 817.508 519.736 815.721C515.407 817.174 505.994 822.488 506.183 827.742C509.452 832.129 532.687 840.393 542.95 851.763C551.751 853.297 557.833 856.101 564.095 862.573C570.595 869.291 575.031 871.031 583.592 874.042L584.418 874.146C595.095 875.109 597.779 879.239 606.707 883.574C614.11 887.167 621.846 891.035 629.059 895.15C632.092 896.881 640.724 895.271 644.919 898.419C649.505 900.613 653.175 907.991 656.8 910.404C662.99 914.525 672.916 920.843 678.659 925.359C679.283 925.849 690.678 929.708 691.796 930.121C705.839 917.676 683.58 913.96 699.626 902.611C699.328 895.09 700.131 894.825 705.407 889.106C705.21 888.608 705.017 888.108 704.828 887.607C703.682 884.536 702.674 879.54 707.446 878.685C711.766 877.912 715.555 880.769 719.037 882.981C724.023 875.524 724.63 870.138 725.208 861.619C721.663 855.045 721.235 854.194 722.209 846.829C716.305 841.455 715.6 841.366 715.351 833.46C704.54 830.831 704.414 827.099 704.061 816.761ZM532.267 421.22C525.554 434.21 514.562 431.178 503.18 428.366C499.028 431.728 494.822 433.542 491.031 436.01C487.837 438.09 489.76 454.289 481.59 452.92C479.39 452.74 476.71 451.163 474.902 449.982C473.85 451.374 472.688 453.042 471.395 454.218C469.964 455.518 462.091 459.929 461.83 461.459C460.246 470.766 466.926 482.091 471.2 490.088C472.625 492.755 473.865 495.106 475.991 497.055C477.186 498.08 479.458 496.431 480.41 495.873L482.94 494.405C485.352 494.782 488.859 495.646 490.55 493.817C497.013 486.821 492.356 482.46 500.495 473.673C505.295 473.057 506.85 473.1 511.705 473.358C513.168 468.057 513.924 461.953 518.647 458.799C524.519 454.877 537.853 457.444 536.136 466.307C535.681 468.513 530.134 475.499 528.155 477.7C526.726 477.546 526.516 477.153 525.391 476.219C523.224 471.082 530.659 469.575 529.856 464.303C527.017 460.556 524.186 462.036 520.896 464.41C515.901 467.787 518.425 479.165 512.157 480.581C509.817 481.11 504.78 476.568 502.796 479.902C495.735 491.768 504.586 501.529 484.601 500.285C475.874 505.822 473.72 504.792 468.082 495.279C462.99 486.687 457.475 476.891 456.358 466.839C455.89 462.621 460.028 448.595 456.459 447.545C454.546 448.501 455.243 447.83 454.132 449.452C453.271 455.159 457.19 469.305 448.739 470.199C443.283 467.88 441.814 458.2 436.346 452.89C433.819 454.659 431.936 455.968 429.252 457.507L420.656 454.324C409.769 457.585 402.411 463.236 394.231 452.17C392.661 453.511 390.862 454.973 389.416 456.415C393.678 463.004 394.06 463.843 394.142 471.635C396.326 473.651 397.162 473.842 399.409 475.269C405.467 479.119 430.062 488.421 419.665 497.84C417.32 499.964 414.389 500.006 411.486 500.89C408.367 505.368 405.66 510.12 403.399 515.088C406.96 516.64 408.891 517.19 411.657 519.933C416.844 535.997 410.482 536.679 409.313 551.547C411.037 552.956 412.478 554.264 414.434 555.333L415.159 555.141C420.877 553.593 422.56 551.028 427.076 549.361C431.631 547.679 440.648 552.037 445.304 553.239C448.728 554.124 452.246 554.514 455.677 555.285C456.251 553.688 457.254 550.854 458.405 549.389C466.389 539.221 479.165 527.193 490.072 520.291C494.33 517.595 501.068 522.478 504.647 522.23C506.713 522.088 506.854 517.786 509.814 516.377C512.873 514.921 515.627 515.515 516.905 512.361C517.591 510.667 518.258 507.271 519.073 506.113C521.753 502.307 526.558 501.678 527.266 496.537C527.718 493.259 523.409 486.987 524.907 484.53C534.797 483.467 532.478 497.93 531.033 503.707C532.647 506.079 536.095 510.875 536.72 513.397C538.705 521.403 541.845 529.118 544.281 536.894C553.007 541.132 551.7 544.183 549.78 553.146C551.834 556.696 555.544 560.003 555.32 563.18C552.207 570.204 536.252 576.018 537.441 583.551C541.019 588.819 552.37 583.458 557.33 585.967C560.256 587.447 560.914 592.99 565.053 592.142C569.133 588.782 565.567 577.037 569.975 574.831C581.388 569.118 585.831 579.795 586.73 587.731C588.782 590.093 590.636 591.789 592.591 593.948C593.214 597.425 593.804 600.745 594.283 604.246C610.071 602.601 611.099 595.248 622.051 606.766C622.447 607.182 632.402 609.505 634.795 610.402C638.137 608.567 638.753 607.677 641.452 605.881C646.998 602.193 649.061 602.469 653.759 597.419C653.769 595.102 653.002 589.403 654.576 587.805C659.568 582.737 690.897 587.627 698.034 582.789C699.707 581.655 700.59 579.99 700.893 578.014C702.117 570.024 700.016 566.09 707.331 560.259C716.998 552.553 727.768 546.58 735.136 536.252C735.202 533.689 735.273 529.23 735.79 526.789C736.777 522.125 738.075 518.93 738.408 514.093C737.402 513.833 737.692 513.685 736.68 514.373C724.894 522.382 716.092 538.894 700.388 539.077C690.053 539.198 680.198 539.165 669.933 539.175C665.821 539.179 656.766 539.799 653.923 537.229C652.942 534.518 653.416 531.442 653.602 528.487C651.678 526.746 650.499 525.759 648.856 523.713C648.25 520.254 648.306 513.74 645.84 512.618C639.728 509.839 629.711 509.125 622.905 508.323C621.588 508.168 617.341 507.958 616.631 507.662C611.46 507.464 599.522 508.38 597.494 503.371C597.82 495.236 610.265 490.825 610.431 483.157C610.448 482.383 606.285 477.389 605.381 476.309C603.459 474.012 602.857 472.636 601.762 469.63C591.852 465.526 590.145 463.087 587.193 452.997C579.465 445.822 579.354 443.01 577.498 432.941C574.163 431.361 572.824 430.694 569.779 428.623C568.415 424.946 568.394 420.131 567.255 417.066C565.928 413.495 558.797 408.135 556.057 404.616C555.833 393.528 548.629 396.255 538.867 392.77C535.85 395.867 534 397.993 532.02 401.807C532.376 408.813 532.825 414.024 532.267 421.22ZM329.723 397.054C335.183 399.579 334.165 403.75 334.566 408.857L335.129 409.215C339.288 408.347 341.33 405.435 344.621 402.986C346.904 403.537 349.349 404.303 351.623 404.961C357.082 401.894 357.198 401.157 360.42 395.619L359.037 393.182C349.925 377.402 348.622 359.286 336.459 345.126C335.457 343.959 330.148 341.574 328.267 340.275L327.82 339.96C327.205 338.753 326.407 336.364 325.978 334.973C323.44 326.74 314.368 324.019 311.525 314.749C308.982 306.456 314.948 295.672 318.723 288.343C302.469 278.239 306.652 274.509 313.041 258.579L312.573 256.96C312.053 254.46 311.798 252.004 310.386 249.953L309.377 249.455C302.808 252.454 307.558 264.256 294.211 271.993C272.141 263.311 285.116 283.349 283.506 289.731C279.298 306.416 270.59 302.553 286.339 321.369C287.379 327.728 287.434 336.881 279.455 338.088C270.409 339.456 277.274 348.742 281.032 351.06C289.145 356.063 300.085 359.948 284.719 367.869C283.512 369.947 282.026 372.362 280.925 374.446C281.183 378.021 281.594 380.533 282.207 384.074C282.957 386.837 283.624 389.031 284.555 391.745C292.713 392.881 294.209 394.061 296.016 402.515C298.303 401.116 302.381 397.701 304.211 395.682C313.493 385.444 316.474 397.633 323.532 397.597C326.267 397.074 326.952 396.977 329.723 397.054ZM329.3 401.59C327.101 400.933 326.825 400.955 324.579 401.456C319.633 408.586 314.913 396.589 313.013 396.467C300.818 395.687 298.54 424.289 287.535 397.635C284.206 397.264 282.871 397.026 279.611 396.174C276.928 390.314 276.152 384.867 276.625 378.501C276.039 377.295 275.354 375.278 274.14 375.219C264.147 374.736 265.281 381.863 269.062 388.264C269.554 389.099 269.535 394.596 270.167 395.916C275.566 403.222 279.504 412.511 284.257 419.89C286.213 422.927 294.646 426.818 297.153 430.024C301.611 434.703 303.148 441.624 306.211 447.17C308.314 450.98 312.119 453.289 314.41 456.919C314.613 460.594 314.948 464.797 315.004 468.435C316.626 467.28 322.487 462.716 323.699 462.271C331.588 459.371 335.146 460.426 337.046 450.869C338.467 443.724 342.352 438.711 348.051 434.248C350.848 431.989 354.251 428.22 357.305 426.2C360.929 425.75 366.587 424.814 369.654 427.17C372.175 429.106 372.266 433.072 373.979 435.202C376.547 438.394 382.454 440.814 384.442 444.37C385.304 445.911 386.097 449.501 387 451.505C397.547 446.795 390.684 443.854 406.141 441.015C404.889 437.731 403.176 433.25 401.117 430.4C399.805 429.989 396.763 428.98 395.229 429.011C389.364 429.128 387.001 434.978 382.06 428.801C378.301 424.102 376.27 420.918 373.14 416.235C371.615 413.953 372.504 407.203 372.669 404.917C369.046 398.078 363.786 390.387 368.052 382.644C365.77 380.425 361.691 375.851 358.696 375.59C356.979 377.904 363.772 389.514 364.82 393.267L365.143 394.356C365.754 396.093 366.4 397.852 365.343 399.748C362.977 403.994 357.12 409.309 352.686 411.213C350.842 412.005 347.154 410.838 345.301 410.306C341.929 412.662 338.492 415.571 334.027 414.673C332.44 414.353 331.062 413.375 330.237 411.981C328.604 409.245 328.901 404.705 329.3 401.59ZM765.925 901.966C752.059 888.007 754.446 895.145 751.232 876.532C750.815 874.636 750.453 872.638 750.075 870.725C748.165 868.778 747 867.92 744.774 866.335C740.822 864.427 736.986 864.703 732.796 865.72C726.975 867.131 729.065 872.656 728.01 876.904C725.162 888.362 720.533 891.182 710.575 884.845C711.818 892.701 706.698 893.723 705.291 901.203L704.507 905.171C702.509 907.168 699.276 910.113 697.548 912.03C703.955 921.064 705.37 924.86 696.477 932.576C697.363 933.401 700.527 936.313 700.912 937.167C705.859 948.129 701.383 953.644 714.538 960.09C730.495 949.55 722.269 946.994 731.768 933.326C734.606 929.243 740.291 926.608 743.562 922.618C744.085 918.294 744.36 912.278 746.098 908.528C753.77 903.585 758.022 902.942 762.673 911.525C763.838 908.323 765.001 905.249 765.925 901.966ZM534.843 661.322C539.175 671.301 547.621 685.38 544.58 697.358C542.748 704.572 531.354 708.259 529.026 711.259C522.306 719.917 520.057 716.25 514.465 720.376C513.132 723.725 519.205 727.195 520.403 730.462C521.661 733.894 520.403 737.128 520.269 740.642C519.785 753.417 520.942 759.729 505.606 758.56C505.023 762.92 501.805 778.681 504.525 781.966C504.918 782.44 505.591 782.369 506.15 782.288C506.335 782.262 507.695 781.865 507.812 781.832C510.105 781.195 511.718 781.116 513.806 782.417C515.036 783.184 525.521 801.451 526.598 803.832C526.249 806.365 525.944 808.905 525.683 811.448C542.734 816.847 535.138 825.393 547.362 832.062C549.62 832.036 552.649 831.921 554.847 831.994C556.116 833.47 557.338 834.839 558.473 836.428C560.217 831.5 562.243 824.75 567.291 822.248C571.874 819.976 575.179 825.668 576.424 829.183C581.903 827.527 584.491 826.409 590.296 826.376C596.825 820.111 606.671 817.569 607.429 808.851C606.295 799.7 611.546 794.733 611.191 791.641C609.543 790.573 609.128 790.954 606.791 790.876C600.774 793.951 593.406 795.569 587.431 799.158C585.268 800.457 582.488 797.959 581.875 795.953C579.775 789.633 579.577 782.509 578.175 775.886C580.196 772.063 583.253 767.163 581.277 762.806C576.862 753.065 572.794 752.702 573.532 740.488C572.637 739.322 568.157 733.75 567.968 733.101C566.233 727.165 564.958 712.954 568.927 708.121C575.594 704.998 584.589 721.913 593.297 719.328C595.095 716.57 590.659 711.649 589.407 708.682C586.318 701.362 582.761 694.184 578.142 687.696C567.852 673.457 565.11 678.106 560.902 659.529C552.632 661.821 549.447 661.062 541.734 657.615C538.867 658.906 537.466 659.475 534.843 661.322ZM452.775 369.545C447.918 349.031 471.991 366.182 477.667 360.829C479.862 358.759 479.059 344.948 479.701 340.486L479.841 339.551C480.372 335.826 481.263 334.093 482.727 330.654C477.792 318.586 472.962 330.182 467.598 329.021C454.15 326.109 457.632 330.042 447.598 333.28C441.614 330.835 440.356 327.208 435.335 323.32C430.125 319.287 427.492 325.58 423.462 325.64C413.507 326.492 411.843 309.065 404.955 306.599C395.824 303.329 390.808 308.057 382.725 298.889C380.711 296.603 372.379 291.742 369.022 292.065C361.747 297.196 371.865 314.187 375.264 319.282C381.892 321.296 388.754 320.127 392.695 326.251C394.474 329.85 398.137 336.183 395.931 340.064C394.305 341.859 390.37 344.555 389.383 345.948C386.306 350.292 385.425 358.171 378.804 359.23C375.146 359.751 371.977 355.152 368.078 359.143C366.435 360.824 363.236 366.738 363.733 368.688C365.002 373.664 373.34 377.268 373.081 383.828C372.948 387.219 372.146 389.548 371.686 392.726C378.162 401.108 378.151 403.081 377.417 413.659C383.005 417.883 382.813 418.373 385.978 424.361C397.785 421.855 408.76 425.703 411.944 438.129C414.398 447.708 400.346 447.073 400.051 449.884C404.937 457.129 415.225 450.078 421.427 449.127C424.047 448.725 426.494 451.279 428.629 450.902C439.988 437.323 443.852 460.459 449.126 462.244C453.043 456.89 441.448 446.051 456.699 441.33C456.863 434.236 456.553 433.223 460.352 427.229C452.949 418.494 454.053 416.984 450.281 406.564C448.512 401.679 443.259 397.429 444.064 390.213C445.147 380.519 452.769 381.919 453.138 373.625L452.775 369.545ZM487.418 580.31C482.509 578.895 481.661 578.745 477.818 575.147C473.895 578.032 467.559 583.292 462.478 583.153C459.238 583.064 456.724 580.382 454.096 582.264C455.189 583.859 457.785 586.992 457.233 588.849C455.472 594.783 443.471 598.72 438.02 597.162C436.294 596.668 432.576 594.684 430.914 593.799C431.079 605.411 432.938 606.439 438.32 616.548C449.387 621.621 443.074 629.981 454.368 638.012C463.192 644.286 472.845 636.245 475.707 645.247C478.688 654.624 479.151 664.207 479.049 673.805C481.501 671.802 496.128 658.372 497.352 656.314C505.261 643.007 499.013 639.618 518.125 639.994C526.859 639.822 544.115 638.947 544.052 651.245L544.059 651.979C544.057 652.126 544.055 652.273 544.053 652.42C557.008 655.448 560.669 653.859 573.876 652.094C576.763 653.802 577.448 654.431 579.904 656.646C583.085 653.968 589.028 649.747 589.295 645.593C589.725 638.902 581.207 635.388 580.094 628.79C578.25 617.863 590.316 608.462 587.528 598.613C586.763 595.91 583.139 592.459 581.658 589.987C580.227 587.597 580.564 583.203 578.739 580.983C577.812 579.855 577.426 580.032 576.095 579.796C570.271 582.201 575.02 594.099 566.791 597.873C566.088 598.188 565.377 598.482 564.657 598.755C558.567 597.069 557.541 596.29 554.051 590.985C548.152 590.965 542.142 591.303 536.43 589.64C533.63 588.825 531.448 585.44 529.451 584.571C521.688 581.193 509.591 572.789 501.253 573.531C496.319 575.613 492.015 578.818 487.418 580.31ZM493.408 524.748C483.156 531.241 475.274 539.764 466.926 548.376C464.813 550.557 460.943 557.918 458.884 558.702C451.776 561.409 437.43 557.069 431.489 553.627C427.766 555.466 422.963 558.262 419.72 560.842C421.659 566.829 425.117 574.348 427.928 579.972C427.34 581.883 426.591 583.547 427.005 585.47C428.866 588.787 435.239 590.161 439.781 592.367C443.359 591.174 447.553 590.027 450.417 587.554C446.666 575.475 450.419 574.918 460.736 578.657C470.591 576.636 474.735 568.095 484.308 573.278C485.208 573.756 486.105 574.241 486.999 574.733C510.618 561.047 511.704 571.898 532.253 579.488C539.048 568.672 539.34 569.767 549.09 563.184C544.892 555.298 541.842 553.792 546.84 545.392C545.267 544.27 540.565 541.04 539.708 539.729C533.246 529.841 536.113 516.349 525.801 508.285C520.184 513.003 523.297 519.911 512.505 520.445C511.367 520.501 506.738 529.128 503.637 527.883C500.195 527.614 496.631 526.203 493.408 524.748ZM416.421 493.758C406.971 483.297 394.941 483.58 389.504 472.344C388.881 471.056 388.977 466.545 389.015 464.877C384.338 459.465 381.748 451.044 377.545 444.336C372.173 441.782 370.935 440.048 367.76 435.056C366.252 432.683 365.872 431.402 362.895 431.022C356.217 432.834 353.574 439.335 344.87 444.042C343.563 449.204 340.957 461.602 336.111 463.907C330.985 466.346 325.824 466.891 321.271 471.416C320.565 473.97 318.868 480.131 320.734 481.581C326.531 486.085 325.377 489.953 327.837 496.205C328.441 497.74 332.955 500.433 333.215 502.615C334.187 505.957 331.999 510.058 333.472 513.015C335.136 516.353 339.118 518.117 340.606 521.952C341.523 524.316 340.761 528.687 341.292 530.41C344.364 540.383 348.973 553.239 355.925 560.936C356.545 554.484 358.379 544.892 367.314 546.017C368.953 546.213 370.446 547.053 371.465 548.351C374.462 552.174 372.225 556.183 370.024 559.618C371.089 562.901 371.817 564.021 370.997 567.403L371.161 568.908C372.627 570.032 374.86 569.93 376.586 569.757C383.98 569.015 388.345 562.201 390.704 555.821C391.4 553.94 392.263 552.117 394.263 551.245C397.085 550.233 399.93 549.398 402.776 548.359C403.832 545.903 404.637 544.006 405.26 541.396C407.113 533.632 410.125 530.015 406.169 522.237C403.053 520.759 398.217 519.167 396.921 516.228C396.825 510.375 403.959 501.737 407.462 496.902C408.939 494.865 413.876 494.193 416.421 493.758ZM439.045 707.105C442.432 706.863 450.749 697.503 456.486 694.047C459.588 694.533 461.639 694.865 464.687 695.673C467.835 693.658 474.4 686.529 474.755 683.032C475.708 673.662 471.607 672.991 474.012 662.11C471.049 655.774 470.758 652.909 469.516 645.884C449.399 647.565 446.363 642.111 439.861 625.801C438.655 622.776 432.594 619.996 431.106 616.642C425.77 609.238 426.811 602.211 425.056 594.038C423.711 587.773 421.327 587.874 421.792 580.329C415.205 571.461 414.616 554.239 399.963 555.154C398.242 555.619 397.247 555.765 396.379 557.56C392.848 564.861 387.307 572.174 379.559 575.25C376.888 576.311 375.819 575.794 373.166 575.01C372.006 577.574 371.145 579.512 369.703 581.963C372.813 590.498 374.791 593.958 373.894 603.114C379.677 606.31 384.604 609.651 389.235 614.381C394.416 619.674 393.214 610.732 399.099 613.216C402.048 614.46 404.279 616.355 406.645 618.459C414.359 625.396 415.485 624.779 414.661 635.237C423.446 646.885 424.935 646.015 418.566 660.674C419.493 665.97 419.565 665.587 416.669 669.89C418.814 673.357 421.196 677.077 423.757 680.24C430.778 688.915 432.549 697.734 439.045 707.105ZM363.404 562.776L359.726 567.274C361.515 570.419 362.562 572.373 365.08 575.062L366.127 575.143C366.8 573.137 366.684 568.931 366.73 566.637C365.675 565.152 364.902 563.77 363.404 562.776ZM182.187 280.346C190.53 285.046 197.59 288.103 200.355 298.156C203.761 310.538 196.929 317.871 186.1 321.094C189.164 324.408 194.233 326.072 197.973 328.914C201.036 331.242 204.31 334.252 207.472 336.284C210.275 335.148 211.896 332.669 215.301 330.89C217.599 323.701 219.336 317.471 226.809 313.791C232.138 311.167 237.933 310.528 240.492 304.042C241.331 301.918 241.516 298.154 242.378 295.64C253.031 286.202 262.069 313.261 271.581 314.635C273.284 314.155 272.773 314.548 273.904 313.414C273.859 308.5 272.302 305.209 273.085 300.461C273.687 296.807 277.682 291.261 277.573 288.128C277.263 279.213 269.813 277.538 278.26 268.835L278.947 268.137C270.003 258.776 268.593 256.557 263.753 243.881C260.133 244.022 253.397 244.623 250.367 243.631C245.562 242.013 241.056 236.592 235.471 237.688C229.39 238.881 230.337 245.269 222.476 244.346C212.206 243.139 216.863 232.379 214.874 228.555C206.064 224.714 197.14 235.776 185.146 224.732C180.751 231.168 174.237 241.364 175.237 250.052C176.31 259.376 195.305 261.957 188.846 273.444C188.013 274.925 184.026 277.873 182.187 280.346ZM285.059 361.598C275.498 355.977 267.751 348.386 271.678 336.42C273.216 331.734 289.194 330.891 277.912 318.952C258.457 322.968 258.796 307.52 247.456 299.938C243.43 313.189 242.493 314.314 229.77 319.231C224.276 321.354 220.471 330.988 218.236 336.552C226.136 343.813 235.675 345.821 242.821 351.765C250.15 357.86 252.078 368.37 262.014 374.526C263.594 373.987 263.576 373.128 264.685 371.204C269.413 367.706 272.185 368.555 277.961 369.155C280.396 365.164 280.975 364.225 285.059 361.598ZM224.231 191.46C217.737 193.327 209.975 200.531 204.657 204.845C204.293 205.14 202.312 210.554 201.259 211.177C198.414 215.01 192.558 217.771 191.875 221.751C192.711 223.271 195.09 223.167 196.745 223.315C218.264 224.974 206.238 209.316 224.242 207.803L226.292 207.625C227.151 203.407 227.384 195.7 225.728 191.763C225.112 191.597 224.848 191.461 224.231 191.46ZM805.692 872.521C809.142 874.077 812.526 876.031 816.233 873.897C815.378 871.326 809.111 868.445 808.081 866.676C803.277 858.425 796.77 845.406 800.521 835.902L800.796 835.196C800.853 835.056 800.911 834.916 800.969 834.776C794.702 827.831 794.868 829.539 786.432 826.776C784.1 822.234 782.866 818.233 777.257 817.771L777.451 818.162C780.535 824.242 784.21 824.228 776.899 829.796C778.352 834.416 779.701 836.626 777.621 841.127C776.309 845.021 768.74 845.937 770.123 850.487C770.574 851.969 771.628 854.105 772.969 854.55C779.751 856.804 783.823 851.109 786.63 860.446C804.675 860.038 796.426 867.634 798.18 872.297C801.115 872.738 803.372 872.019 805.692 872.521ZM752.245 910.956C748.965 914.189 750.645 918.662 749.218 923.246C747.351 929.246 739.424 932.642 736.448 936.612C728.537 947.168 732.663 954.773 720.388 962.897C729.851 970.678 735.695 979.705 746.965 985.048C749.209 986.112 752.803 989.142 754.829 990.784L763.889 989.88C769.435 989.668 773.958 989.363 777.908 984.925C786.327 975.467 775.791 963.289 780.677 954.445C782.577 951.006 794.43 949.16 793.916 943.277C793.889 941.946 793.149 940.878 792.049 940.244C786.14 936.839 776.285 934.446 770.971 929.784C767.1 926.389 760.54 914.608 755.42 911.212C755.205 911.069 752.703 910.954 752.245 910.956ZM619.432 723.122C611.567 723.596 605.082 723.332 597.203 722.896C586.646 729.624 580.605 719.394 572.021 715.137C571.93 718.929 570.894 728.916 573.362 731.979C574.529 733.426 578.747 734.845 578.458 738.119C576.189 752.293 592.537 758.933 585.159 772.807C584.648 773.788 584.133 774.766 583.612 775.741C584.274 781.581 585.127 787.939 585.635 793.751C592.804 790.028 603.909 784.44 612.375 786.511C613.5 786.787 616.467 788.19 617.61 788.727C628.041 786.07 627.302 788.433 636.891 790.531L636.243 783.209C637.187 781.774 638.204 780.145 639.203 778.767C642.199 776.489 645.875 776.052 648.149 774.384C657.426 767.584 664.352 755.658 656.524 744.869C652.44 739.114 645.911 738.148 639.856 734.9C632.895 731.167 626.144 727.285 619.432 723.122ZM507.589 645.808C506.392 662.202 491.164 669.803 480.806 680.082C478.865 688.335 477.549 689.503 472.713 695.913C471.543 697.463 466.651 716.964 466.882 717.806C470.551 719.099 479.831 710.416 482.955 716.857C486.581 724.333 479.001 738.176 481.252 745.785C482.03 748.414 488.207 751.85 490.836 752.821C493.114 753.663 495.441 753.426 497.961 753.011C510.412 751.214 516.484 758.62 515.336 740.594C515.196 738.388 515.492 734.895 515.596 732.586C513.248 729.09 509.58 725.963 509.509 721.507C509.397 714.443 515.956 714.337 520.694 713.547C523.913 710.242 526.548 706.977 530.312 704.219C534.736 700.978 537.842 697.243 541.28 693.016C539.471 687.152 537.628 681.449 535.533 675.825C533.898 671.434 527.692 662.687 529.315 658.686C530.84 654.924 538.858 656.162 538.916 649.415C536.335 642.965 525.009 644.423 519.498 644.723C515.559 644.965 511.46 645.121 507.589 645.808ZM466.012 701.796C463.531 701.316 460.221 700.776 457.842 700.135C451.575 703.938 449.045 707.218 444.417 712.86C449.3 723.938 450.234 729.42 446.178 741.457C444.953 745.091 440.668 752.638 442.163 756.228C443.114 758.511 448.313 759.806 449.866 762.27C451.667 765.127 451.923 768.556 453.133 771.359C454.211 773.855 458.105 777.099 459.82 779.612C461.169 781.59 462.352 786.906 463.617 788.163C468.483 793.001 476.956 795.664 482.589 799.808C484.81 801.442 485.386 804.872 486.964 806.876C487.689 807.796 490.449 810.289 491.456 811.162C496.09 815.183 498.61 817.85 501.837 823.156C504.719 818.654 507.128 816.354 511.718 813.519L512.293 813.198C515.12 811.654 519.255 810.579 520.861 809.258C522.224 803.966 512.876 793.223 511.5 787.578C511.515 787.638 510.887 786.116 510.904 786.156C505.852 788.011 500.574 789.11 498.637 782.328C496.611 775.229 498.829 765.453 500.143 758.305C494.709 759.127 490.294 760.55 485.929 756.912C481.372 753.113 476.083 749.593 475.448 743.236C474.517 733.926 477.927 728.041 480.193 720.221C466.036 725.55 455.219 727.201 463.884 708.076C464.814 706.022 465.516 704 466.012 701.796ZM416.477 645.844C410.155 638.741 407.183 637.805 408.501 627.574C404.765 624.196 400.995 619.164 395.93 619.55L395.096 620.322C395.849 622.412 399.709 624.871 399.934 625.774C401.794 633.209 405.576 644.117 406.144 651.556C408.13 654.387 409.491 656.765 412.643 658.306C414.101 658.264 413.558 658.548 414.551 657.842C416.543 652.93 416.821 651.31 416.477 645.844ZM734.81 544.868C729.689 550.216 726.576 553.221 720.655 557.833C717.193 560.53 710.704 565.145 707.812 567.949C705.499 590.088 700.434 589.901 679.465 589.623C672.926 589.536 665.27 590.583 658.561 590.418C657.937 600.655 658.143 598.807 653.006 606.426C652.608 616.976 652.607 618.518 645.461 626.377C646.444 627.767 647.585 629.314 648.261 630.758C649.198 632.759 650.289 637.891 651.693 639.295C657.045 644.644 671.007 649.731 668.975 659.407C668.442 661.944 666.464 663.964 664.785 666.225C665.036 666.629 667.001 669.855 667.094 669.956C669.241 672.261 669.855 680.871 673.086 681.095C676.969 681.363 682.216 678.247 685.951 677.141C693.308 679.929 693.375 682.154 698.35 687.541C711.213 691.689 713.552 690.952 714.11 705.876C716.708 703.514 719.603 700.75 722.388 698.684C730.776 697.426 738.008 700.028 746.261 700.973C750.084 701.411 756.664 700.659 760.107 701.769C770.597 705.151 779.96 711.588 791.755 710.086C795.827 709.567 798.967 705.445 802.316 703.774C810.044 699.918 820.326 696.38 827.701 692.175C826.727 677.911 832.464 680.277 837.24 669.314C834.412 660.343 826.155 649.343 821.589 640.454C816.421 630.391 808.989 620.009 803.221 610.09C799.68 604.002 796.461 596.279 792.929 590.715C788.093 590.484 781.611 589.073 777.266 589.264C770.236 589.574 762.043 593.619 754.815 593.929C752.06 594.05 747.742 592.165 745.026 592.131C741.604 592.088 738.917 594.618 735.992 591.616C735.339 576.143 735.494 560.554 734.81 544.868Z"/><defs><linearGradient id="gradient_0" gradientUnits="userSpaceOnUse" x1="736.92096" y1="754.14508" x2="735.39996" y2="707.34448"><stop offset="0" stop-color="#BDBCBE"/><stop offset="1" stop-color="#EAE8E7"/></linearGradient></defs><path fill="url(#gradient_0)" transform="matrix(1.38506 0 0 1.38574 -222.994 0)" d="M745.104 706.482C746.587 706.207 748.352 706.322 749.886 706.344C750.441 710.304 750.599 713.061 750.758 717.076C747.597 723.616 733.095 740.86 727.657 746.124C727.607 749.372 727.696 756.231 727.094 759.129C727.087 757.607 727.329 756.027 726.478 754.903C724.347 754.463 724.897 755.105 722.157 754.233C722.088 750.236 722.113 747.065 722.333 743.08C724.156 740.793 726.671 738.777 728.496 736.479C733.919 729.651 739.522 722.903 745.06 716.18C746.883 713.968 745.589 709.208 745.104 706.482Z"/><path fill="#D4D2D3" transform="matrix(1.38506 0 0 1.38574 -222.994 0)" d="M365.143 394.356C365.754 396.093 366.4 397.852 365.343 399.748C362.977 403.994 357.12 409.309 352.686 411.213C350.842 412.005 347.154 410.838 345.301 410.306C341.929 412.662 338.492 415.571 334.027 414.673C332.44 414.353 331.062 413.375 330.237 411.981C328.604 409.245 328.901 404.705 329.3 401.59C327.101 400.933 326.825 400.955 324.579 401.456C323.298 399.637 323.7 400.161 323.532 397.597C326.267 397.074 326.952 396.977 329.723 397.054C335.183 399.579 334.165 403.75 334.566 408.857L335.129 409.215C339.288 408.347 341.33 405.435 344.621 402.986C346.904 403.537 349.349 404.303 351.623 404.961C357.082 401.894 357.198 401.157 360.42 395.619C362.748 395.954 363.807 396.469 365.143 394.356Z"/><path fill="#E8E7E7" transform="matrix(1.38506 0 0 1.38574 -222.994 0)" d="M323.532 397.597C326.267 397.074 326.952 396.977 329.723 397.054C329.085 398.949 329.223 398.956 329.701 400.833L329.3 401.59C327.101 400.933 326.825 400.955 324.579 401.456C323.298 399.637 323.7 400.161 323.532 397.597Z"/><defs><linearGradient id="gradient_1" gradientUnits="userSpaceOnUse" x1="834.26929" y1="728.85822" x2="819.83441" y2="721.46338"><stop offset="0" stop-color="#A8A7AA"/><stop offset="1" stop-color="#D8D6D6"/></linearGradient></defs><path fill="url(#gradient_1)" transform="matrix(1.38506 0 0 1.38574 -222.994 0)" d="M828.084 699.645L828.797 699.032C829.879 699.762 829.753 700.097 830.407 701.477C831.048 700.705 830.894 700.678 831.211 699.608C833.402 708.476 833.129 709.545 828.695 717.564C827.312 723.464 828.473 728.493 825.842 732.405L823.664 736.762C824.911 739.591 827.119 743.541 827.679 746.246C824.737 748.063 823.897 748.24 821.983 751.113C821.257 745.709 819.218 742.645 818.284 737.656C817.801 734.497 820.514 730.112 820.864 727.323C821.822 719.662 825.583 712.519 827.151 705.283L827.33 704.437C827.45 702.648 827.73 701.411 828.084 699.645Z"/><path fill="#D4D2D3" transform="matrix(1.38506 0 0 1.38574 -222.994 0)" d="M825.842 732.405C825.849 731.21 825.641 730.773 825.195 729.664L826.339 729.312C824.736 725.588 821.677 722.735 824.482 718.871C826.586 718.751 827.051 718.879 828.695 717.564C827.312 723.464 828.473 728.493 825.842 732.405Z"/><path fill="#E8E7E7" transform="matrix(1.38506 0 0 1.38574 -222.994 0)" d="M828.084 699.645L828.797 699.032C829.879 699.762 829.753 700.097 830.407 701.477C830.085 703.406 830.344 704.132 829.224 705.199C828.019 704.949 828.421 705.107 827.33 704.437C827.45 702.648 827.73 701.411 828.084 699.645Z"/><path fill="#C0BEBF" transform="matrix(1.38506 0 0 1.38574 -222.994 0)" d="M746.262 861.137C754.059 863.64 756.119 867.655 756.605 875.786L751.232 876.532C750.815 874.636 750.453 872.638 750.075 870.725C748.165 868.778 747 867.92 744.774 866.335C744.296 864.214 745.162 863.195 746.262 861.137Z"/><path fill="#C0BEBF" transform="matrix(1.38506 0 0 1.38574 -222.994 0)" d="M392.695 326.251C394.474 329.85 398.137 336.183 395.931 340.064C392.952 339.501 392.13 340.683 389.842 338.241C390.21 336.27 388.515 332.533 387.761 330.523C388.874 329.035 391.109 327.269 392.695 326.251Z"/><path fill="#E8E7E7" transform="matrix(1.38506 0 0 1.38574 -222.994 0)" d="M452.775 369.545C455.108 369.048 454.476 368.817 456.262 369.644C457.996 372.03 457.549 374.346 455.902 376.552C454.534 377.099 455.222 377.07 453.766 376.55C453.371 375.278 453.487 375.464 453.438 374.078L453.138 373.625L452.775 369.545Z"/><path fill="#C0BEBF" transform="matrix(1.38506 0 0 1.38574 -222.994 0)" d="M230.248 187.614C232.523 191.813 232.067 195.642 232.127 200.453C228.93 196.704 228.051 192.105 230.248 187.614Z"/><path fill="#E8E7E7" transform="matrix(1.38506 0 0 1.38574 -222.994 0)" d="M359.037 393.182C359.948 391.948 359.833 391.943 361.269 391.471C362.962 391.976 363.371 392.331 364.82 393.267L365.143 394.356C363.807 396.469 362.748 395.954 360.42 395.619L359.037 393.182Z"/><path fill="#E8E7E7" transform="matrix(1.38506 0 0 1.38574 -222.994 0)" d="M312.573 256.96C316.021 256.933 316.334 256.744 318.477 259.472L317.724 262.44C316.318 261.678 314.298 259.707 313.041 258.579L312.573 256.96Z"/><path fill="#E8E7E7" transform="matrix(1.38506 0 0 1.38574 -222.994 0)" d="M816.37 822.882C814.952 822.75 814.905 822.733 813.555 822.272C812.203 820.505 811.375 819.035 811.53 816.757L812.025 816.513C813.652 818.728 814.95 820.28 816.727 822.325L816.37 822.882Z"/><path fill="#E8E7E7" transform="matrix(1.38506 0 0 1.38574 -222.994 0)" d="M606.791 790.876C609.38 788.351 613.246 789.572 616.32 790.258L616.288 790.534L613.362 791.198L613.238 791.679C615.282 792.319 618.926 792.425 621.077 792.152C617.946 794.94 615.742 796.989 612.886 800.037C611.73 805.299 612.153 808.076 611.876 813.369L608.405 812.829C607.272 811.628 607.621 810.959 607.429 808.851C606.295 799.7 611.546 794.733 611.191 791.641C609.543 790.573 609.128 790.954 606.791 790.876Z"/><path fill="#C0BEBF" transform="matrix(1.38506 0 0 1.38574 -222.994 0)" d="M734.81 544.868C734.786 542.54 734.832 542.267 735.362 539.979C736.839 538.723 736.087 538.866 737.584 538.86C738.499 541.628 737.892 587.33 736.251 591.055L735.992 591.616C735.339 576.143 735.494 560.554 734.81 544.868Z"/><path fill="#C0BEBF" transform="matrix(1.38506 0 0 1.38574 -222.994 0)" d="M763.428 813.66C769.681 813.224 771.565 812.718 773.424 818.803L773.105 819.226L772.403 818.583C768.619 817.797 764.076 820.455 762.236 816.889C762.5 815.183 762.407 815.129 763.428 813.66Z"/><path fill="#D4D2D3" transform="matrix(1.38506 0 0 1.38574 -222.994 0)" d="M539.112 44.058C539.382 41.5117 538.406 39.4622 539.002 37.2602C540.469 36.398 541.438 35.5905 543.104 35.5884C544.257 37.2736 542.951 42.7342 545.227 43.4924C548.268 50.2412 547.237 50.0153 548.407 56.5266C560.529 59.1219 561.755 58.6653 569.917 68.3135C571.984 68.4968 576.23 68.701 578.001 69.4313C586.799 73.0587 589.562 83.8468 588.57 92.2237C588.474 93.0317 588.369 93.8385 588.253 94.6439C591.385 97.3727 592.941 98.1533 596.882 99.5257C615.726 93.8076 609.708 115.006 608.412 125.009C608.4 125.098 620.022 132.825 621.568 134.129C643.093 124.364 633.823 128.719 654.874 134.515L658.556 131.636C665.628 125.994 671.678 130.803 676.39 119.236C680.276 116.251 691.224 120.565 695.851 121.69C696.304 121.8 700.59 125.247 701.47 125.915C704.792 126.343 706.903 126.564 710.25 126.657C715.763 123.361 720.139 121.466 726.46 119.963C736.554 122.711 756.115 131.329 763.213 138.879C764.822 138.622 769.561 137.676 770.575 138.907C774.876 144.129 764.522 155.749 761.879 160.39C754.345 173.616 744.669 185.685 737.177 198.837C735.476 201.823 742.702 204.978 745.029 204.073C749.004 203.301 753.714 200.74 757.341 203.237C759.113 204.481 760.727 205.935 762.148 207.568C764.47 210.227 766.486 213.664 768.554 216.6C770.738 219.703 774.634 222.593 775.988 225.979C776.737 227.852 775.05 229.74 773.569 230.724C772.099 228.491 771.693 228.189 769.39 227.199L769.524 226.481C756.501 215.035 764.221 204.918 744.054 210.821C740.653 209.912 737.36 208.635 734.235 207.014C732.122 205.9 730.123 204.737 729.412 202.389C730.213 193.671 747.448 172.125 752.975 164.19C757.268 158.017 761.335 151.689 765.167 145.22C754.651 140.938 745.918 133.255 735.242 129.524C731.93 128.367 729.062 127.395 725.973 125.674C719.54 127.909 714.5 130.917 708.301 133.241C701.454 132.01 697.597 131.496 692.998 125.943C687.887 125.532 685.625 125.154 680.825 123.51C673.766 131.801 676.713 132.477 664.68 133.859C653.849 143.261 648.576 138.444 636.921 133.515C629.346 135.283 618.649 147.211 613.695 134.583C602.463 131.644 596.576 125.847 605.01 115.569C604.997 111.581 604.426 108.024 603.724 104.125C599.742 105.007 596.096 105.742 591.998 104.298C581.209 100.497 584.256 92.3422 581.837 83.8872C581.222 81.7369 579.229 78.33 578.109 76.3352C572.955 75.6701 567.034 74.6377 563.543 70.542C559.461 65.7521 554.722 64.7214 548.98 62.8053C540.182 59.8696 542.877 52.251 539.472 44.8322L539.112 44.058Z"/><path fill="#D4D2D3" transform="matrix(1.38506 0 0 1.38574 -222.994 0)" d="M604.846 343.365C599.669 329.936 592.993 318.551 607.225 308.149C618.918 299.603 611.49 292.807 616.538 282.055C617.932 279.158 619.839 276.537 622.169 274.321C624.658 271.966 632.346 267.869 633.461 266.365C641.245 255.856 649.338 253.989 660.426 248.517C663.993 246.757 668.002 240.753 672.626 239.347C677.129 237.979 681.146 238.806 685.746 238.253C696.126 235.854 707.733 232.97 717.741 229.424C722.189 227.848 722.17 218.133 729.143 216.493C733.859 215.384 733.68 215.523 738.068 217.97C741.534 219.903 745.174 216.442 748.771 215.744C759.569 213.649 759.015 224.159 763.742 226.929C761.476 227.133 760.713 228.021 759.429 229.785C755.494 226.749 756.535 221.873 751.107 222.369C747.316 222.663 743.755 224.206 739.935 224.2C737.53 224.195 733.483 221.91 731.241 222.132C727.171 222.535 725.729 231.95 722.479 233.595C717.061 236.337 711.074 237.229 705.346 239.116C700.392 240.633 695.951 242.137 690.972 243.314C686.085 244.367 680.034 242.683 675.257 244.608C670.369 247.098 667.263 251.363 663.057 254.214C658.94 257.005 652.066 258.906 648.093 261.205C643.464 263.885 638.518 270.173 634.148 273.615C631.333 275.833 624.983 279.997 623.174 282.77C619.859 287.849 620.831 298.269 618.913 303.495C615.734 312.151 601.37 315.696 605.094 327.712C606.689 333.341 613.82 340.881 610.815 346.927C607.353 353.892 595.577 358.636 588.691 361.336C578.616 365.287 578.929 361.999 576.483 372.542L575.762 371.889C573.808 370.142 573.718 370.079 571.497 370.202C571.693 367.478 572.255 365.069 572.81 362.409C580.556 355.155 592.32 356.422 604.846 343.365Z"/><path fill="#C0BEBF" transform="matrix(1.38506 0 0 1.38574 -222.994 0)" d="M497.624 6.13857C504.042 6.51847 505.573 6.37347 510.197 11.1513L512.034 13.0335C515.561 13.0376 516.586 13.0244 520.087 13.7311C523.133 16.8721 523.589 18.598 525.793 22.2427C537.937 28.7756 542.88 27.5599 545.227 43.4924C542.951 42.7342 544.257 37.2736 543.104 35.5884C541.438 35.5905 540.469 36.398 539.002 37.2602C538.406 39.4622 539.382 41.5117 539.112 44.058C538.325 42.1583 537.524 36.1193 537.015 35.5006C533.766 31.5552 524.84 30.4315 520.898 25.7476C519.383 23.9465 518.375 21.9798 517.324 20.0712C508.076 19.3199 506.972 17.1016 499.984 11.539C494.785 15.7549 493.351 16.1189 486.886 16.7531C490.579 26.262 491.779 23.5765 497.669 30.4557C500.029 33.2111 498.074 39.3436 497.255 42.8662C497.115 40.8833 497.476 40.4628 496.406 39.464C495.349 39.8689 494.399 40.2065 493.326 40.5643C491.45 39.9998 492.154 40.5297 491.062 39.0316C491.641 36.8328 492.555 34.5139 491.155 32.61C485.633 25.0969 484.057 26.8547 481.759 17.3774C479.647 16.1925 475.151 14.3093 477.048 11.4542C481.375 9.54984 486.355 10.9133 490.777 10.0702C491.783 9.87829 496.324 6.95171 497.624 6.13857Z"/><path fill="#C0BEBF" transform="matrix(1.38506 0 0 1.38574 -222.994 0)" d="M494.636 53.0407C492.384 47.9122 490.958 44.7191 491.062 39.0316C492.154 40.5297 491.45 39.9998 493.326 40.5643C494.399 40.2065 495.349 39.8689 496.406 39.464C497.476 40.4628 497.115 40.8833 497.255 42.8662C501.158 52.9197 504.66 59.7893 489.384 58.0504L489.127 58.6571C484.373 70.2306 485.969 84.4255 474.313 93.6119L473.977 92.9247C475.951 90.6646 480.024 85.464 481.112 82.8367C480.891 80.9785 481.306 81.6971 479.904 80.5661C478.068 80.5473 478.786 80.2224 477.589 81.3538C477.709 83.5976 471.028 90.8756 468.681 91.4009C470.589 88.8474 472.717 86.7185 474.827 84.3004C478.778 79.7743 480.347 70.2654 481.337 64.642C483.205 54.0288 484.754 52.8374 494.636 53.0407Z"/><path fill="#C0BEBF" transform="matrix(1.38506 0 0 1.38574 -222.994 0)" d="M371.228 186.469C372.344 190.932 371.881 195.316 372.714 199.462C373.368 202.715 375.682 204.335 376.192 208.722C373.596 208.242 373.005 208.099 370.402 208.336C365.952 202.45 366.665 195.216 365.821 187.564C367.873 187.644 369.919 188.073 371.228 186.469Z"/><path fill="#D4D2D3" transform="matrix(1.38506 0 0 1.38574 -222.994 0)" d="M370.402 208.336C373.005 208.099 373.596 208.242 376.192 208.722C376.15 213.214 375.566 220.928 375.717 224.909L375.114 226.592C373.416 227.268 372.151 226.628 370.353 226.614C370.733 220.605 371.338 214.269 370.402 208.336Z"/><path fill="#D4D2D3" transform="matrix(1.38506 0 0 1.38574 -222.994 0)" d="M364.592 171.908C366.054 177.293 369.128 179.984 370.87 184.945L371.228 186.469C369.919 188.073 367.873 187.644 365.821 187.564C365.528 186.635 364.575 184.477 364.168 183.485C362.372 180.946 361.104 178.958 359.508 176.285C361.606 174.689 362.698 173.743 364.592 171.908Z"/><path fill="#E8E7E7" transform="matrix(1.38506 0 0 1.38574 -222.994 0)" d="M364.168 183.485C367.635 183.633 367.719 183.74 370.87 184.945L371.228 186.469C369.919 188.073 367.873 187.644 365.821 187.564C365.528 186.635 364.575 184.477 364.168 183.485Z"/><path fill="#D4D2D3" transform="matrix(1.38506 0 0 1.38574 -222.994 0)" d="M367.522 239.37C370.3 238.964 370.833 239.134 373.61 239.718C370.697 244.369 368.432 248.199 364.681 252.288C362.339 251.054 362.288 251.12 359.72 251.564C362.349 244.043 363.961 245.284 367.522 239.37Z"/><path fill="#C0BEBF" transform="matrix(1.38506 0 0 1.38574 -222.994 0)" d="M375.717 224.909C375.9 228.824 375.687 236.41 373.61 239.718C370.833 239.134 370.3 238.964 367.522 239.37C368.949 235.449 369.683 230.72 370.353 226.614C372.151 226.628 373.416 227.268 375.114 226.592L375.717 224.909Z"/><path fill="#E8E7E7" transform="matrix(1.38506 0 0 1.38574 -222.994 0)" d="M359.72 251.564C362.288 251.12 362.339 251.054 364.681 252.288C364.288 255.532 363.842 261.559 363.199 264.44C360.153 263.811 360.269 263.592 358.493 260.953C359.708 258.074 359.586 254.733 359.72 251.564Z"/><path fill="#E8E7E7" transform="matrix(1.38506 0 0 1.38574 -222.994 0)" d="M763.742 226.929C765.528 227.009 767.64 227.046 769.39 227.199C771.693 228.189 772.099 228.491 773.569 230.724C768.222 232.357 764.519 232.003 759.429 229.785C760.713 228.021 761.476 227.133 763.742 226.929Z"/></g></svg>