<svg width="1254" height="1254" viewBox="0 0 1254 1254" fill="none" xmlns="http://www.w3.org/2000/svg">
<g clip-path="url(#clip0_19_418)">
<path d="M635.375 132.812C636.39 132.814 637.406 132.815 638.451 132.816C665.56 132.881 691.438 135.544 718.097 140.312C722.488 141.086 726.886 141.794 731.292 142.473C734.597 143.116 737.772 144.045 741 145C742.59 145.451 742.59 145.451 744.212 145.91C758.533 149.973 772.804 154.136 786.938 158.812C788.037 159.173 789.136 159.533 790.269 159.904C795.427 161.637 800.318 163.497 805.133 166.033C808.426 167.738 811.85 169.151 815.25 170.625C851.828 186.739 885.53 208.052 916.265 233.569C917.802 234.836 919.357 236.082 920.914 237.324C933.225 247.148 944.359 258.269 955.5 269.375C956.432 270.302 957.364 271.229 958.324 272.184C963.424 277.296 968.323 282.5 973 288C973.846 288.964 974.692 289.928 975.563 290.922C1034.08 358.814 1071.56 443.626 1083.5 532.271C1083.82 534.63 1084.15 536.987 1084.5 539.342C1087.09 556.976 1087.29 574.518 1087.31 592.312C1087.32 594.023 1087.32 594.023 1087.32 595.769C1087.36 617.937 1085.91 639.704 1082.19 661.562C1082.06 662.351 1081.92 663.139 1081.79 663.951C1074.78 705.892 1062.92 746.379 1045 785C1044.56 785.966 1044.12 786.932 1043.67 787.927C1036.73 803.198 1028.73 817.682 1020 832C1019.58 832.689 1019.16 833.378 1018.73 834.087C1008.88 850.093 997.832 865.412 986 880C985.232 880.962 984.464 881.923 983.672 882.914C979.153 888.523 974.442 893.909 969.555 899.199C968.21 900.673 966.87 902.152 965.575 903.67C960.422 909.706 954.849 915.303 949.231 920.9C947.566 922.559 945.907 924.224 944.248 925.889C938.672 931.469 933.034 936.91 927 942C925.979 942.888 924.958 943.778 923.938 944.668C916.244 951.267 908.303 957.441 900.13 963.436C898.697 964.488 897.267 965.544 895.839 966.602C857.574 994.973 815.46 1016.39 770.313 1031.44C769.211 1031.81 769.211 1031.81 768.086 1032.18C757.153 1035.81 746.127 1039.02 735 1042C734.048 1042.26 733.095 1042.51 732.113 1042.78C657.314 1062.53 574.479 1057.85 501 1035C500.03 1034.7 499.06 1034.41 498.06 1034.1C435.012 1014.62 376.186 979.657 327.512 935.266C326.127 934.016 324.736 932.774 323.317 931.562C317.755 926.795 312.548 921.701 307.382 916.512C305.94 915.065 304.493 913.623 303.045 912.182C297.818 906.958 292.78 901.637 288 896C287.123 894.99 286.246 893.981 285.367 892.973C262.252 865.98 242.482 836.46 226 805C225.527 804.099 225.054 803.198 224.566 802.269C212.928 779.953 203.892 756.878 196 733C195.744 732.232 195.488 731.465 195.224 730.674C193.719 726.143 192.328 721.585 191 717C190.778 716.25 190.556 715.5 190.327 714.727C170.665 647.519 168.495 572.317 183.343 504.04C183.999 501.007 184.616 497.968 185.231 494.926C197.023 438.578 221.981 384.579 254 337C255.141 335.285 256.282 333.57 257.422 331.855C263.75 322.408 270.425 313.378 277.672 304.617C278.873 303.155 280.049 301.674 281.223 300.191C286.856 293.106 293.002 286.557 299.227 279.996C301.583 277.512 303.914 275.011 306.211 272.473C312.789 265.204 319.678 258.515 327 252C328.282 250.828 328.282 250.828 329.59 249.633C335.549 244.191 341.719 239.064 348 234C349.075 233.11 350.149 232.22 351.223 231.328C369.857 215.975 390.101 203.026 411 191C411.927 190.464 412.853 189.928 413.807 189.375C428.719 180.804 444.177 173.716 460 167C461.171 166.501 461.171 166.501 462.365 165.992C476.142 160.164 490.419 155.521 504.847 151.597C507.354 150.902 509.85 150.172 512.348 149.445C552.547 137.955 593.617 132.759 635.375 132.812Z" fill="#FBF5EA"/>
<path d="M635.375 132.812C636.39 132.814 637.406 132.815 638.451 132.816C665.56 132.881 691.438 135.544 718.097 140.312C722.488 141.086 726.886 141.794 731.292 142.473C734.597 143.116 737.772 144.045 741 145C742.59 145.451 742.59 145.451 744.212 145.91C758.533 149.973 772.804 154.136 786.938 158.812C788.037 159.173 789.136 159.533 790.269 159.904C795.427 161.637 800.318 163.497 805.133 166.033C808.426 167.738 811.85 169.151 815.25 170.625C851.828 186.739 885.53 208.052 916.265 233.569C917.802 234.836 919.357 236.082 920.914 237.324C933.225 247.148 944.359 258.269 955.5 269.375C956.432 270.302 957.364 271.229 958.324 272.184C963.424 277.296 968.323 282.5 973 288C973.846 288.964 974.692 289.928 975.563 290.922C1034.08 358.814 1071.56 443.626 1083.5 532.271C1083.82 534.63 1084.15 536.987 1084.5 539.342C1087.09 556.976 1087.29 574.518 1087.31 592.312C1087.32 594.023 1087.32 594.023 1087.32 595.769C1087.36 617.937 1085.91 639.704 1082.19 661.562C1082.06 662.351 1081.92 663.139 1081.79 663.951C1074.78 705.892 1062.92 746.379 1045 785C1044.56 785.966 1044.12 786.932 1043.67 787.927C1036.73 803.198 1028.73 817.682 1020 832C1019.58 832.689 1019.16 833.378 1018.73 834.087C1008.88 850.093 997.832 865.412 986 880C985.232 880.962 984.464 881.923 983.672 882.914C979.153 888.523 974.442 893.909 969.555 899.199C968.21 900.673 966.87 902.152 965.575 903.67C960.422 909.706 954.849 915.303 949.231 920.9C947.566 922.559 945.907 924.224 944.248 925.889C938.672 931.469 933.034 936.91 927 942C925.979 942.888 924.958 943.778 923.938 944.668C916.244 951.267 908.303 957.441 900.13 963.436C898.697 964.488 897.267 965.544 895.839 966.602C857.574 994.973 815.46 1016.39 770.313 1031.44C769.211 1031.81 769.211 1031.81 768.086 1032.18C757.153 1035.81 746.127 1039.02 735 1042C734.048 1042.26 733.095 1042.51 732.113 1042.78C657.314 1062.53 574.479 1057.85 501 1035C500.03 1034.7 499.06 1034.41 498.06 1034.1C435.012 1014.62 376.186 979.657 327.512 935.266C326.127 934.016 324.736 932.774 323.317 931.562C317.755 926.795 312.548 921.701 307.382 916.512C305.94 915.065 304.493 913.623 303.045 912.182C297.818 906.958 292.78 901.637 288 896C287.123 894.99 286.246 893.981 285.367 892.973C262.252 865.98 242.482 836.46 226 805C225.527 804.099 225.054 803.198 224.566 802.269C212.928 779.953 203.892 756.878 196 733C195.744 732.232 195.488 731.465 195.224 730.674C193.719 726.143 192.328 721.585 191 717C190.778 716.25 190.556 715.5 190.327 714.727C170.665 647.519 168.495 572.317 183.343 504.04C183.999 501.007 184.616 497.968 185.231 494.926C197.023 438.578 221.981 384.579 254 337C255.141 335.285 256.282 333.57 257.422 331.855C263.75 322.408 270.425 313.378 277.672 304.617C278.873 303.155 280.049 301.674 281.223 300.191C286.856 293.106 293.002 286.557 299.227 279.996C301.583 277.512 303.914 275.011 306.211 272.473C312.789 265.204 319.678 258.515 327 252C328.282 250.828 328.282 250.828 329.59 249.633C335.549 244.191 341.719 239.064 348 234C349.075 233.11 350.149 232.22 351.223 231.328C369.857 215.975 390.101 203.026 411 191C411.927 190.464 412.853 189.928 413.807 189.375C428.719 180.804 444.177 173.716 460 167C461.171 166.501 461.171 166.501 462.365 165.992C476.142 160.164 490.419 155.521 504.847 151.597C507.354 150.902 509.85 150.172 512.348 149.445C552.547 137.955 593.617 132.759 635.375 132.812ZM553 168C552.02 168.178 551.04 168.356 550.03 168.539C484.347 180.583 421.076 210.367 369 252C368.094 252.724 367.188 253.449 366.254 254.195C363.482 256.44 360.737 258.713 358 261C357.458 261.451 356.915 261.902 356.356 262.367C349.303 268.243 342.55 274.279 336.129 280.842C333.413 283.613 330.649 286.243 327.688 288.75C324.456 291.511 321.709 294.481 318.965 297.723C317.078 299.909 315.125 302.021 313.15 304.128C307.142 310.555 301.671 317.301 296.324 324.283C295.066 325.915 293.791 327.532 292.508 329.144C278.391 347.072 266.125 366.723 255.225 386.756C254.384 388.296 253.536 389.832 252.682 391.365C238.357 417.131 227.235 444.716 219 473C218.457 474.796 217.913 476.591 217.367 478.387C211.629 497.519 207.861 516.716 205.25 536.5C205.143 537.306 205.036 538.112 204.926 538.942C202.44 557.868 201.76 576.547 201.75 595.625C201.75 596.805 201.749 597.984 201.748 599.2C201.764 616.99 202.189 634.4 205 652C205.177 653.118 205.354 654.236 205.536 655.388C208.211 671.772 211.833 687.935 216 704C216.277 705.083 216.553 706.166 216.838 707.282C228.01 750.501 247.151 791.962 272 829C272.526 829.786 273.051 830.572 273.592 831.381C280.394 841.53 287.371 851.454 295 861C296.139 862.429 296.139 862.429 297.301 863.887C301.6 869.211 306.047 874.367 310.664 879.418C311.93 880.816 313.189 882.221 314.412 883.656C319.442 889.541 324.861 895.013 330.343 900.473C331.935 902.06 333.522 903.652 335.108 905.244C340.565 910.705 346.082 916.036 352 921C352.643 921.544 353.287 922.089 353.949 922.65C417.156 975.862 494.394 1013.65 576.871 1023.73C579.987 1024.13 583.085 1024.63 586.188 1025.12C639.484 1032.62 701.376 1027.42 752 1009C750.817 1005.82 749.683 1003.55 747.688 1000.75C739.961 988.781 738.808 973.156 738.75 959.375C738.719 957.563 738.719 957.563 738.688 955.715C738.633 943.029 741.747 932.451 747 921C747.756 919.329 747.756 919.329 748.528 917.625C756.015 901.841 766.639 889.244 779 877C780.012 875.993 780.012 875.993 781.043 874.965C793.204 863.469 807.785 854.813 823 848C823.913 847.587 823.913 847.587 824.845 847.165C840.553 840.171 857.319 836.175 874.41 834.582C886.14 833.464 895.857 831.311 906 825C906 824.34 906 823.68 906 823C875.683 812.894 834.98 823.888 807 836C812.724 827.751 819.005 820.166 825.607 812.617C826.973 811.032 828.299 809.419 829.621 807.797C831.61 805.459 833.527 803.516 835.875 801.562C838.454 799.371 840.863 797.145 843.188 794.687C861.185 776.528 884.224 766.13 908.802 760.572C918.907 758.243 928.711 755.274 937.063 748.937C937.941 748.286 938.819 747.635 939.723 746.965C941.879 745.105 943.478 743.4 945 741C945 740.34 945 739.68 945 739C944.398 739.112 943.795 739.225 943.174 739.341C938.194 740.259 933.21 741.138 928.213 741.959C907.602 745.345 888.152 749.361 869 758C871.813 732.981 878.499 709.873 896 691C897.12 689.761 897.12 689.761 898.262 688.496C905.708 680.632 914.54 673.705 923.95 668.309C924.626 667.877 925.303 667.445 926 667C926 666.34 926 665.68 926 665C908.743 665.38 892.272 674.131 880 686C880 686.66 880 687.32 880 688C879.01 688.33 878.02 688.66 877 689C861.652 705.914 856.094 728.491 853.05 750.446C851.626 759.838 849.267 769.712 841.774 776.191C840.657 777.004 839.523 777.795 838.375 778.562C837.124 779.476 835.875 780.395 834.629 781.316C834.013 781.765 833.397 782.214 832.763 782.676C824.21 789.101 816.754 797.158 809.188 804.687C807.987 805.881 807.987 805.881 806.761 807.1C802.562 811.311 798.52 815.597 794.642 820.105C792.018 823.134 789.29 826.064 786.563 829C786.022 829.584 785.481 830.168 784.924 830.769C783.617 832.181 782.309 833.59 781 835C781.216 834.494 781.433 833.987 781.655 833.466C792.135 808.694 797.22 784.92 797.125 758C797.124 756.915 797.124 756.915 797.123 755.808C797.106 744.516 796.823 733.265 796 722C795.34 722 794.68 722 794 722C784.42 733.607 781.54 747.876 780.258 762.406C777.472 793.224 768.955 821.017 746 843C741.924 846.239 738.16 848.959 733 850C732.828 848.275 732.828 848.275 732.653 846.516C732.193 842.832 731.336 839.452 730.235 835.914C718.696 798.787 725.283 760.026 742.938 726.187C749.649 714.384 757.933 704.046 767 694C768.073 692.799 768.073 692.799 769.168 691.574C805.154 653.5 861.435 636.58 912.426 634.886C934.577 634.401 956.606 635.46 978.5 638.937C979.516 639.095 980.531 639.253 981.578 639.415C982.511 639.576 983.445 639.737 984.407 639.902C985.224 640.041 986.042 640.181 986.885 640.324C989.377 641.12 990.448 641.901 992 644C992.286 647.018 992.375 649.796 992.313 652.812C992.302 653.725 992.292 654.638 992.281 655.579C991.562 694.895 986.139 732.825 973.904 770.233C973.103 772.685 972.324 775.143 971.555 777.605C969.569 783.886 967.347 789.848 964.211 795.656C962.901 798.116 962.901 798.116 961.637 801.246C954.449 818.242 943.557 833.256 931.52 847.102C930.037 848.807 928.569 850.526 927.137 852.273C922.402 857.991 916.878 862.492 911 867C910.475 867.405 909.951 867.81 909.41 868.227C881.52 889.569 849.986 898.088 815.533 901.481C799.968 903.085 786.062 908.048 775.785 920.414C766.777 933.463 764.594 947.526 766 963C768.299 974.892 773.047 984.857 783 992C786.451 994.197 788.934 994.5 793 994C796.759 992.652 800.335 990.965 803.938 989.25C804.996 988.753 806.054 988.257 807.145 987.745C833.648 975.194 858.567 960.669 882 943C882.609 942.542 883.218 942.085 883.846 941.614C894.1 933.889 904.082 925.871 913.567 917.215C915.103 915.817 916.651 914.432 918.215 913.066C924.095 907.91 929.65 902.457 935.188 896.937C936.329 895.804 936.329 895.804 937.492 894.647C942.2 889.926 946.668 885.066 951 880C951.974 878.882 952.948 877.765 953.922 876.648C964.648 864.266 974.663 851.461 984 838C984.39 837.443 984.78 836.887 985.181 836.313C1022.71 782.497 1045.03 721.335 1056 657C1056.18 655.98 1056.36 654.961 1056.54 653.911C1057.64 647.578 1058.49 641.275 1059.06 634.875C1059.15 633.971 1059.23 633.067 1059.31 632.136C1064.49 573.713 1057.61 515.866 1040 460C1039.74 459.163 1039.49 458.326 1039.22 457.464C1032.34 435.108 1022.4 413.903 1012 393C1011.62 392.221 1011.23 391.442 1010.83 390.64C1000.87 370.607 988.441 351.852 975 334C974.553 333.401 974.107 332.803 973.646 332.186C965.401 321.162 956.54 310.681 947.266 300.512C945.994 299.102 944.73 297.686 943.492 296.247C938.901 290.914 934.051 285.9 929.063 280.937C927.923 279.792 927.923 279.792 926.76 278.623C922.004 273.875 917.111 269.363 912 265C910.991 264.123 909.982 263.245 908.973 262.367C862.357 222.446 809.478 194.322 751 176C750.071 175.702 749.141 175.405 748.183 175.099C685.6 155.323 616.834 156.127 553 168Z" fill="#6B4528"/>
<path d="M621 657C622.035 657.289 623.07 657.577 624.137 657.875C634.716 661.255 645.845 668.895 651.535 678.625C655 685.419 655 685.419 655 687C653.872 687.147 652.744 687.294 651.582 687.445C619.192 691.945 588.18 703.861 567.589 730.426C559.293 741.594 552.723 753.536 549 767C548.714 768.032 548.428 769.065 548.133 770.129C541.742 794.445 542.561 823.273 554 846C554.284 846.58 554.567 847.161 554.859 847.759C559.371 856.947 564.557 865.019 571 873C571.5 873.653 572 874.307 572.516 874.98C586.966 893.127 611.728 905.207 634 910C634.922 910.224 635.843 910.448 636.793 910.679C651.886 913.859 668.926 912.844 684 910C684.645 909.887 685.291 909.774 685.956 909.658C723.181 902.978 750.363 879.162 771.529 849.178C773.4 846.407 775.09 843.544 776.735 840.633C778 839 778 839 780.085 838.027C781.033 837.518 781.033 837.518 782 837C782.591 835.077 782.591 835.077 783 833C784.348 831.236 784.348 831.236 786.062 829.461C786.695 828.797 787.328 828.133 787.98 827.449C788.647 826.765 789.313 826.08 790 825.375C791.293 824.03 792.584 822.683 793.875 821.336C794.545 820.638 795.215 819.94 795.905 819.222C798.111 816.883 800.255 814.497 802.395 812.097C813.368 799.848 824.895 787.969 838.152 778.191C849.642 769.349 851.891 758.442 854 744.812C857.209 724.337 862.83 703.134 878 688C878.66 688 879.32 688 880 688C880.223 687.429 880.446 686.858 880.676 686.269C886.861 675.669 903.939 669.312 915.062 666.062C918.769 665.155 922.165 664.689 926 665C926 665.66 926 666.32 926 667C924.48 668.044 922.905 669.008 921.312 669.937C896.726 685.157 878.748 708.759 872 737C870.673 743.956 869.791 750.965 869 758C869.646 757.708 870.292 757.417 870.957 757.117C894.49 746.88 919.691 742.494 945 739C943.011 745.082 939.109 747.475 934 751C933.047 751.684 933.047 751.684 932.074 752.383C924.3 757.337 914.839 758.835 906 761C888.677 765.245 873.494 771.377 859 782C858.214 782.575 857.427 783.15 856.617 783.742C848.916 789.565 841.728 796.08 835 803C830 808 830 808 828.516 809.379C820.251 817.23 813.558 826.719 807 836C808.2 835.48 809.4 834.961 810.637 834.426C837.479 823.082 877.199 813.399 906 823C905 826 905 826 903.137 827.281C893.033 832.309 883.087 834.089 871.98 835.242C850.174 837.528 830.266 843.407 811 854C809.471 854.812 809.471 854.812 807.91 855.64C793.007 863.882 778.877 874.884 768 888C767.095 889.038 767.095 889.038 766.172 890.097C749.688 909.63 738.592 932.84 738.625 958.562C738.626 959.801 738.627 961.041 738.628 962.317C738.75 971.815 739.883 980.027 743 989C743.238 989.786 743.477 990.572 743.723 991.383C745.336 996.31 748.028 1000.55 750.793 1004.9C752 1007 752 1007 752 1009C749.19 1009.93 746.377 1010.84 743.562 1011.75C742.799 1012 742.035 1012.26 741.248 1012.52C727.506 1016.93 713.457 1019.62 699.208 1021.76C696.764 1022.12 694.321 1022.5 691.879 1022.89C673.307 1025.75 654.977 1027.33 636.178 1027.21C633.303 1027.19 630.428 1027.19 627.553 1027.19C612.153 1027.16 596.789 1026.73 581.5 1024.75C580.504 1024.62 579.507 1024.49 578.48 1024.36C566.554 1022.76 554.764 1020.52 543 1018C542.043 1017.8 541.085 1017.59 540.099 1017.38C512.605 1011.36 485.446 1001.98 460 990C458.995 989.536 457.989 989.072 456.954 988.595C428.252 975.352 400.926 959.494 376 940C374.788 939.064 373.576 938.129 372.363 937.195C355.44 924.093 339.776 909.852 324.625 894.75C324.151 894.278 323.676 893.806 323.187 893.32C317.567 887.724 312.117 882.06 307 876C306.189 875.048 306.189 875.048 305.361 874.078C273 835.923 273 835.923 273 828C274.285 827.98 275.569 827.96 276.893 827.94C281.729 827.863 286.566 827.774 291.402 827.682C293.482 827.644 295.562 827.61 297.642 827.578C309.589 827.394 321.191 826.937 333 825C334.248 824.819 335.495 824.639 336.781 824.453C377.998 818.327 413.706 795.532 443 767C443.937 766.103 444.874 765.205 445.84 764.281C450.838 759.413 455.3 754.301 459.652 748.851C462.168 745.796 464.803 742.894 467.5 740C471.754 735.422 475.768 730.707 479.695 725.844C487.462 716.26 495.535 706.972 504 698C504.873 697.073 505.745 696.146 506.645 695.191C536.453 664.423 578.046 644.737 621 657Z" fill="#FBF5EA"/>
<path d="M978.438 637.875C979.948 638.099 979.948 638.099 981.49 638.327C985.297 638.972 988.307 639.585 991.637 641.578C993.704 645.25 993.5 648.782 993.375 652.875C993.36 653.783 993.345 654.692 993.329 655.628C992.424 694.955 987.149 732.794 974.903 770.233C974.103 772.685 973.324 775.143 972.555 777.605C970.568 783.886 968.347 789.848 965.211 795.656C963.901 798.116 963.901 798.116 962.637 801.246C954.908 819.521 942.938 835.167 930 850C929.312 850.824 928.623 851.647 927.914 852.496C922.86 858.448 917.196 863.265 911 868C910.477 868.404 909.953 868.807 909.414 869.223C881.523 890.567 849.989 899.088 815.533 902.481C800.924 903.986 787.415 908.178 777.625 919.75C767.929 932.843 765.553 947.079 767 963C768.957 973.125 772.823 983.229 781.086 989.781C784.234 991.785 787.448 992.878 791 994C788.081 996.398 785.432 997.734 781.859 998.937C780.871 999.275 779.882 999.613 778.863 999.961C777.322 1000.48 777.322 1000.48 775.75 1001C773.724 1001.69 771.698 1002.37 769.672 1003.06C768.217 1003.55 768.217 1003.55 766.733 1004.05C764.307 1004.89 761.951 1005.83 759.578 1006.81C755.99 1008 754.44 1008.5 751 1007C739.436 995.044 737.816 975.002 737.75 959.375C737.729 958.167 737.709 956.959 737.688 955.715C737.633 943.029 740.747 932.451 746 921C746.504 919.886 747.008 918.772 747.527 917.625C755.021 901.828 765.654 889.273 778 877C778.526 876.451 779.052 875.901 779.593 875.335C783.726 871.065 788.058 867.507 792.938 864.125C793.678 863.61 794.418 863.096 795.181 862.565C818.964 846.27 845.639 836.264 874.41 833.582C883.148 832.748 890.919 831.698 899 828C900.794 827.196 900.794 827.196 902.625 826.375C905.118 825.222 905.118 825.222 906 823C873.54 820.327 842.724 822.013 812.395 834.644C809 836 809 836 807 836C808.458 831.491 810.986 828.321 814.063 824.812C814.552 824.244 815.042 823.676 815.546 823.091C819.288 818.766 823.098 814.501 826.949 810.273C828.863 808.152 830.714 805.99 832.563 803.812C836.067 799.804 839.925 796.414 844 793C844.851 792.25 845.702 791.499 846.578 790.726C866.875 773.147 888.389 764.041 914.32 757.984C924.986 755.4 937.485 750.85 943.813 741.25C944.204 740.507 944.596 739.765 945 739C943.647 739.346 943.647 739.346 942.266 739.699C934.137 741.717 926.011 743.377 917.75 744.765C902.487 747.333 887.997 750.563 873.97 757.228C872 758 872 758 869 758C867.787 735.349 877.876 710.572 892.606 693.609C893.791 692.318 893.791 692.318 895 691C895.821 690.098 896.642 689.195 897.488 688.266C905.289 680.083 915.081 670.674 926 667C926 666.34 926 665.68 926 665C903.65 669.067 885.471 678.498 872 697C861.429 712.943 857.073 729.944 854.297 748.641C851.689 765.978 845.583 774.202 831.864 784.575C824.075 790.531 817.248 797.66 810.313 804.562C809.504 805.366 808.695 806.17 807.862 806.998C803.638 811.234 799.57 815.543 795.668 820.078C792.879 823.292 789.968 826.391 787.063 829.5C786.474 830.132 785.886 830.763 785.279 831.414C783.854 832.944 782.427 834.472 781 836C780.67 835.34 780.34 834.68 780 834C781.145 831.144 782.354 828.362 783.625 825.562C792.561 805.153 796.204 783.755 796.098 761.551C796.096 760.412 796.095 759.273 796.093 758.1C796.088 754.504 796.075 750.908 796.063 747.312C796.058 744.857 796.053 742.402 796.049 739.947C796.038 733.965 796.021 727.982 796 722C795.34 722 794.68 722 794 722C793.731 722.544 793.461 723.088 793.184 723.648C792.338 725.329 791.474 727 790.598 728.664C790.091 729.641 789.585 730.618 789.063 731.625C788.559 732.587 788.055 733.548 787.535 734.539C783.562 743.496 782.347 752.368 781.408 762.029C778.258 793.715 769.557 821.325 746 844C738.627 850 738.627 850 733 850C728.491 834.724 724.636 819.961 724 804C723.968 803.238 723.937 802.476 723.904 801.69C722.464 760.224 738.392 724.49 766 694C766.789 693.126 767.578 692.252 768.391 691.351C821.26 635.785 906.662 626.731 978.438 637.875Z" fill="#356151"/>
<path d="M688.375 253.687C694.422 257.042 698.934 261.797 703.062 267.25C703.762 268.157 703.762 268.157 704.475 269.083C705.474 270.381 706.47 271.682 707.463 272.985C709.004 275.005 710.555 277.017 712.109 279.027C720.829 290.335 729.286 301.832 737.722 313.352C744.478 322.573 751.3 331.736 758.25 340.812C763.081 347.121 767.83 353.465 772.411 359.957C784.271 379.16 784.271 379.16 800 394C805.77 393.98 809.015 391.965 813.125 388.187C813.678 387.701 814.231 387.215 814.8 386.714C818.273 383.637 821.656 380.463 825.041 377.289C840.703 362.651 840.703 362.651 849.625 362.312C857.911 362.874 862.182 364.74 867.758 370.966C874.161 378.442 879.877 386.494 885.668 394.445C889.532 399.746 893.532 404.932 897.548 410.119C906.475 421.681 915.282 433.327 923.917 445.109C928.288 451.064 932.75 456.944 937.249 462.802C945.831 473.98 954.231 485.29 962.573 496.647C966.255 501.653 969.972 506.631 973.715 511.592C988.266 530.89 1001.65 550.101 1012 572C1012.47 572.981 1012.95 573.962 1013.43 574.973C1019.89 589.276 1023.24 605.343 1023.06 621C1023.06 621.775 1023.05 622.549 1023.05 623.348C1023.04 625.232 1023.02 627.116 1023 629C1019.6 625.908 1017.38 622.52 1015.12 618.562C999.217 591.357 980.123 565.773 961.646 540.275C959.996 537.995 958.353 535.711 956.711 533.426C950.991 525.47 945.206 517.573 939.304 509.751C935.768 505.053 932.327 500.297 928.929 495.499C925.347 490.454 921.679 485.475 918 480.5C913.956 475.03 909.935 469.548 906 464C900.377 456.078 894.594 448.275 888.819 440.464C887.024 438.033 885.236 435.597 883.449 433.16C877.71 425.335 871.937 417.537 866.062 409.812C865.555 409.142 865.048 408.472 864.525 407.781C861.872 404.311 859.145 400.912 856.328 397.574C855.772 396.914 855.215 396.253 854.642 395.573C852.946 393.71 852.946 393.71 849.688 393C840.033 395.618 832.411 405.323 825.342 412.051C807.229 429.239 807.229 429.239 800.312 429.5C799.504 429.552 798.696 429.603 797.863 429.656C789.739 427.794 784.79 420.66 780.25 414.187C779.65 413.353 779.05 412.518 778.432 411.658C776.608 409.115 774.802 406.559 773 404C771.963 402.536 770.925 401.073 769.887 399.609C767.915 396.823 765.95 394.032 763.988 391.238C754.21 377.336 744.102 363.668 734 350C731.645 346.813 729.29 343.626 726.938 340.437C726.358 339.652 725.778 338.866 725.18 338.057C721.788 333.455 718.434 328.828 715.106 324.18C708.472 314.919 701.587 305.883 694.53 296.941C693.162 295.205 691.802 293.464 690.445 291.719C689.741 290.822 689.038 289.924 688.312 289C687.731 288.257 687.15 287.515 686.551 286.75C684.177 284.071 682.319 283.063 678.812 282.375C671.288 283.608 666.469 291.384 662.135 297.285C661.595 298.037 661.056 298.788 660.5 299.562C659.903 300.385 659.306 301.207 658.691 302.055C656.783 304.695 654.89 307.346 653 310C652.397 310.844 651.794 311.688 651.172 312.558C635.285 334.874 620.139 357.814 605.75 381.125C605.196 382.011 604.642 382.897 604.072 383.811C599.489 391.353 595.998 398.555 597.305 407.519C600.073 417.394 608.442 424.07 616.944 429.029C631.79 437.24 647.932 440.492 664.375 443.937C718.395 455.264 718.395 455.264 733.5 476.5C738.066 484.128 740.51 492.074 739 501C737.446 505.01 735.43 508.46 733 512C732.403 512.915 732.403 512.915 731.793 513.848C725.081 522.18 711.027 523.383 701.123 524.621C694.81 525.267 688.493 525.261 682.154 525.206C679.974 525.187 677.794 525.185 675.613 525.185C669.315 525.164 663.235 525.004 657 524C660.199 521.867 662.673 521.165 666.375 520.187C681.486 515.966 695.048 511.428 704 498C704.896 492.182 705.058 486.625 701.562 481.687C699.885 479.765 699.885 479.765 698 478C697.404 477.419 696.809 476.837 696.195 476.238C679.653 461.917 655.648 457.552 635.024 452.71C634.026 452.476 633.028 452.241 632 452C631.122 451.794 630.244 451.588 629.339 451.376C595.914 443.428 568.233 427.148 545.755 401.018C542.866 397.696 539.835 394.511 536.812 391.312C535.49 389.908 534.169 388.503 532.848 387.098C532.198 386.407 531.549 385.716 530.879 385.004C528.155 382.099 525.45 379.178 522.75 376.25C522.269 375.729 521.788 375.208 521.292 374.671C518.854 372.028 516.431 369.374 514.023 366.703C513.293 365.896 513.293 365.896 512.548 365.073C511.219 363.604 509.894 362.13 508.57 360.656C503.08 354.584 503.08 354.584 495.625 352.187C490.658 352.527 488.366 354.729 485.145 358.352C481.715 362.587 478.316 366.84 474.988 371.156C471.894 375.16 468.703 379.082 465.5 383C459.575 390.263 453.767 397.611 448 405C441.671 413.108 435.271 421.146 428.764 429.111C425.458 433.169 422.231 437.271 419.062 441.437C413.435 448.816 407.51 455.941 401.586 463.081C399.5 465.604 397.438 468.146 395.375 470.687C391.475 475.465 387.466 480.143 383.437 484.811C380.431 488.302 377.502 491.839 374.625 495.437C370.364 500.693 365.787 505.615 361.135 510.523C357.582 514.275 354.144 518.102 350.755 522.002C338.748 535.671 326.035 549.387 312 561C310.674 562.125 310.674 562.125 309.32 563.273C295.486 574.858 295.486 574.858 285.469 574.445C283 574 283 574 280.312 571.937C278.624 568.159 278.292 566.104 279 562C281.386 558.081 284.79 555.137 288.277 552.215C294.487 546.814 300.229 540.919 306.036 535.094C308.058 533.067 310.084 531.046 312.111 529.025C318.287 522.853 324.373 516.683 330 510C331.454 508.392 332.912 506.788 334.375 505.187C338.324 500.817 342.046 496.297 345.75 491.719C347.935 489.078 350.192 486.533 352.5 484C356.365 479.753 360.014 475.37 363.625 470.906C366.167 467.796 368.766 464.741 371.375 461.687C375.624 456.699 379.714 451.607 383.738 446.436C387.221 441.967 390.785 437.57 394.375 433.187C399.425 427.012 404.3 420.722 409.118 414.365C412.882 409.415 416.748 404.561 420.688 399.75C425.79 393.518 430.74 387.195 435.626 380.791C438.907 376.513 442.228 372.265 445.542 368.013C448.568 364.13 451.586 360.243 454.586 356.34C480.18 323.088 480.18 323.088 490.453 321.449C499.554 321.11 505.827 323.047 512.676 329.031C513.897 330.178 515.109 331.334 516.312 332.5C516.9 333.049 517.487 333.598 518.092 334.164C521.959 337.837 525.589 341.7 529.172 345.648C534.716 351.756 540.459 357.645 546.291 363.477C547.966 365.153 549.632 366.838 551.299 368.523C552.375 369.602 553.451 370.68 554.527 371.758C555.019 372.257 555.511 372.756 556.017 373.27C559.627 376.855 562.083 378.85 567.188 379.25C576.705 377.448 583.372 363.492 588.605 355.986C591.137 352.381 593.728 348.818 596.312 345.25C597.423 343.714 598.534 342.177 599.645 340.641C600.2 339.873 600.755 339.105 601.327 338.314C604.053 334.544 606.776 330.772 609.5 327C610.583 325.5 611.667 324 612.75 322.5C613.286 321.757 613.822 321.015 614.375 320.25C616 318 617.625 315.75 619.25 313.5C619.786 312.757 620.323 312.014 620.876 311.249C621.956 309.753 623.037 308.257 624.118 306.761C626.87 302.953 629.617 299.142 632.355 295.324C668.904 244.421 668.904 244.421 688.375 253.687Z" fill="#6A4528"/>
<path d="M601.188 624.5C601.943 624.501 602.699 624.503 603.478 624.504C630.66 624.631 656.012 632.268 677 650C677.905 650.669 677.905 650.669 678.828 651.351C691.327 660.872 699.7 678.018 703 693C703.653 698.544 703.924 702.994 701.558 708.13C698.819 711.202 698.57 711.422 694.761 711.709C693.023 711.723 691.284 711.706 689.547 711.664C688.614 711.668 687.681 711.672 686.72 711.677C683.729 711.688 680.74 711.66 677.75 711.625C661.126 711.488 645.555 711.668 630.562 719.875C629.898 720.225 629.234 720.575 628.55 720.936C626.686 721.934 624.84 722.959 623 724C622.136 724.483 621.273 724.967 620.383 725.465C602.963 736.159 592.163 754.514 586.969 773.836C581.784 796.475 585.306 820.339 597 840.437C611.984 863.127 633.033 874.3 659 880C668.537 881.751 678.346 881.256 688 881C688.708 880.981 689.417 880.963 690.146 880.944C723.136 879.605 753.955 860.28 777 838C777.66 838.33 778.32 838.66 779 839C762.322 864.655 744.701 885.974 717 900C716.369 900.325 715.738 900.65 715.088 900.984C687.541 914.915 652.301 917.347 622.876 908.35C608.289 903.44 594.891 895.688 583 886C582.223 885.388 581.445 884.775 580.645 884.144C569.49 874.885 561.697 862.695 555 850C554.58 849.216 554.16 848.432 553.727 847.625C541.007 823.143 540.687 792.237 547.809 766.023C548.727 763.257 549.797 760.656 551 758C551.404 757.108 551.404 757.108 551.816 756.197C564.387 728.853 584.737 706.881 613.176 695.758C626.562 690.813 639.958 688.2 654 686C649.027 674.333 641.356 666.699 630 661C624.787 658.923 619.419 657.432 614 656C613.091 655.752 612.182 655.505 611.246 655.25C585.657 649.179 557.668 658.792 536 672C525.428 678.917 516.045 687.22 507 696C506.105 696.855 505.211 697.709 504.289 698.59C499.306 703.442 494.82 708.518 490.48 713.949C487.564 717.536 484.541 721.019 481.5 724.5C477.714 728.838 473.987 733.202 470.375 737.687C466.293 742.729 461.954 747.487 457.543 752.238C455.538 754.415 453.599 756.617 451.688 758.875C443.032 768.818 433.477 778.004 423 786C422.453 786.423 421.906 786.847 421.342 787.283C391.046 810.646 356.086 824.36 318 828C317.149 828.084 316.298 828.169 315.422 828.256C309.703 828.81 303.987 829.222 298.251 829.546C296.168 829.682 294.087 829.854 292.009 830.061C278.164 831.415 278.164 831.415 272 829C266.751 824.594 263.865 818.427 261.059 812.294C259.77 809.502 258.237 806.903 256.641 804.277C255.838 802.834 255.041 801.387 254.25 799.937C253.827 799.181 253.404 798.425 252.969 797.646C250 792.263 250 792.263 250 790C250.607 790.068 251.215 790.137 251.841 790.208C262.644 791.273 273.466 791.286 284.312 791.312C285.34 791.315 286.368 791.318 287.427 791.32C301.537 791.324 315.025 790.968 328.784 787.538C330.945 787.013 333.102 786.591 335.289 786.195C365.693 780.404 393.951 762.73 416.156 741.668C418.359 739.601 420.587 737.627 422.879 735.664C427.003 732.074 430.735 728.205 434.438 724.187C435.091 723.484 435.745 722.78 436.419 722.055C440.591 717.556 444.714 713.015 448.809 708.445C456.839 699.485 465.087 690.792 473.562 682.25C474.425 681.375 475.287 680.5 476.175 679.598C498.418 657.324 526.222 639.503 556.562 630.687C557.352 630.457 558.141 630.227 558.954 629.989C572.948 626.15 586.715 624.41 601.188 624.5Z" fill="#D3A868"/>
<path d="M724 518C724.66 518.33 725.32 518.66 726 519C697.025 543.066 654.249 544.917 618.479 548.643C617.693 548.725 616.906 548.808 616.096 548.893C614.613 549.048 613.129 549.202 611.646 549.353C608.046 549.732 604.543 550.266 601 551C598.958 551.173 596.915 551.343 594.871 551.494C582.362 552.44 569.976 554.167 557.562 555.938C556.661 556.065 555.759 556.192 554.829 556.323C530.652 559.746 507.549 564.05 486 576C485.091 576.481 484.182 576.962 483.246 577.457C463.188 588.629 451.391 607.21 439.762 626.305C430.705 641.162 421 654.384 409 667C408.112 667.967 408.112 667.967 407.207 668.953C393.421 683.522 375.319 692.524 357 700C356.082 700.389 355.164 700.779 354.219 701.18C346.224 704.363 337.811 705.888 329.394 707.529C327.762 707.85 326.132 708.181 324.505 708.522C289.655 715.768 252.681 712.468 218 706C217.505 706.99 217.505 706.99 217 708C216.009 704.211 215.034 700.419 214.062 696.625C213.785 695.564 213.507 694.503 213.221 693.41C211.573 686.939 210.425 680.668 210 674C213.867 674.504 217.655 675.124 221.469 675.941C227.485 677.155 233.529 677.881 239.625 678.562C241.346 678.756 241.346 678.756 243.101 678.954C256.69 680.451 270.201 681.296 283.873 681.037C285.91 681.002 287.947 680.992 289.984 680.984C330.633 680.23 366.853 665.067 395.559 636.449C405.076 626.414 412.538 614.763 420.125 603.25C424.758 596.229 429.709 589.539 435 583C435.705 582.127 436.41 581.255 437.137 580.355C450.08 565.163 468.331 553.746 487 547C487.879 546.667 488.758 546.335 489.664 545.992C515.551 536.731 544.027 533.629 571.283 531.249C574.5 530.954 577.712 530.623 580.926 530.289C594.825 528.849 608.715 527.564 622.66 526.646C623.715 526.575 624.769 526.503 625.855 526.43C626.78 526.37 627.704 526.311 628.657 526.25C631.152 526.068 631.152 526.068 634 525C636.814 524.579 639.613 524.207 642.438 523.875C643.182 523.776 643.926 523.676 644.693 523.574C650.144 522.936 655.212 523.197 660.664 523.729C667.118 524.253 673.591 524.243 680.062 524.25C680.786 524.251 681.509 524.253 682.255 524.254C695.114 524.249 708.252 524.109 720.371 519.332C722.167 518.673 722.167 518.673 724 518Z" fill="#D3A969"/>
<path d="M991 644C991.66 644 992.32 644 993 644C993.245 656.312 992.902 668.528 992.062 680.812C991.976 682.093 991.889 683.373 991.799 684.692C991.362 690.823 990.848 696.911 990 703C989.67 703 989.34 703 989 703C988.806 701.522 988.62 700.042 988.438 698.562C988.281 697.327 988.281 697.327 988.121 696.066C988.081 695.384 988.041 694.703 988 694C988.495 693.505 988.495 693.505 989 693C989.147 691.26 989.228 689.515 989.281 687.77C989.318 686.666 989.355 685.562 989.393 684.425C989.428 683.233 989.464 682.041 989.5 680.812C989.581 678.354 989.663 675.896 989.746 673.438C989.787 672.196 989.828 670.955 989.871 669.676C990.063 664.22 990.307 658.766 990.562 653.312C990.606 652.369 990.65 651.426 990.695 650.454C990.796 648.303 990.898 646.151 991 644Z" fill="#486B59"/>
<path d="M677 517C677.66 517.33 678.32 517.66 679 518C677.35 519.65 675.7 521.3 674 523C681.59 523.33 689.18 523.66 697 524C697 524.33 697 524.66 697 525C692.428 525.025 687.857 525.043 683.285 525.055C681.733 525.06 680.18 525.067 678.627 525.075C676.386 525.088 674.144 525.093 671.902 525.098C670.874 525.105 670.874 525.105 669.824 525.113C665.436 525.114 661.316 524.709 657 524C660.329 521.781 663.149 520.992 667 519.938C672.027 518.556 672.027 518.556 677 517Z" fill="#876340"/>
<path d="M962 907C962.66 907.66 963.32 908.32 964 909C955.75 917.25 947.5 925.5 939 934C938.34 933.34 937.68 932.68 937 932C945.25 923.75 953.5 915.5 962 907Z" fill="#F1EBE3"/>
<path d="M926 665C926 665.66 926 666.32 926 667C923.734 668.797 923.734 668.797 920.75 670.75C919.775 671.405 918.801 672.06 917.797 672.734C915 674 915 674 912.641 673.203C911.829 672.608 911.829 672.608 911 672C911 671.01 911 670.02 911 669C910.34 668.67 909.68 668.34 909 668C920.522 664.556 920.522 664.556 926 665Z" fill="#F4F4EF"/>
<path d="M273 828C285.54 828 298.08 828 311 828C311 828.33 311 828.66 311 829C294.665 829.495 294.665 829.495 278 830C277.67 831.65 277.34 833.3 277 835C274.236 832.597 273.959 831.837 273 828Z" fill="#E7D6BD"/>
<path d="M705.562 163.75C706.804 163.948 708.045 164.147 709.324 164.351C713.9 165.159 718.459 166.016 723 167C722.67 167.66 722.34 168.32 722 169C713.26 167.981 704.594 166.942 696 165C699.813 162.458 701.12 163.028 705.562 163.75Z" fill="#745036"/>
<path d="M538 141C540.475 141.495 540.475 141.495 543 142C539.11 144.29 534.914 145.122 530.562 146.125C529.812 146.307 529.061 146.489 528.287 146.676C524.453 147.573 520.968 148.237 517 148C517 147.34 517 146.68 517 146C519.748 145.301 522.497 144.616 525.25 143.938C526.027 143.738 526.805 143.539 527.605 143.334C528.36 143.15 529.114 142.967 529.891 142.777C530.928 142.518 530.928 142.518 531.985 142.254C534.251 141.968 535.837 142.319 538 143C538 142.34 538 141.68 538 141Z" fill="#E5DCD0"/>
<path d="M322 893C326.074 894.61 328.765 897.538 331.75 900.625C332.257 901.141 332.763 901.656 333.285 902.188C334.528 903.454 335.765 904.726 337 906C336.34 906.66 335.68 907.32 335 908C334.564 907.553 334.129 907.105 333.68 906.645C330.751 903.671 327.856 900.82 324.562 898.25C323.717 897.507 322.871 896.765 322 896C322 895.01 322 894.02 322 893Z" fill="#755035"/>
<path d="M513 331C516.681 332.536 518.988 334.782 521.75 337.625C522.549 338.442 523.348 339.26 524.172 340.102C525.077 341.041 525.077 341.041 526 342C525.01 343.485 525.01 343.485 524 345C523.385 344.313 522.77 343.626 522.137 342.918C521.328 342.017 520.52 341.116 519.688 340.188C518.887 339.294 518.086 338.401 517.262 337.48C515.548 335.601 513.821 333.774 512 332C512.33 331.67 512.66 331.34 513 331Z" fill="#735135"/>
<path d="M827 977C827.99 977.66 828.98 978.32 830 979C827.926 980.229 825.844 981.432 823.75 982.625C823.163 982.976 822.577 983.326 821.973 983.688C820.234 984.664 820.234 984.664 817 986C815.68 985.34 814.36 984.68 813 984C817.62 981.69 822.24 979.38 827 977Z" fill="#704C30"/>
<path d="M896 749C895.67 749.99 895.34 750.98 895 752C892.129 753.168 892.129 753.168 888.562 754.188C886.801 754.704 886.801 754.704 885.004 755.23C882 756 882 756 880 756C880.33 755.01 880.66 754.02 881 753C883.617 751.832 883.617 751.832 886.875 750.812C887.945 750.468 889.015 750.124 890.117 749.77C893 749 893 749 896 749Z" fill="#E8E8DE"/>
<path d="M788 824C788.746 825.734 788.746 825.734 789 828C787.347 830.141 787.347 830.141 785.062 832.25C784.311 832.956 783.559 833.663 782.785 834.391C782.196 834.922 781.607 835.453 781 836C780 834 780 834 780.637 831.871C780.983 831.068 781.33 830.265 781.687 829.438C782.021 828.632 782.355 827.826 782.699 826.996C784 825 784 825 786.144 824.223C787.063 824.112 787.063 824.112 788 824Z" fill="#48705E"/>
<path d="M906 680C906.99 680.33 907.98 680.66 909 681C905.638 685.252 902.252 688.638 898 692C897.34 691.34 896.68 690.68 896 690C899.3 686.7 902.6 683.4 906 680Z" fill="#3E6656"/>
<path d="M794 722C794.66 722 795.32 722 796 722C796 724.97 796 727.94 796 731C795.34 730.34 794.68 729.68 794 729C793.072 729.99 793.072 729.99 792.125 731C790 733 790 733 788 733C789.45 728.892 791.398 725.497 794 722Z" fill="#DFE0D9"/>
<path d="M314 527C314.66 527.33 315.32 527.66 316 528C314.509 531.795 312.243 533.61 309 536C308.34 535.34 307.68 534.68 307 534C309.31 531.69 311.62 529.38 314 527Z" fill="#734F35"/>
<path d="M724 518C724.66 518.33 725.32 518.66 726 519C722.815 521.639 719.729 524.183 716 526C713.688 525.688 713.688 525.688 712 525C713.983 523.017 715.512 522.206 718 521C718.99 520.34 719.98 519.68 721 519C721.99 518.67 722.98 518.34 724 518Z" fill="#CAA163"/>
<path d="M734 170C737.039 170.461 737.039 170.461 740.625 171.375C741.814 171.671 743.002 171.968 744.227 172.273C745.142 172.513 746.057 172.753 747 173C747 173.66 747 174.32 747 175C741.761 174.449 737.026 173.571 732 172C732.66 171.34 733.32 170.68 734 170Z" fill="#77543B"/>
<path d="M690 1023C690 1023.66 690 1024.32 690 1025C685.88 1026.29 682.332 1027.26 678 1027C677.67 1026.01 677.34 1025.02 677 1024C681.386 1023.3 685.558 1022.89 690 1023Z" fill="#79583D"/>
<path d="M908 761C908.33 761.66 908.66 762.32 909 763C907.254 763.392 905.503 763.763 903.75 764.125C902.775 764.334 901.801 764.543 900.797 764.758C897.766 765.02 896.52 764.62 894 763C898.842 761.664 902.934 760.747 908 761Z" fill="#416A59"/>
<path d="M741 728C742.188 729.625 742.188 729.625 743 732C741.625 735.25 741.625 735.25 740 738C739.34 738 738.68 738 738 738C738 738.66 738 739.32 738 740C737.34 740 736.68 740 736 740C737.311 735.766 738.944 731.926 741 728Z" fill="#44675A"/>
<path d="M846 394C844.552 397.444 842.723 399.361 839.875 401.75C838.788 402.67 838.788 402.67 837.68 403.609C837.125 404.068 836.571 404.527 836 405C835.34 404.34 834.68 403.68 834 403C835.619 401.494 837.246 399.995 838.875 398.5C839.78 397.665 840.685 396.829 841.617 395.969C844 394 844 394 846 394Z" fill="#F2EBE2"/>
<path d="M679 281.5C680.485 281.747 680.485 281.747 682 282C682 282.33 682 282.66 682 283C681.154 283 680.309 283 679.438 283C674.396 284.466 672.127 287.939 669 292C668.34 291.34 667.68 290.68 667 290C674.37 281.424 674.37 281.424 679 281.5Z" fill="#E9E1D8"/>
<path d="M670 160C671.702 160.278 671.702 160.278 673.438 160.562C674.283 160.707 675.129 160.851 676 161C676 161.33 676 161.66 676 162C669.258 162.129 662.696 161.798 656 161C656 160.67 656 160.34 656 160C660.997 159.082 665.009 159.092 670 160Z" fill="#816047"/>
<path d="M659 134C660.937 133.919 662.875 133.861 664.812 133.812C665.891 133.778 666.97 133.743 668.082 133.707C671 134 671 134 672.887 135.512C673.254 136.003 673.621 136.494 674 137C672.251 137.081 670.5 137.139 668.75 137.188C667.288 137.24 667.288 137.24 665.797 137.293C662.625 136.961 661.33 136.113 659 134Z" fill="#734F32"/>
<path d="M873 730C873.66 730.66 874.32 731.32 875 732C874.758 734.602 874.758 734.602 874.125 737.625C873.819 739.129 873.819 739.129 873.508 740.664C873.34 741.435 873.173 742.206 873 743C872.34 743 871.68 743 871 743C871.141 741.395 871.288 739.791 871.438 738.188C871.519 737.294 871.6 736.401 871.684 735.48C872 733 872 733 873 730Z" fill="#496A5E"/>
<path d="M782 914C782.66 914.33 783.32 914.66 784 915C781.69 917.97 779.38 920.94 777 924C776.34 923.34 775.68 922.68 775 922C777.31 919.36 779.62 916.72 782 914Z" fill="#E8E7DE"/>
<path d="M491 352C491.66 352.33 492.32 352.66 493 353C493 355 493 355 491.539 356.508C490.907 357.041 490.276 357.575 489.625 358.125C488.999 358.664 488.372 359.203 487.727 359.758C486 361 486 361 484 361C485.555 357.183 488.036 354.808 491 352Z" fill="#EEE7DD"/>
<path d="M945 739C943.75 742.653 943.329 743.781 940 746C939.67 745.34 939.34 744.68 939 744C939.33 743.01 939.66 742.02 940 741C939.34 740.67 938.68 740.34 938 740C940.491 739.313 942.379 739 945 739Z" fill="#DFE1DB"/>
<path d="M926 665C926 665.66 926 666.32 926 667C924.02 667.99 924.02 667.99 922 669C922 668.34 922 667.68 922 667C918.7 667.33 915.4 667.66 912 668C916.588 664.942 920.567 664.874 926 665Z" fill="#C5C8BD"/>
<path d="M347 270C347.66 270.33 348.32 270.66 349 271C346.69 273.64 344.38 276.28 342 279C341.34 278.34 340.68 277.68 340 277C342.31 274.69 344.62 272.38 347 270Z" fill="#F1EBE5"/>
<path d="M474 165C472.568 165.7 471.129 166.384 469.688 167.063C468.487 167.637 468.487 167.637 467.262 168.223C465 169 465 169 462 168C465.705 163.71 468.965 162.146 474 165Z" fill="#714C2F"/>
<path d="M479 551C479 551.99 479 552.98 479 554C477.02 554.66 475.04 555.32 473 556C472.34 555.34 471.68 554.68 471 554C476.75 551 476.75 551 479 551ZM471 556C473 557 473 557 473 557L471 556Z" fill="#D7B175"/>
<path d="M498 156C494.518 158.321 492.138 158.699 488 159C487.34 158.34 486.68 157.68 486 157C490.412 155.529 493.483 154.631 498 156Z" fill="#755236"/>
<path d="M804 905C795.738 909.592 795.738 909.592 791 909C795.257 905.531 798.559 903.386 804 905Z" fill="#D4D8CE"/>
<path d="M313 710C313 710.33 313 710.66 313 711C311.02 711 309.04 711 307 711C307 711.66 307 712.32 307 713C303.37 712.67 299.74 712.34 296 712C296 711.67 296 711.34 296 711C301.71 710.26 307.242 709.895 313 710Z" fill="#F0E1CA"/>
<path d="M303 538C303.33 538.66 303.66 539.32 304 540C301.59 544.705 301.59 544.705 299 546C298.34 545.34 297.68 544.68 297 544C298.98 542.02 300.96 540.04 303 538Z" fill="#735138"/>
<path d="M694 260C695.316 260.953 696.628 261.913 697.938 262.875C698.668 263.409 699.399 263.942 700.152 264.492C702 266 702 266 703 268C702.34 268.66 701.68 269.32 701 270C700.773 269.423 700.546 268.845 700.312 268.25C698.677 265.447 696.528 263.996 694 262C694 261.34 694 260.68 694 260Z" fill="#744C2E"/>
<path d="M363 931C366.796 931.542 368.472 933.201 371 936C366.483 936.366 366.483 936.366 364.188 934.625C363 933 363 933 363 931Z" fill="#724C2F"/>
<path d="M748 916C748.33 916 748.66 916 749 916C749.125 922.75 749.125 922.75 748 925C747.01 925 746.02 925 745 925C745.99 922.03 746.98 919.06 748 916Z" fill="#486B5C"/>
<path d="M794 790C795.625 791.625 795.625 791.625 797 794C796.188 797.25 796.188 797.25 795 800C794.34 799.67 793.68 799.34 793 799C793.33 796.03 793.66 793.06 794 790Z" fill="#416758"/>
<path d="M831 784C831.66 784.66 832.32 785.32 833 786C830.36 787.98 827.72 789.96 825 792C825 789 825 789 826.312 787.613C827.875 786.409 829.438 785.204 831 784Z" fill="#EAE7DD"/>
<path d="M879 770C879 770.99 879 771.98 879 773C877.02 773.66 875.04 774.32 873 775C872.34 774.34 871.68 773.68 871 773C876.75 770 876.75 770 879 770Z" fill="#426556"/>
<path d="M830 407C830.66 407.33 831.32 407.66 832 408C830.02 409.98 828.04 411.96 826 414C825.01 413.67 824.02 413.34 823 413C825.31 411.02 827.62 409.04 830 407Z" fill="#EFE7DF"/>
<path d="M527 145C523.488 147.408 521.273 148.366 517 148C517 147.34 517 146.68 517 146C518.289 145.637 519.582 145.285 520.875 144.938C521.594 144.74 522.314 144.543 523.055 144.34C525 144 525 144 527 145Z" fill="#EDE8DF"/>
<path d="M699 135C699 135.66 699 136.32 699 137C700.98 137 702.96 137 705 137C705 137.33 705 137.66 705 138C699.848 138.09 695.081 137.847 690 137C690 136.67 690 136.34 690 136C693.058 135.456 695.888 135 699 135Z" fill="#D9CDBF"/>
<path d="M765 964C765.33 964.66 765.66 965.32 766 966C766.66 966 767.32 966 768 966C768.33 968.64 768.66 971.28 769 974C766.203 971.932 765.973 970.856 765.312 967.312C765.209 966.219 765.106 965.126 765 964Z" fill="#4F6E5C"/>
<path d="M312 305C312.33 306.32 312.66 307.64 313 309C311.062 311.25 311.062 311.25 309 313C308.01 312.67 307.02 312.34 306 312C307.98 309.69 309.96 307.38 312 305Z" fill="#ECE5DD"/>
<path d="M542 171C541.67 171.99 541.34 172.98 541 174C538.69 174.33 536.38 174.66 534 175C534 174.01 534 173.02 534 172C536.763 171.403 539.16 171 542 171Z" fill="#ECE5DB"/>
<path d="M753 907C753.688 908.688 753.688 908.688 754 911C752.688 913.75 752.688 913.75 751 916C750.34 916 749.68 916 749 916C750.199 912.917 751.477 909.937 753 907Z" fill="#46685C"/>
<path d="M783 827C783.66 827 784.32 827 785 827C783.375 833.75 783.375 833.75 780 836C780.99 833.03 781.98 830.06 783 827Z" fill="#426353"/>
<path d="M954 816C954.66 816.99 955.32 817.98 956 819C954.68 820.65 953.36 822.3 952 824C951.34 823.67 950.68 823.34 950 823C951.32 820.69 952.64 818.38 954 816Z" fill="#E8E9DF"/>
<path d="M1016 783C1017 785 1017 785 1016.06 788.125C1015.71 789.074 1015.36 790.022 1015 791C1014.34 791 1013.68 791 1013 791C1012.67 791.66 1012.34 792.32 1012 793C1012.57 789.042 1013.81 786.334 1016 783Z" fill="#623B21"/>
<path d="M1029 752C1029.99 752 1030.98 752 1032 752C1031.67 753.65 1031.34 755.3 1031 757C1030.34 757 1029.68 757 1029 757C1029 757.66 1029 758.32 1029 759C1028.34 759 1027.68 759 1027 759C1027.66 756.69 1028.32 754.38 1029 752Z" fill="#704C32"/>
<path d="M218 706C219.32 706 220.64 706 222 706C222 706.66 222 707.32 222 708C221.34 708 220.68 708 220 708C220 710.31 220 712.62 220 715C218.142 711.865 217.799 709.625 218 706Z" fill="#F5EEE2"/>
<path d="M350 524C348.607 527.367 347.021 528.986 344 531C344 528 344 528 345.875 525.812C348 524 348 524 350 524Z" fill="#E9E1D8"/>
<path d="M511 150C507.466 152.121 504.056 152.532 500 153C500 152.34 500 151.68 500 151C504.122 149.371 506.707 148.738 511 150Z" fill="#E6DFD5"/>
<path d="M782 992C786.455 992.99 786.455 992.99 791 994C789.68 994.99 788.36 995.98 787 997C784.537 995.769 783.575 994.219 782 992Z" fill="#3B5847"/>
<path d="M838 971C838.99 971.66 839.98 972.32 841 973C839.35 973.33 837.7 973.66 836 974C836 974.66 836 975.32 836 976C834.68 975.34 833.36 974.68 832 974C833.98 973.01 835.96 972.02 838 971Z" fill="#724F32"/>
<path d="M777 838C777.66 838.33 778.32 838.66 779 839C777.02 841.97 777.02 841.97 775 845C774.34 844.67 773.68 844.34 773 844C774.152 841.532 775.048 839.952 777 838Z" fill="#D5B077"/>
<path d="M466 589C466.99 589.33 467.98 589.66 469 590C466.03 592.475 466.03 592.475 463 595C463 592 463 592 464.5 590.312C465.243 589.663 465.243 589.663 466 589Z" fill="#F7EEE0"/>
<path d="M296 573C295.67 573.99 295.34 574.98 295 576C291.7 575.67 288.4 575.34 285 575C285 574.67 285 574.34 285 574C286.458 573.832 287.917 573.666 289.375 573.5C290.187 573.407 290.999 573.314 291.836 573.219C294 573 294 573 296 573Z" fill="#DDD2C6"/>
<path d="M519 149C517.938 150.5 517.938 150.5 516 152C512.312 152.188 512.312 152.188 509 152C512.116 148.884 514.788 148.886 519 149Z" fill="#653D21"/>
</g>
<defs>
<clipPath id="clip0_19_418">
<rect width="1254" height="1254" fill="white"/>
</clipPath>
</defs>
</svg>
