<?xml version="1.0" encoding="utf-8" ?><svg xmlns="http://www.w3.org/2000/svg" xmlns:xlink="http://www.w3.org/1999/xlink" width="716" height="809" viewBox="0 0 716 809"><clipPath id="cl_3"><rect x="3.0517578e-05" y="-7.6293945e-05" width="716" height="808.99994"/></clipPath><g clip-path="url(#cl_3)"><path fill="#D1B27C" transform="matrix(1.22393 0 0 1.2239 -268.041 -223.974)" d="M235.053 195.949C232.101 195.052 229.857 194.63 227.445 192.732L226.915 191.732C227.939 190.756 228.802 190.439 230.284 190.36C238.703 189.914 247.232 189.813 255.686 189.891C271.46 190.037 287.434 189.318 303.169 190.076C305.046 190.166 306.085 191.142 307.201 192.546C311.725 198.676 316.305 204.601 321.108 210.517L369.625 269.718C377.079 278.955 384.601 288.135 392.192 297.259C396.385 302.254 403.818 310.145 407.172 315.435C411.198 319.552 414.789 325.049 417.163 327.434C424.475 337.166 433.116 346.962 440.846 356.47C459.433 379.554 478.243 402.459 497.272 425.18C505.873 435.545 516.836 448.132 524.872 458.847C525.631 444.429 525.176 425.884 525.277 411.099L525.532 320.858C529.233 321.202 533.068 321.504 536.749 321.91C537.31 390.441 537.366 458.974 536.918 527.505L525.274 527.614C514.828 513.598 503.89 500.853 492.716 487.406C480.458 472.703 468.333 457.89 456.343 442.968C439.777 422.462 423.007 402.122 406.034 381.95C399.198 373.694 388.616 359.768 381.605 352.347C374.648 358.133 370.033 364.069 364.719 371.316C346.606 396.022 335.13 422.963 332.234 453.662C327.584 502.943 344.752 548.263 375.743 585.97C400.032 615.521 429.447 636.08 463.984 651.753C468.954 654.009 480.405 660.033 485.086 660.99C490.741 662.872 496.423 664.677 502.128 666.403C504.57 667.291 510.922 668.517 513.861 669.192C532.569 673.487 549.377 675.115 568.538 676.017L568.523 685.807C498.43 685.165 431.309 657.4 381.245 608.339C313.046 542.444 297.237 439.043 355.273 360.887C360.467 353.893 366.678 347.563 372.744 341.325C353.611 316.126 330.522 292.267 311.841 266.168C311.228 286.401 311.736 308.949 311.829 329.292L312.022 428.478L312.016 492.913C312.011 510.753 310.76 530.296 314.625 547.716C315.699 552.557 317.932 558.057 318.93 562.616C322.148 577.309 330.115 587.021 344.851 590.866C345.556 591.049 345.708 592.117 345.8 592.744C343.943 594.885 316.242 593.637 311.57 593.668C301.895 593.8 292.22 593.826 282.544 593.745C279.996 593.728 269.053 594.178 267.919 592.613C268.965 589.374 279.726 585.355 283.672 581.418C288.729 576.617 293.83 568.764 295.654 561.899C302.121 537.554 300.33 507.97 300.439 482.91L300.688 390.58L300.702 304.814C300.701 290.065 300.733 275.383 300.579 260.586C300.844 250.542 292.356 243.137 286.362 235.679C272.561 218.503 256.538 202.826 235.053 195.949Z"/><path fill="#E0CAA5" transform="matrix(1.22393 0 0 1.2239 -268.041 -223.974)" d="M235.053 195.949C232.101 195.052 229.857 194.63 227.445 192.732L226.915 191.732C227.939 190.756 228.802 190.439 230.284 190.36C238.703 189.914 247.232 189.813 255.686 189.891C271.46 190.037 287.434 189.318 303.169 190.076C305.046 190.166 306.085 191.142 307.201 192.546C311.725 198.676 316.305 204.601 321.108 210.517L369.625 269.718C377.079 278.955 384.601 288.135 392.192 297.259C396.385 302.254 403.818 310.145 407.172 315.435C411.198 319.552 414.789 325.049 417.163 327.434C424.475 337.166 433.116 346.962 440.846 356.47C459.433 379.554 478.243 402.459 497.272 425.18C505.873 435.545 516.836 448.132 524.872 458.847C524.803 461.084 525.234 463.084 523.212 464.296C522.225 463.981 521.713 463.657 521.1 462.842C514.782 454.444 507.886 446.413 501.176 438.327L443.39 368.593L423.627 344.158C421.372 341.384 414.159 332.857 412.721 330.1L414.861 328.084L414.586 327.873C413.506 327.947 413.336 327.989 412.345 328.333L411.512 328.628C408.615 326.173 403.65 319.746 400.971 316.648C392.739 307.127 384.995 297.2 377.106 287.412L319.619 217.318C315.726 212.619 305.079 198.175 301.886 195.218C294.783 193.025 249.822 195.145 239.561 194.758C238.468 194.717 236.17 195.514 235.053 195.949Z"/><path fill="#D5BB8E" transform="matrix(1.22393 0 0 1.2239 -268.041 -223.974)" d="M485.086 660.99C490.741 662.872 496.423 664.677 502.128 666.403L500.083 667.715C496.1 668.003 488.178 664.546 484.542 662.506L485.086 660.99Z"/><path fill="#D5BB8E" transform="matrix(1.22393 0 0 1.2239 -268.041 -223.974)" d="M464.604 536.109C479.105 535.964 494.078 536.408 508.681 536.42C548.327 536.141 587.975 536.134 627.621 536.399L692.296 536.094C703.175 536.09 715.548 535.786 726.303 536.52C727.117 543.441 732.503 587.926 728.47 590.13C725.78 589.118 718.905 575.473 716.187 571.939C708.282 561.66 689.964 550.006 677.255 549.526C670.098 549.255 614.3 548.029 612.655 549.278L612.564 551.562L612.991 717.033L612.927 763.639C612.861 784.322 611.895 803.832 625.321 821.669C627.655 824.771 638.808 827.53 640.154 831.474C638.857 832.857 637.642 832.446 635.795 832.33C620.236 832.685 602.915 831.84 587.056 832.09C577.727 832.237 557.673 832.537 549.318 831.632L548.99 831.026C550.964 827.153 563.029 823.126 566.494 818.537C578.076 803.199 575.994 777.828 576.005 759.74L576.035 708.787L576.482 548.675C536.69 552.103 488.366 538.242 466.584 583.294C465.444 585.652 464.827 588.193 463.101 590.156C461.622 590.573 462.31 590.669 460.981 590.169C458.799 584.025 463.666 545.126 464.604 536.109Z"/><path fill="#E0CAA5" transform="matrix(1.22393 0 0 1.2239 -268.041 -223.974)" d="M635.795 832.33C634.01 831.764 631.293 831.774 629.345 831.683C628.022 828.36 627.276 828.782 624.348 826.51C621.188 824.259 618.572 822.049 616.113 819.029C610.052 811.583 608.927 801.365 608.543 791.925C607.818 774.107 608.019 756.099 608 738.214L608.091 653.854L608.027 589.441C608.016 584.397 607.431 555.167 608.98 552.452C610.768 551.277 610.134 551.63 612.564 551.562L612.991 717.033L612.927 763.639C612.861 784.322 611.895 803.832 625.321 821.669C627.655 824.771 638.808 827.53 640.154 831.474C638.857 832.857 637.642 832.446 635.795 832.33Z"/><path fill="#D5BB8E" transform="matrix(1.22393 0 0 1.2239 -268.041 -223.974)" d="M581.287 451.805C568.166 442.889 593.45 422.963 588.681 415.536L587.273 416.136L586.84 415.911L587.438 414.278L586.813 414.02C580.791 414.976 563.547 433.109 559.333 438.564C555.26 443.835 550.969 451.006 546.67 456.581L546.032 456.583C542.831 448.377 555.742 431.09 560.848 424.508C582.285 396.872 612.907 378.578 647.863 374.382C682.337 370.155 717.075 379.839 744.389 401.293C778.718 428.553 797.132 475.352 794.675 518.726C792.982 548.611 780.691 581.838 762.036 605.329C727.328 649.094 676.53 677.127 621 683.161C621.094 680.009 621.022 676.864 620.983 673.711C633.877 670.68 644.41 668.203 656.947 664.289C734.285 640.144 798.502 567.562 780.939 482.432C779.911 477.45 772.724 453.683 768.983 451.212C762.158 450.721 765.056 445.272 759.092 442.816C758.06 442.171 752.059 443.575 751.771 444.335C751.25 445.707 751.773 448.229 750.671 450.825C749.755 451.644 749.477 451.61 748.344 451.853C740.802 453.465 740.489 445.996 739.58 440.751C741.798 440.863 745.372 441.558 746.76 439.73C746.206 436.758 742.028 435.826 743.526 432.621C747.52 431.247 746.068 430.762 748.397 426.296L748.612 425.892C749.001 423.725 748.64 423.971 747.629 421.524C741.796 414.238 732.567 407.927 724.705 403.35C703.129 390.786 682.868 385.247 658.033 386.497C649.386 386.933 642.935 386.61 634.139 389.171C629.037 390.657 607.746 396.54 605.644 400.123C607.89 400.186 609.92 399.696 612.074 399.11C620.043 396.941 630.244 399.405 637.894 397.072L638.244 397.003C640.356 396.861 645.66 396.717 647.245 395.906C646.4 395.092 646.318 395.04 645.732 393.994C646.638 392.843 646.843 392.978 648.312 392.551L649.391 392.787L649.725 393.383C651.821 397.067 652.541 398.258 655.964 400.849L655.965 401.681C651.719 403.1 640.337 400.643 636.541 407.407C636.909 411.927 643.022 412.138 646.623 412.633C646.886 414.803 646.863 416.695 648.045 418.457L648.905 418.398C651.968 414.546 651.93 414.074 656.399 411.316C658.011 410.321 656.785 404.627 660.829 403.863C666.005 402.887 667.022 410.212 669.808 409.203C676.599 406.745 677.965 413.793 682.652 418.385C683.062 419.709 682.803 419.856 682.318 421.227L679.82 421.203L675.166 421.839C671.106 421.507 665.353 420.629 662.11 423.695L662.649 424.033L663.36 423.838C665.133 423.364 665.987 422.936 667.738 423.397C670.531 425.957 666.203 427.884 673.312 427.383C674.169 427.676 673.741 427.427 674.498 428.277C672.486 432.15 667.779 431.853 664.299 430.651C660.103 431.061 652.942 437.311 648.686 440.109C646.459 447.751 642.944 448.273 636.258 452.894C636.866 455.958 638.18 461.812 635.116 463.774L634.049 463.125C632.578 460.892 632.461 459.039 631.953 456.399C629.423 455.808 624.294 454.667 621.802 455.084L621.269 456.619C619.847 457.512 615.444 456.852 613.006 457.213C606.678 458.151 604.445 474.426 610.222 476.994C614.681 478.977 618.019 472.463 621.366 471.007C623.031 471.179 622.373 470.832 623.462 471.965C623.287 475.099 621.94 479.708 621.128 482.901C624.146 482.931 626.488 483.097 629.481 483.348C629.799 490.454 626.596 495.72 635.113 497.122L635.766 497.225C635.41 497.947 633.449 499.061 632.605 499.636C625.617 496.109 625.001 495.071 621.026 488.362C616.46 486.964 612.587 484.404 610.687 483.83C601.384 481.018 601.229 482.005 592.64 476.693C592.598 475.906 592.405 472.851 592.22 472.282C591.146 468.976 586.373 455.998 583.936 454.457L583.414 455.197C583.262 460.823 585.651 465.75 587.393 471.118C581.769 464.201 581.398 460.377 581.287 451.805Z"/><path fill="#121212" transform="matrix(1.22393 0 0 1.2239 -268.041 -223.974)" d="M747.629 421.524C749.401 423.271 754.221 428.847 755.654 430.94C752.531 429.025 751.354 428.296 748.612 425.892C749.001 423.725 748.64 423.971 747.629 421.524Z"/><path fill="#D5BB8E" transform="matrix(1.22393 0 0 1.2239 -268.041 -223.974)" d="M312.761 626.181C325.005 625.187 337.586 627.164 349.118 631.196C353.108 632.591 362.779 635.214 366.179 636.936C386.422 647.193 404.472 663.318 423.738 675.173C437.133 683.362 453.011 690.79 467.954 694.885C491.996 701.472 514.321 701.166 537.708 693.036C538.392 692.798 539.316 693.01 539.994 693.3L539.826 694.034C537.211 696.072 534.711 696.648 531.737 698.022C518.003 704.368 504.355 707.381 489.345 708.799C481.05 710.246 465.363 708.696 457.289 706.975C437.574 702.771 415.567 692.823 399.237 680.842C379.149 666.104 362.441 652.496 338.544 643.697C322.079 637.634 301.846 636.647 284.966 641.896C278.846 643.799 271.621 647.335 265.65 650.078L266.224 649.352C276.857 636.153 296.181 628.075 312.761 626.181Z"/><path fill="#375245" transform="matrix(1.22393 0 0 1.2239 -268.041 -223.974)" d="M306.679 653.661C342.599 650.803 374.414 670.881 386.686 704.912C376.983 701.797 370.661 699.753 362.129 693.81C353.403 687.731 343.937 678.992 334.322 674.614C344.628 682.613 351.999 691.656 362.743 699.372C380.29 710.69 385.686 709.166 406.478 707.619L407.099 708.234L406.858 709.303C402.283 713.975 379.029 719.314 372.261 719.757C348.562 721.307 332.635 712.149 319.207 692.949C315.012 686.951 311.257 679.113 306.878 673.507C303.775 669.535 296.087 663.3 292.069 659.928L292.632 658.607C296.086 655.492 302.174 654.307 306.679 653.661Z"/><path fill="#D1B27C" transform="matrix(1.22393 0 0 1.2239 -268.041 -223.974)" d="M470.373 296.131C482.579 290.761 516.958 293.446 531.241 296.93C532.408 297.215 533.651 298.738 534.446 299.689C536.053 300.237 536.556 300.179 538.212 300.238L538.98 299.582C543.56 298.275 582.198 316.178 589.433 320.185C605.767 329.23 632.066 349.301 643.883 363.402C644.603 363.993 645.727 365.611 646.35 366.428C642.559 367.158 639.516 367.68 635.69 368.13C632.832 366.359 620.926 355.191 616.354 351.614C597.371 336.76 578.014 327.75 555.476 319.761C513.086 304.737 457.841 307.33 417.163 327.434C414.789 325.049 411.198 319.552 407.172 315.435C409.19 314.828 411.968 313.508 413.904 312.612C428.981 305.633 444.938 299.525 461.642 298.222C464.457 298.002 468.005 297.782 470.373 296.131Z"/><path fill="#E0CAA5" transform="matrix(1.22393 0 0 1.2239 -268.041 -223.974)" d="M538.98 299.582C543.56 298.275 582.198 316.178 589.433 320.185C605.767 329.23 632.066 349.301 643.883 363.402C643.539 363.87 643.244 363.985 642.734 364.343C637.698 363.132 628.671 351.143 623.856 347.251C603.597 330.875 581.712 317.281 557.071 308.518C550.661 306.238 542.966 304.641 536.115 302.346C536.974 301.894 537.838 301.763 538.885 301.165L538.98 299.582Z"/><path fill="#D5BB8E" transform="matrix(1.22393 0 0 1.2239 -268.041 -223.974)" d="M470.373 296.131C482.579 290.761 516.958 293.446 531.241 296.93C532.408 297.215 533.651 298.738 534.446 299.689C536.053 300.237 536.556 300.179 538.212 300.238L538.98 299.582L538.885 301.165C537.838 301.763 536.974 301.894 536.115 302.346C534.168 302.356 528.915 301.587 526.805 301.223C508.774 298.117 491.127 299.238 473.014 298.864C471.92 298.842 470.941 297.005 470.373 296.131Z"/><path fill="#D5BB8E" transform="matrix(1.22393 0 0 1.2239 -268.041 -223.974)" d="M525.543 289.311C525.337 256.525 529.071 205.04 489.318 193.091C488.89 192.962 488.961 191.592 488.94 191.241C489.076 191.159 489.205 191.063 489.349 190.996C491.708 189.916 561.439 190.141 568.216 190.432C569.973 190.507 571.685 190.647 573.311 191.356C573.48 192.623 572.311 193.022 571.034 193.707C560.801 199.194 556.115 199.421 549.881 209.53C542.037 223.784 541.105 225.895 538.826 241.673C538.481 246.921 537.405 252.851 537.261 258.075C536.957 269.121 536.873 280.139 536.547 291.198L525.543 289.311Z"/><path fill="#E0CAA5" transform="matrix(1.22393 0 0 1.2239 -268.041 -223.974)" d="M538.826 241.673C537.505 237.342 539.977 234.105 539.293 231.066L537.059 230.415L537.039 229.632C537.46 229.515 537.881 229.399 538.301 229.282C539.218 223.105 540.384 214.469 545.568 210.307C547.196 209 547.939 209.282 549.881 209.53C542.037 223.784 541.105 225.895 538.826 241.673Z"/><path fill="#D5BB8E" transform="matrix(1.22393 0 0 1.2239 -268.041 -223.974)" d="M751.176 454.116C755.179 453.889 757.234 454.118 761.197 454.611C762.21 459.045 764.326 463.368 768.985 465.137C769.394 465.292 770.42 464.337 772.202 464.954C778.238 481.364 781.098 498.772 780.631 516.25C780.373 526.332 773.792 561.005 768.008 566.545C767.23 565.081 767.58 564.306 767.628 562.377C768.449 546.658 774.317 534.351 769.538 519.041C768.726 516.438 771.152 512.273 768.69 508.676C766.443 507.76 765.9 507.274 764.151 505.583C744.862 512.441 746.959 505.755 737.614 491.538C737.459 486.784 736.711 474.728 738.296 471.043C741.276 464.116 743.028 463.584 744.491 455.533C746.534 454.969 749.064 454.536 751.176 454.116Z"/><path fill="#D1B27C" transform="matrix(1.22393 0 0 1.2239 -268.041 -223.974)" d="M646.56 490.323C648.029 490.358 648.157 490.24 649.461 490.835C649.973 492.724 649.257 492.872 648.738 495.321L649.546 495.712L650.299 495.29C650.556 493.662 650.574 492.387 651.516 491.066C653.538 490.668 655.909 492.72 657.577 492.817C661.368 493.038 664.291 493.107 668.095 493.623C670.768 497.726 673.121 501.592 678.014 503.101C686.283 505.652 687.686 506.018 687.489 514.789C689.89 517.79 709.976 519.952 713.032 528.347C712.298 532.384 708.43 531.829 705.2 531.699C695.07 531.856 642.108 533.055 636.141 530.952C630.614 526.023 634.593 513.42 638.255 508.464C639.91 506.224 637.961 499.693 637.287 497.065L637.826 496.296C641.793 496.176 643.554 493.397 646.56 490.323Z"/><path fill="#D1B27C" transform="matrix(1.22393 0 0 1.2239 -268.041 -223.974)" d="M655.591 553.383C670.32 553.369 681.187 554.193 695.047 559.221C690.82 566.578 692.413 570.063 685.217 579.207C682.975 579.599 680.741 579.846 678.482 580.124L677.963 581.616C680.54 590.108 675.754 585.133 671.17 590.644C670.683 591.229 669.432 591.133 668.717 591.208C669.626 592.533 669.634 592.507 670.147 594.021C669.509 596.565 669.249 599.189 669.377 601.808C669.473 603.916 669.421 605.911 669.39 608.017C671.147 608.586 673.172 608.82 673.422 610.812C670.925 612.399 661.629 608.423 660.458 606.239C653.316 592.912 655.517 568.25 655.591 553.383Z"/><path fill="#D5BB8E" transform="matrix(1.22393 0 0 1.2239 -268.041 -223.974)" d="M659.369 392.855C665.758 391.773 668.661 392.844 674.621 395.083C676.665 397.594 677.043 398.646 679.611 401.328C670.283 404.361 676.389 407.068 665.389 403C663.123 402.658 662.094 402.877 660.474 401.593L660.894 400.978C662.793 400.724 664.698 400.519 666.607 400.364C667.643 399.082 667.58 399.162 668.087 397.584C667.468 395.61 668.048 396.317 666.447 395.269C662.825 395.032 659.551 397.304 656.296 399.053C654.563 398.978 655.223 399.332 654.085 398.363C654.592 396.957 654.831 397.238 656.55 396.278C657.612 394.409 657.677 394.055 659.369 392.855Z"/><path fill="#D5BB8E" transform="matrix(1.22393 0 0 1.2239 -268.041 -223.974)" d="M734.653 418.696C738.304 420.039 744.644 426.171 744.139 430.093C742.852 431.407 743.398 431.008 741.073 431.182C739.99 429.34 738.941 424.828 737.927 424.12L737.318 424.597C737.124 425.977 737.091 426.118 736.624 427.43C733.454 426.983 734.483 421.058 734.653 418.696Z"/><path fill="#D5BB8E" transform="matrix(1.22393 0 0 1.2239 -268.041 -223.974)" d="M637.894 397.072C635.117 397.171 626.885 396.614 624.906 394.982L625.182 394.293C628.265 392.985 638.976 391.899 641.551 393.668C641.153 395.654 639.939 395.992 638.244 397.003L637.894 397.072Z"/><path fill="#D5BB8E" transform="matrix(1.22393 0 0 1.2239 -268.041 -223.974)" d="M629.738 469.636C637.502 468.395 640.088 470.415 646.148 474.627L645.793 474.961C640.309 475.766 639.05 472.753 633.636 471.287C631.912 470.82 631.529 471.177 629.599 470.547L629.738 469.636Z"/><path fill="#121212" fill-opacity="0.011764706" transform="matrix(1.22393 0 0 1.2239 -268.041 -223.974)" d="M673.312 427.383C666.203 427.884 670.531 425.957 667.738 423.397C665.987 422.936 665.133 423.364 663.36 423.838L662.649 424.033L662.11 423.695C665.353 420.629 671.106 421.507 675.166 421.839C674.031 421.887 674.499 421.666 673.744 422.458L672.568 422.256C674.214 423.28 673.69 422.569 674.164 424.479C673.454 424.201 672.994 424.091 672.214 423.968L672.053 424.663L673.515 424.931L673.592 425.691C672.245 426.846 673.019 426.391 671.002 426.751L672.38 426.791L672.719 427.203L673.312 427.383Z"/><path fill="#E0CAA5" transform="matrix(1.22393 0 0 1.2239 -268.041 -223.974)" d="M682.318 421.227C682.996 423.964 685.944 424.932 685.294 427.568C683.937 427.765 678.781 426.329 678.633 424.704C678.552 423.822 679.421 422.086 679.82 421.203L682.318 421.227Z"/><path fill="#D1B27C" transform="matrix(1.22393 0 0 1.2239 -268.041 -223.974)" d="M687.153 401.128C690.044 401.724 694.01 407.179 697.522 410.09C690.912 409.516 688.853 407.187 687.153 401.128Z"/><path fill="#D5BB8E" transform="matrix(1.22393 0 0 1.2239 -268.041 -223.974)" d="M647.984 475.653C650.241 475.462 653.226 475.008 654.882 476.954L654.603 477.766L653.368 478.139C650.878 478.562 648.082 479.293 645.926 478.066C646.306 476.479 646.299 476.922 647.984 475.653Z"/></g></svg>