<?xml version="1.0" encoding="utf-8" ?><svg xmlns="http://www.w3.org/2000/svg" xmlns:xlink="http://www.w3.org/1999/xlink" width="1423" height="530" viewBox="0 0 1423 530"><clipPath id="cl_3"><rect width="1423" height="530"/></clipPath><g clip-path="url(#cl_3)"><path fill="#3F6556" transform="translate(-377 -81)" d="M1322.4 306.248C1334.89 292.868 1337.48 283.194 1339.64 265.115C1344.58 223.74 1383.95 203.366 1422.86 202.051C1430.15 201.876 1437.43 201.747 1444.71 201.664C1444.94 236.031 1447.9 255.901 1421.73 284.343C1408.21 299.046 1392.08 302.357 1378.99 312.531C1350.3 334.318 1305.47 344.277 1275.81 318.915C1273.08 315.278 1271.68 312.764 1269.47 308.825C1269.39 304.865 1268.75 303.791 1271.57 301.128C1275.34 300.536 1276.07 300.722 1279.83 301.576C1284.85 308.313 1287.62 310.866 1295.02 314.851C1302.1 316.935 1307.95 318.135 1315.41 317.572C1366.63 307.888 1350.24 269.478 1408.45 283.944C1396.27 277.438 1390.7 276.235 1377.11 275.356C1395.78 259.044 1401.62 258.478 1422.98 251.992C1419.52 244.305 1391.27 258.602 1384.75 261.367C1379.55 256.303 1388.22 244.075 1387.14 238.069L1386.17 237.342C1381.29 242.827 1376.82 258.809 1376.32 266.722C1355.99 280.314 1346.42 293.991 1322.4 306.248Z"/><path fill="#624028" transform="translate(-377 -81)" d="M1269.47 308.825C1269.39 304.865 1268.75 303.791 1271.57 301.128C1275.34 300.536 1276.07 300.722 1279.83 301.576C1284.85 308.313 1287.62 310.866 1295.02 314.851C1302.1 316.935 1307.95 318.135 1315.41 317.572C1317.39 317.649 1318.1 317.657 1319.84 318.641C1337.89 328.87 1363.67 313.879 1378.63 312.56L1378.99 312.531C1350.3 334.318 1305.47 344.277 1275.81 318.915C1273.08 315.278 1271.68 312.764 1269.47 308.825Z"/><path fill="#6D4A2F" transform="translate(-377 -81)" d="M1269.47 308.825C1269.39 304.865 1268.75 303.791 1271.57 301.128C1275.34 300.536 1276.07 300.722 1279.83 301.576C1284.85 308.313 1287.62 310.866 1295.02 314.851C1291.27 318.869 1281.19 318.7 1275.81 318.915C1273.08 315.278 1271.68 312.764 1269.47 308.825Z"/><path fill="#66442B" transform="translate(-377 -81)" d="M1539.04 429.33C1538.14 413.665 1538.48 397.704 1538.29 382.004C1538.16 371.187 1537.3 366.736 1525.7 365.725L1525.69 364.574C1532.86 363.808 1540.33 364.622 1547.6 364.575C1567.94 364.441 1589.9 361.734 1607.05 375.121C1621.93 386.732 1622.9 410.74 1611.2 424.897C1604.37 433.158 1596.21 436.754 1586.27 440.145C1594.9 447.359 1601.21 454.077 1608.53 462.593C1637.57 496.387 1654.32 534.274 1705.35 515.2C1693.53 524.812 1681.71 526.794 1666.79 525.614C1630.05 522.712 1612.01 492.251 1591.55 466.038C1578.88 449.801 1575.9 442.343 1554.07 441.514C1543.82 436.494 1542.38 442.808 1539.04 429.33ZM1554.15 437.434C1568.14 437.949 1579.08 438.936 1590.24 428.722C1603.6 413.773 1605.47 391.668 1590.37 376.72C1581.6 368.036 1566.07 368.62 1554.47 368.896C1554.78 391.742 1554.67 414.592 1554.15 437.434Z"/><path fill="#624028" transform="translate(-377 -81)" d="M1386.97 364.316C1408.23 364.324 1443.95 362.039 1463.07 368.098C1468.88 370.928 1473.79 373.406 1478.22 378.288C1493.72 399.422 1491.09 415.468 1470.61 432.274C1466.76 435.433 1454.92 439.282 1454.39 440.876L1458.25 443.25C1453.66 447.299 1451 444.338 1445.15 449.154C1438.57 443.85 1435.85 441.945 1427.64 440.121C1425.58 440.585 1423.9 440.8 1422.23 442.116C1420.99 453.984 1421.78 466.103 1422.03 477.958C1422.33 492.171 1427.55 491.97 1439.61 495.545C1422.92 495.882 1406.22 495.887 1389.52 495.563C1393.49 494.287 1401.65 492.394 1403.76 488.557C1407.52 481.742 1408.02 384.719 1405.29 374.053C1399.79 364.859 1397.18 366.441 1386.97 364.316ZM1421.66 368.461C1422.96 385.203 1423.59 418.176 1422.37 435.344L1423.64 436.811C1455.92 444.089 1479.36 414.068 1463.87 384.015C1460.87 379.788 1458.95 377.919 1455.29 374.264C1447.27 369.674 1443.81 368.805 1434.62 367.95C1429.84 368.548 1426.48 368.494 1421.66 368.461Z"/><path fill="#66442B" transform="translate(-377 -81)" d="M1463.07 368.098C1468.88 370.928 1473.79 373.406 1478.22 378.288C1493.72 399.422 1491.09 415.468 1470.61 432.274C1466.76 435.433 1454.92 439.282 1454.39 440.876L1458.25 443.25C1453.66 447.299 1451 444.338 1445.15 449.154C1438.57 443.85 1435.85 441.945 1427.64 440.121C1425.48 439.801 1424.12 439.5 1422.01 438.965L1421.37 437.545L1422.37 435.344L1423.64 436.811C1455.92 444.089 1479.36 414.068 1463.87 384.015C1460.87 379.788 1458.95 377.919 1455.29 374.264C1459.17 372.038 1460.04 371.516 1463.07 368.098Z"/><path fill="#624028" transform="translate(-377 -81)" d="M1463.07 368.098C1468.88 370.928 1473.79 373.406 1478.22 378.288C1474.03 378.298 1469.61 377.791 1466.2 380.021C1465 381.661 1464.62 382.134 1463.87 384.015C1460.87 379.788 1458.95 377.919 1455.29 374.264C1459.17 372.038 1460.04 371.516 1463.07 368.098Z"/><path fill="#66442B" transform="translate(-377 -81)" d="M1386.97 364.316C1408.23 364.324 1443.95 362.039 1463.07 368.098C1460.04 371.516 1459.17 372.038 1455.29 374.264C1447.27 369.674 1443.81 368.805 1434.62 367.95C1431.95 365.787 1428.73 366.315 1424.68 366.01L1427.53 365.723C1424.96 365.774 1420.97 365.641 1418.68 366.417L1419.86 366.569C1415.5 368.013 1406.66 369.762 1405.29 374.053C1399.79 364.859 1397.18 366.441 1386.97 364.316Z"/><path fill="#66442B" transform="translate(-377 -81)" d="M696.746 310.859C699.774 310.249 703.365 309.823 706.368 309.722C805.773 306.388 885.536 236.797 945.335 163.48C949.405 158.49 958.512 145.68 964.033 143.29C981.323 135.805 991.751 163.861 1006.09 169.737C1009.16 169.489 1008.26 169.535 1010.9 166.676C1014.59 167.922 1019.39 168.494 1021.03 172.153C1015.36 178.224 1010.71 182.761 1004.6 188.39C1000.88 187.71 998.855 186.624 995.474 185.058C997.022 183.439 997.812 182.875 998.106 180.596C995.683 175.453 978.474 165.099 972.776 161.221C965.241 168.48 957.866 175.877 951.111 183.882C937.299 200.247 921.634 214.901 905.533 229.011C841.893 284.779 782.948 317.541 696.746 310.859Z"/><path fill="#D1A86E" transform="translate(-377 -81)" d="M1033.7 207.173C1041.05 199.305 1054.61 197.639 1065.05 196.369C1059.05 198.696 1051.86 200.469 1049.1 206.188C1049.81 210.597 1052.08 210.809 1056.05 212.238C1074.54 218.9 1179.26 214.14 1185.07 233.515C1181.86 252.884 1077.97 251.076 1069.21 271.495C1069.63 278.178 1078.82 282.06 1084.63 282.072C1090.23 288.986 1132.53 294.699 1142.48 295.938C1152.64 297.205 1165.57 296.615 1175.19 297.517C1138.53 304.953 1102.71 301.309 1066.78 292.104C1057.59 289.749 1032.95 284.619 1031.02 274.49C1034.75 251.497 1137.8 250.626 1155.56 236.998C1156.43 236.328 1155.92 234.759 1155.74 233.413C1142.64 215.895 1058.11 225.806 1035.93 211.879C1035.35 211.055 1034.18 208.244 1033.7 207.173Z"/><path fill="#66442B" transform="translate(-377 -81)" d="M1265.72 364.441C1293.08 363.224 1330.36 364.287 1358.46 364.251C1358.69 368.782 1359.85 387.483 1358.4 390.571C1355.58 388.329 1354.05 378.715 1349.32 374.371C1340.22 366.013 1307.94 368.738 1294.64 368.817C1295.04 387.107 1294.46 407.659 1294.31 426.07C1305 426.226 1322.27 427.426 1332.32 424.167C1338.86 422.046 1337.41 418.014 1339.46 413.109C1342.87 417.394 1342.9 440.385 1341.91 446.053L1340.55 446.589C1337.5 443.615 1340.39 438.637 1334.31 434.624C1326.3 429.34 1304.1 429.177 1295.53 431.16C1293.54 433.302 1294.18 436.835 1294.06 440.5C1293.89 449.593 1292.69 478.817 1294.73 485.917C1299.16 492.556 1313.19 491.436 1320.39 491.286C1333.31 491.018 1351.69 492.188 1359.68 479.906C1361.69 476.815 1363.99 475.815 1364.35 471.644L1365.13 472.011C1366.84 477.219 1365.84 489.781 1365.57 495.858C1336.34 495.945 1286.72 497.498 1259.05 495.445C1264.17 494.396 1272.31 493.852 1275.94 489.852C1280.46 484.858 1279.5 394.714 1279.12 379.793C1279.05 377.055 1279.14 373.402 1276.99 371.416C1276.88 371.31 1276.76 371.208 1276.65 371.102C1273.32 368.005 1269.91 366.868 1265.67 365.506L1265.72 364.441Z"/><path fill="#66442B" transform="translate(-377 -81)" d="M424.989 337.304C449.962 350.06 458.792 363.488 475.765 384.697C494.098 407.605 510.891 431.429 529.303 454.236C534.553 460.627 543.724 474.514 549.326 479.024L552.186 479.518C552.909 481.899 552.834 482.497 552.784 484.94C553.525 485.668 554.215 486.484 555.143 486.903C558.635 489.885 566.244 502.944 574.591 509.658C590.983 522.842 602.288 524.019 622.518 522.747C593.978 533.386 559.932 516.813 542.19 494.163C536.363 486.724 530.231 479.457 524.349 472.034L476.297 410.457C468.356 400.303 458.906 387.511 450.459 378.208C447.128 375.457 449.44 375.196 447.42 369.729L445.219 368.837C444.376 368.178 439.512 361.728 438.436 360.426C430.766 351.144 425.991 347.086 416.04 340.458C420.498 340.199 421.227 339.911 424.989 337.304Z"/><path fill="#66442B" transform="translate(-377 -81)" d="M1104.5 348.704C1132.21 327.79 1171.74 344.592 1202.81 347.982C1216.8 349.51 1223.99 349.684 1237.74 347.262L1251.4 347.027C1249.2 350.412 1242.77 359.877 1239.44 361.124C1237.24 359.358 1237.34 357.588 1234.77 357.207C1218.98 354.873 1203.37 353.457 1187.67 350.335C1188.1 377.283 1188.23 404.235 1188.05 431.185C1187.96 448.44 1186.88 467.944 1189.43 484.93C1190.43 491.609 1201.2 494.122 1207.05 496.109C1189.43 496.087 1168.19 496.577 1150.86 495.749C1156.23 494.558 1166.6 493.431 1169.9 488.506C1174.89 481.065 1172.41 365.847 1172.38 347.66C1151.22 343.951 1136.44 340.655 1116.21 349.849C1113.48 349.76 1107.97 348.917 1104.5 348.704Z"/><path fill="#66442B" transform="translate(-377 -81)" d="M1015.85 160.029C1030.49 140.083 1046.95 118.444 1062.66 99.3479C1076.28 82.8052 1086.89 100.711 1096.54 110.909C1109.65 124.61 1122.48 138.575 1135.03 152.795C1137.29 154.583 1138.13 155.383 1140.08 157.513L1143.07 161.797C1140.66 164.426 1139.41 164.192 1135.22 164.385C1133.71 164.443 1132.19 164.474 1130.68 164.476L1127.25 162.013C1126.07 160.622 1121.58 156.733 1120.01 155.297C1105.12 141.604 1090.15 128.001 1075.09 114.488C1061.23 129.325 1062.43 139.348 1065.92 157.835C1061.14 156.003 1055.62 153.708 1050.68 152.649C1042.67 154.802 1032.7 158.655 1027.54 165.559C1025.65 167.566 1023.08 170.467 1021.03 172.153C1019.39 168.494 1014.59 167.922 1010.9 166.676L1015.85 160.029Z"/><path fill="#624028" transform="translate(-377 -81)" d="M1135.03 152.795C1137.29 154.583 1138.13 155.383 1140.08 157.513L1143.07 161.797C1140.66 164.426 1139.41 164.192 1135.22 164.385C1133.71 164.443 1132.19 164.474 1130.68 164.476L1127.25 162.013C1126.07 160.622 1121.58 156.733 1120.01 155.297C1124.61 154.787 1130.83 154.355 1135.03 152.795Z"/><path fill="#6D4A2F" transform="translate(-377 -81)" d="M1127.25 162.013C1130.12 158.182 1135.2 158.257 1140.08 157.513L1143.07 161.797C1140.66 164.426 1139.41 164.192 1135.22 164.385C1133.71 164.443 1132.19 164.474 1130.68 164.476L1127.25 162.013Z"/><path fill="#624028" transform="translate(-377 -81)" d="M1015.85 160.029C1018.84 163.95 1022.08 163.881 1027.54 165.559C1025.65 167.566 1023.08 170.467 1021.03 172.153C1019.39 168.494 1014.59 167.922 1010.9 166.676L1015.85 160.029Z"/><path fill="#66442B" transform="translate(-377 -81)" d="M1084.63 282.072C1122.79 288.777 1175.86 291.104 1209.97 270.782C1242.66 251.31 1259.18 228.605 1302.15 247.111C1299.12 251.831 1300.55 251.123 1295.32 252.441C1254.87 245.793 1240.65 278.124 1205.78 289.844C1197.35 292.678 1184.18 296.779 1175.19 297.517C1165.57 296.615 1152.64 297.205 1142.48 295.938C1132.53 294.699 1090.23 288.986 1084.63 282.072Z"/><path fill="#66442B" transform="translate(-377 -81)" d="M1143.07 161.797C1150.66 164.57 1173.71 134.413 1184.82 142.035C1208.01 157.946 1227.93 181.078 1249.06 199.756C1258.43 208.334 1278.37 225.307 1284.4 232.303C1242.91 212.647 1213.5 185.879 1176.68 159.272C1176.05 158.816 1172.54 156.996 1171.97 157.154C1156.83 161.331 1143.54 174.131 1130.53 182.328C1133.37 178.504 1135.95 174.852 1139.25 171.403L1130.68 164.476C1132.19 164.474 1133.71 164.443 1135.22 164.385C1139.41 164.192 1140.66 164.426 1143.07 161.797Z"/><path fill="#624028" transform="translate(-377 -81)" d="M978.172 371.21L979.099 374.166C980.963 375.914 980.032 375.474 982.648 375.762C986.476 373.336 985.28 374.318 987.536 369.802C988.66 373.426 989.707 377.008 991.14 380.524C995.806 393.334 1002.51 407.773 1007.94 420.499L1009.92 425.121C1017.58 444.936 1026.94 467.382 1036.88 486.256C1039.61 491.441 1048.2 493.834 1053.53 495.649C1047.4 495.697 1011.24 496.562 1007.8 495.227L1007.85 493.96C1011.1 493.016 1014.21 492.494 1016.36 489.903C1020.27 479.343 1001.91 450.395 1000.95 441.892C1000.05 438.953 1000.02 436.719 998.175 434.811C994.515 426.05 981.374 393.62 977.317 387.74L979.686 386.649C977.132 384.161 978.373 385.382 974.485 384.523L974.435 379.304L978.172 371.21Z"/><path fill="#6D4A2F" transform="translate(-377 -81)" d="M1009.92 425.121L1007.56 427.125C1003.36 427.378 1000.96 427.783 996.973 426.239L996.519 424.95C999.292 421.526 1003.57 421.306 1007.94 420.499L1009.92 425.121Z"/><path fill="#D1A86E" transform="translate(-377 -81)" d="M1024.29 357.659C1027.84 355.995 1031.35 354.285 1034.85 352.531C1039.92 349.959 1045.39 347.137 1047.21 341.547C1042.53 319.507 930.98 316.394 933.88 293.556C939.994 284.414 948.465 283.294 958.539 280.787C962.925 281.245 965.086 281.235 968.898 283.597C963.147 286.505 958.486 288.247 959.074 295.041C970.023 313.14 1059.31 316.778 1071.44 336.916C1073.32 351.908 1035.5 355.94 1024.29 357.659Z"/><path fill="#66442B" transform="translate(-377 -81)" d="M593.251 364.139C609.307 364.374 625.365 364.521 641.423 364.58L641.607 365.578C630.858 366.592 628.506 372.724 628.276 382.311C627.996 393.819 628.024 405.359 628.09 416.873C628.226 440.766 625.678 462.765 642.983 481.942C645.472 483.587 647.556 485.018 649.93 486.824C645.957 490.619 644.652 488.649 640.504 491.571C636.084 489.339 633.233 487.252 629.192 484.407C623.894 479.592 618.58 472.998 616.374 465.823C609.72 444.179 614.059 415.491 613.387 392.732C613.182 385.773 614.397 378.795 611.465 372.103C608.883 366.209 600.425 366.488 593.251 364.139Z"/><path fill="#624028" transform="translate(-377 -81)" d="M642.983 481.942C645.472 483.587 647.556 485.018 649.93 486.824C645.957 490.619 644.652 488.649 640.504 491.571C636.084 489.339 633.233 487.252 629.192 484.407C633.851 485.859 639.85 485.988 642.983 481.942Z"/><path fill="#D1A86E" transform="translate(-377 -81)" d="M1108.41 544.493C1121.75 544.166 1135.31 542.405 1147.07 548.615C1150.9 551.09 1151.44 552.133 1153.59 555.961C1157.93 567.375 1157.25 573.695 1146.29 581.097C1144.77 582.12 1143.05 582.49 1142 584L1141.22 586.22C1139.1 586.558 1138.16 586.665 1135.98 586.721C1131.75 582.844 1123.61 584.22 1117.51 584.441C1117.58 588.779 1118.32 598.751 1116.02 601.491C1112.63 601.718 1111.92 601.714 1108.62 601.008C1108.89 582.17 1108.82 563.328 1108.41 544.493ZM1117.77 577.123C1133.11 577.973 1141.7 580.784 1147.63 564.009C1144.39 556.245 1144.67 555.138 1137.28 551.911C1130.36 551.53 1124.58 551.146 1117.61 551.561L1117.77 577.123Z"/><path fill="#CFA66C" transform="translate(-377 -81)" d="M1147.07 548.615C1150.9 551.09 1151.44 552.133 1153.59 555.961C1144.28 557.808 1150.66 559.56 1147.63 564.009C1144.39 556.245 1144.67 555.138 1137.28 551.911C1138.11 551.902 1138.94 551.881 1139.77 551.849C1144.08 551.67 1144.54 551.332 1147.07 548.615Z"/><path fill="#D1A86E" transform="translate(-377 -81)" d="M920.408 544.429C934.982 544.129 961.511 541.129 964.314 560.445C966.472 575.314 955.347 583.107 942.462 584.754L926.524 584.825C926.758 590.022 928.34 599.19 924.264 602.468C920.618 602.223 920.504 602.824 918.153 600.931C917.362 594.08 917.696 552.529 918.648 545.668L920.408 544.429ZM951.185 575.615C967.081 556.414 944.203 550.617 928.591 551.448C925.584 554.503 926.589 567.689 926.63 572.804L926.675 577.563C933.938 577.511 944.505 577.852 951.185 575.615Z"/><path fill="#66442B" transform="translate(-377 -81)" d="M815.614 393.411C827.403 405.171 838.658 420.899 849.443 433.794C859.796 446.171 870.268 457.987 880.08 470.815C882.049 471.028 882.296 470.709 883.542 471.87C884.437 475.628 883.428 478.227 883.666 482.274C883.669 486.572 883.48 492.929 883.772 497.057C879.926 494.411 874.811 488.022 871.817 484.39C862.045 473.677 852.85 461.413 843.728 450.138C829.432 432.609 814.905 415.27 800.152 398.124C805.316 394.78 809.375 399.749 815.104 396.498L815.614 393.411Z"/><path fill="#624028" transform="translate(-377 -81)" d="M883.666 482.274C883.669 486.572 883.48 492.929 883.772 497.057C879.926 494.411 874.811 488.022 871.817 484.39C875.406 483.166 879.852 482.769 883.666 482.274Z"/><path fill="#624028" transform="translate(-377 -81)" d="M449.2 571.521C454.02 570.637 471.887 570.898 477.294 570.897L532.272 570.917L737.024 570.921L828.66 570.918C839.164 570.885 852.92 570.561 863.67 571.025C865.521 571.105 866.085 572.925 867.009 574.579C856.768 576.041 815.856 575.217 803.239 575.215L668.415 575.173L508.884 575.168C500.142 575.165 454.739 575.545 450.681 574.507L449.2 571.521Z"/><path fill="#624028" transform="translate(-377 -81)" d="M1307.05 571.366C1312.74 570.368 1334.05 570.771 1340.79 570.786L1407.44 570.912L1666.33 570.921C1682.96 570.899 1706.12 570.512 1723.28 571.172C1724.48 571.217 1724.97 572.741 1725.7 574.04C1719.88 575.935 1676.16 575.129 1667.5 575.108L1403.7 575.118L1335.58 575.122C1328.16 575.124 1319.31 575.253 1311.79 575.122C1309.12 575.075 1308.3 573.223 1307.05 571.366Z"/><path fill="#66442B" transform="translate(-377 -81)" d="M1741.81 430.156C1743.87 434.099 1745.76 437.517 1747.31 441.713C1753.23 457.485 1760.42 486.343 1775.29 493.082C1777.03 493.87 1778.79 494.611 1780.57 495.305C1775.05 495.321 1738.1 495.85 1735.19 494.711C1737.53 492.515 1745.79 492.716 1745.45 486.536C1744.86 475.869 1736.62 458.045 1732.33 448.145C1731.32 445.947 1730.8 443.462 1730.21 441.105C1729.78 439.191 1728.81 437.772 1727.83 436.062L1727.49 433.35C1733.27 433.512 1738.6 435.122 1741.81 430.156Z"/><path fill="#624028" transform="translate(-377 -81)" d="M1741.81 430.156C1743.87 434.099 1745.76 437.517 1747.31 441.713C1744.3 452.351 1738.67 439.984 1732.33 448.145C1731.32 445.947 1730.8 443.462 1730.21 441.105C1729.78 439.191 1728.81 437.772 1727.83 436.062L1727.49 433.35C1733.27 433.512 1738.6 435.122 1741.81 430.156Z"/><path fill="#D1A86E" transform="translate(-377 -81)" d="M1015.8 544.479C1024.21 544.287 1050.51 542.857 1056.91 545.617C1058.04 548.418 1058.07 547.34 1057.06 549.724C1051.92 553.541 1030.36 551.902 1023 551.786L1023.37 569.835C1031.25 569.765 1046.83 568.666 1053.07 572.814L1052.99 574.32C1046.6 578.122 1032.7 577.117 1025.09 576.971C1022.72 578.921 1023.45 591.378 1023.43 594.966C1031.33 594.881 1052.77 593.532 1058.4 597.55L1058.51 599.619C1052.81 604.558 1023.98 602.364 1015.85 602.324C1015.73 595.223 1014.2 548.143 1015.8 544.479Z"/><path fill="#66442B" transform="translate(-377 -81)" d="M1705.72 371.907L1701.98 366.457L1702.35 364.974C1705.78 363.737 1710.52 364.567 1714.82 363.997C1722.13 376.54 1736.48 415.58 1741.81 430.156C1738.6 435.122 1733.27 433.512 1727.49 433.35C1724.94 430.575 1709.81 389.549 1708.58 384.772C1704.43 380.096 1707.93 377.451 1705.72 371.907Z"/><path fill="#66442B" fill-opacity="0.95294118" transform="translate(-377 -81)" d="M1705.72 371.907C1707.93 377.451 1704.43 380.096 1708.58 384.772C1706.49 386.857 1690.72 429.799 1688.27 436.184C1701.46 436.001 1714.64 435.961 1727.83 436.062C1728.81 437.772 1729.78 439.191 1730.21 441.105L1687.25 440.972C1682.96 450.752 1669.04 480.744 1671.57 489.448C1673.4 492.01 1680.31 494.403 1683.54 495.753C1671.95 494.996 1658.16 495.237 1646.4 495.173C1650.04 494.075 1658.14 491.751 1659.55 488.842C1668.8 469.837 1705.41 387.225 1705.72 371.907Z"/><path fill="#66442B" transform="translate(-377 -81)" d="M1539.04 429.33C1542.38 442.808 1543.82 436.494 1554.07 441.514C1553.7 450.276 1553.59 459.047 1553.73 467.816C1554.65 485.134 1552.46 489.727 1570.45 495.801L1520.14 495.734C1533.39 492.228 1538.77 489.335 1538.69 473.912C1538.66 466.505 1538.84 458.836 1539.08 451.423C1538.85 444.355 1539.03 436.464 1539.04 429.33Z"/><path fill="#624028" transform="translate(-377 -81)" d="M1539.04 429.33C1542.38 442.808 1543.82 436.494 1554.07 441.514C1553.7 450.276 1553.59 459.047 1553.73 467.816L1552.3 467.536C1551.18 464.134 1551.52 448.055 1551.52 443.477C1541.87 445.471 1542.86 440.448 1539.08 451.423C1538.85 444.355 1539.03 436.464 1539.04 429.33Z"/><path fill="#66442B" fill-opacity="0.94509804" transform="translate(-377 -81)" d="M974.435 379.304L974.485 384.523C978.373 385.382 977.132 384.161 979.686 386.649L977.317 387.74L975.994 387.953C973.619 397.259 960.97 425.81 956.686 435.702C964.262 435.866 993.145 436.884 998.175 434.811C1000.02 436.719 1000.05 438.953 1000.95 441.892C997.8 439.908 961.933 440.833 955.558 440.761L945.057 465.16C942.223 471.849 936.739 482.988 939.581 490.008C942.407 492.798 950.373 494.418 954.621 495.654L912.338 495.742C914.324 495.079 916.299 494.386 918.263 493.663C922.339 492.18 925.63 490.6 928.164 486.869C933.44 479.103 937.508 468.411 941.293 459.696C948.97 442.016 956.606 424.355 964.031 406.589C967.834 397.489 970.214 388.385 974.435 379.304Z"/><path fill="#66442B" transform="translate(-377 -81)" d="M1458.25 443.25C1460.21 445.362 1464.39 449.634 1465.87 451.81C1469.1 455.183 1478.31 465.976 1480.82 469.833C1496.04 485.943 1495.21 488.848 1516.62 495.923C1487.62 496.411 1481.06 497.536 1463.9 472.507C1461.07 469.393 1455.22 460.547 1451.9 456.288L1445.15 449.154C1451 444.338 1453.66 447.299 1458.25 443.25Z"/><path fill="#624028" transform="translate(-377 -81)" d="M1458.25 443.25C1460.21 445.362 1464.39 449.634 1465.87 451.81C1461.19 452.23 1457.75 452.442 1453.17 453.629C1452.29 454.789 1452.1 454.889 1451.9 456.288L1445.15 449.154C1451 444.338 1453.66 447.299 1458.25 443.25Z"/><path fill="#66442B" fill-opacity="0.92941177" transform="translate(-377 -81)" d="M861.318 364.432C876.736 364.563 890.944 364.595 906.38 364.004C901.981 365.205 892.815 367.161 890.058 370.801C888.011 373.503 886.812 381.677 886.735 385.136C886.116 412.822 886.835 440.589 886.766 468.288C886.75 473.437 887.182 492.27 886.412 496.443L883.772 497.057C883.48 492.929 883.669 486.572 883.666 482.274C883.428 478.227 884.437 475.628 883.542 471.87C882.296 470.709 882.049 471.028 880.08 470.815C883.309 456.909 879.96 420.601 880.88 404.071C882.187 380.564 885.158 371.099 861.318 364.432Z"/><path fill="#D1A86E" transform="translate(-377 -81)" d="M801.063 313.532C846.338 307.972 908.322 304.825 952.317 319.322C947.667 320.14 945.552 320.065 940.882 319.989C906.449 316.502 871.32 316.152 836.741 315.447C831.23 312.091 808.181 317.462 801.063 313.532Z"/><path fill="#624028" fill-opacity="0.9137255" transform="translate(-377 -81)" d="M445.219 368.837L447.42 369.729C449.44 375.196 447.128 375.457 450.459 378.208C451.135 395.787 447.676 476.741 453.206 486.579C456.303 492.087 464.478 493.559 470.124 495.275C457.477 496.384 438.968 495.729 425.913 495.61C437.057 492.07 439.382 491.774 445.244 481.818C446.404 447.883 445.801 403.063 445.219 368.837Z"/><path fill="#624028" fill-opacity="0.92156863" transform="translate(-377 -81)" d="M549.326 479.024L549.392 411.676C549.384 405.353 549.391 398.923 549.319 392.608C549.165 379.055 550.55 368.554 534.277 365.232C537.949 364.425 567.288 364.627 574.159 364.233C568.914 365.734 557.699 368.344 556.747 373.246C550.987 402.893 557.542 459.737 555.143 486.903C554.215 486.484 553.525 485.668 552.784 484.94C552.834 482.497 552.909 481.899 552.186 479.518L549.326 479.024Z"/><path fill="#66442B" transform="translate(-377 -81)" d="M764.995 364.094L792.337 364.482C800.138 373.466 807.185 382.334 814.556 391.647L815.614 393.411L815.104 396.498C809.375 399.749 805.316 394.78 800.152 398.124L798.689 396.54C795.179 392.845 791.847 388.955 788.495 385.114C785.655 381.447 785.712 378.926 784.249 377.576C777.206 369.404 774.946 368.453 764.995 364.094Z"/><path fill="#6D4A2F" transform="translate(-377 -81)" d="M814.556 391.647L815.614 393.411L815.104 396.498C809.375 399.749 805.316 394.78 800.152 398.124L798.689 396.54C798.892 394.701 798.794 393.907 799.974 392.481C804.772 390.254 809.354 391.015 814.556 391.647Z"/><path fill="#66442B" fill-opacity="0.85882354" transform="translate(-377 -81)" d="M699.114 364.149C714.282 364.25 729.451 364.217 744.619 364.051C739.431 365.36 729.589 367.125 727.631 371.832C718.703 393.296 728.562 447.261 719.83 467.298C719.621 464.163 720.339 463.282 719.38 459.847L717.092 460.119C718.678 444.932 723.073 382.615 713.905 369.16C712.023 366.398 702.838 365.246 699.114 364.149Z"/><path fill="#D1A86E" transform="translate(-377 -81)" d="M1036.01 291.975C1036.18 291.909 1037.95 291.221 1037.95 291.221C1086.85 303.005 1136.49 311.345 1185.76 321.566L1181.51 323.635C1138.05 315.85 1075.27 309.001 1036.01 291.975Z"/><path fill="#624028" fill-opacity="0.84705883" transform="translate(-377 -81)" d="M784.249 377.576C785.712 378.926 785.655 381.447 788.495 385.114L787.126 386.004C787.014 394.831 788.328 413.462 788.494 423.478C788.73 437.664 787.507 469.014 789.389 481.38C786.253 478.301 786.142 476.834 785.294 472.605C784.498 475.119 783.637 478.1 782.643 480.492C781.808 471.594 782.764 382.684 784.249 377.576Z"/><path fill="#D1A86E" transform="translate(-377 -81)" d="M1244.05 588.556C1247.97 573.309 1244.48 551.846 1249.04 544.909C1251.82 543.468 1250.88 543.846 1254.38 544.329C1256.55 547.671 1256.06 579.081 1254.94 584.385C1253.93 589.352 1251.57 593.946 1248.13 597.666C1247.15 597.789 1246.16 597.897 1245.18 597.991C1240.87 598.406 1239.38 598.236 1236.23 595.648C1238.85 593.423 1241.77 591.09 1244.05 588.556Z"/><path fill="#66442B" fill-opacity="0.96470588" transform="translate(-377 -81)" d="M717.092 460.119L719.38 459.847C720.339 463.282 719.621 464.163 719.83 467.298C706.239 499.447 669.83 503.224 640.504 491.571C644.652 488.649 645.957 490.619 649.93 486.824C652.192 487.783 654.484 488.667 656.804 489.476C683.344 498.449 708.268 486.937 717.092 460.119Z"/><path fill="#66442B" fill-opacity="0.98039216" transform="translate(-377 -81)" d="M1269.47 308.825C1254.91 279.581 1288.63 254.791 1301.15 263.029L1301.28 264.093C1299.19 264.485 1297.1 264.926 1295.02 265.416C1277.42 269.676 1276.1 286.986 1279.83 301.576C1276.07 300.722 1275.34 300.536 1271.57 301.128C1268.75 303.791 1269.39 304.865 1269.47 308.825Z"/><path fill="#6D4A2F" transform="translate(-377 -81)" d="M1269.59 288.628C1273.16 289.187 1274.18 289.702 1275.42 292.998L1274.24 295.351C1271.8 295.632 1270.91 295.923 1268.78 294.559C1267.9 292.566 1268.86 290.709 1269.59 288.628Z"/><path fill="#D1A86E" transform="translate(-377 -81)" d="M1210.99 593.521C1209.33 591.484 1207.16 585.187 1207.41 582.533C1208.05 575.666 1202.51 545.01 1212.18 544.715C1212.77 545.123 1213.5 545.625 1214.37 546.22C1216.86 558.617 1211.74 579.805 1218.74 590.426L1218.97 590.773L1217.37 593.182C1214.6 593.668 1213.81 593.646 1210.99 593.521Z"/><path fill="#66442B" fill-opacity="0.97254902" transform="translate(-377 -81)" d="M995.474 185.058C998.855 186.624 1000.88 187.71 1004.6 188.39C989.549 202.212 967.949 222.277 949.673 230.956C966.307 215.896 980.131 201.324 995.474 185.058Z"/><path fill="#624028" transform="translate(-377 -81)" d="M782.643 480.492C783.637 478.1 784.498 475.119 785.294 472.605C786.142 476.834 786.253 478.301 789.389 481.38C795.664 495.905 796.841 491.072 809.148 495.866C803.698 495.854 773.366 496.308 770.554 494.897C776.734 487.852 777.287 493.019 782.643 480.492Z"/><path fill="#CFA66C" transform="translate(-377 -81)" d="M1218.97 590.773C1225.65 595.784 1227.84 595.475 1236.23 595.648C1239.38 598.236 1240.87 598.406 1245.18 597.991C1246.16 597.897 1247.15 597.789 1248.13 597.666C1236.44 606.435 1220.5 604.612 1210.99 593.521C1213.81 593.646 1214.6 593.668 1217.37 593.182L1218.97 590.773Z"/><path fill="#D1A86E" fill-opacity="0.97647059" transform="translate(-377 -81)" d="M958.539 280.787C975.303 276.843 997.135 272.344 1014.4 270.41C999.274 275.666 983.041 278.352 968.898 283.597C965.086 281.235 962.925 281.245 958.539 280.787Z"/><path fill="#CFA66C" fill-opacity="0.98823529" transform="translate(-377 -81)" d="M1142 584C1146.52 588.736 1152.08 593.814 1154.26 599.91L1154.04 602.017C1147.58 603.836 1138.86 591.814 1135.98 586.721C1138.16 586.665 1139.1 586.558 1141.22 586.22L1142 584Z"/><path fill="#CFA66C" fill-opacity="0.98039216" transform="translate(-377 -81)" d="M1021.02 272.357L1023.59 270.717C1023.3 274.235 1021.34 275.66 1022.73 280.308C1024.39 285.843 1031.24 289.223 1036.01 291.975C1028.73 294.049 1006.96 286.7 1021.02 272.357Z"/><path fill="#624028" fill-opacity="0.98039216" transform="translate(-377 -81)" d="M1104.5 348.704C1107.97 348.917 1113.48 349.76 1116.21 349.849C1103.09 357.879 1104.06 358.969 1099.64 371.45C1095.85 366.201 1100.48 353.327 1104.5 348.704Z"/><path fill="#6D4A2F" fill-opacity="0.98823529" transform="translate(-377 -81)" d="M416.04 340.458C403.282 333.464 395.705 336.376 389.299 333.177C398.026 329.553 416.312 334.023 424.989 337.304C421.227 339.911 420.498 340.199 416.04 340.458Z"/><path fill="#6D4A2F" fill-opacity="0.96078432" transform="translate(-377 -81)" d="M1302.15 247.111C1308.79 251.746 1312.54 254.261 1316.99 261.11L1316.24 261.923C1308.07 259.344 1306.23 255.605 1295.32 252.441C1300.55 251.123 1299.12 251.831 1302.15 247.111Z"/><path fill="#F4F3EE" fill-opacity="0.2" transform="translate(-377 -81)" d="M1376.32 266.722C1376.82 258.809 1381.29 242.827 1386.17 237.342L1387.14 238.069C1388.22 244.075 1379.55 256.303 1384.75 261.367L1382.98 262.043C1381.22 259.604 1381.92 256.355 1381.95 252.817C1377.49 255.72 1381.43 261.448 1376.32 266.722Z"/><path fill="#CFA66C" fill-opacity="0.92941177" transform="translate(-377 -81)" d="M801.063 313.532C808.181 317.462 831.23 312.091 836.741 315.447C820.894 315.857 805.052 316.425 789.216 317.151C784.875 317.179 782.785 316.877 778.572 316.246L801.063 313.532Z"/><path fill="#CFA66C" fill-opacity="0.97647059" transform="translate(-377 -81)" d="M1235.9 528.907C1238.84 528.591 1241.02 528.111 1243.79 529.088L1243.82 530.525C1240.8 533.583 1238.03 535.735 1234.69 538.406C1232.23 539.35 1230.18 539.878 1227.99 538.95C1228.64 536.338 1233.81 531.199 1235.9 528.907Z"/><path fill="#6D4A2F" fill-opacity="0.98823529" transform="translate(-377 -81)" d="M978.172 371.21C979.104 367.432 979.231 363.977 983.328 363.411C986.639 365.798 985.826 365.584 987.536 369.802C985.28 374.318 986.476 373.336 982.648 375.762C980.032 375.474 980.963 375.914 979.099 374.166L978.172 371.21Z"/><path fill="#66442B" fill-opacity="0.96862745" transform="translate(-377 -81)" d="M1237.74 347.262C1244.34 343.81 1252.62 336.017 1254.97 335.345C1255.36 338.423 1252.89 344.327 1251.4 347.027L1237.74 347.262Z"/><path fill="#CFA66C" fill-opacity="0.87843138" transform="translate(-377 -81)" d="M1185.76 321.566C1195.81 323.399 1210.94 326.218 1220.61 329.365C1207.18 327.681 1194.87 326.113 1181.51 323.635L1185.76 321.566Z"/><path fill="#E8D1AE" fill-opacity="0.4627451" transform="translate(-377 -81)" d="M952.317 319.322C959.022 320.36 963.239 321.65 969.679 323.597C965.13 323.078 944.277 320.978 940.882 319.989C945.552 320.065 947.667 320.14 952.317 319.322Z"/><path fill="#E8D1AE" fill-opacity="0.45882353" transform="translate(-377 -81)" d="M789.216 317.151C784.627 318.574 777.319 318.347 772.552 317.331C774.317 316.149 776.356 316.343 778.572 316.246C782.785 316.877 784.875 317.179 789.216 317.151Z"/></g></svg>